<?xml version="1.0" encoding="utf-8"?>
<!-- Generator: Adobe Illustrator 17.1.0, SVG Export Plug-In . SVG Version: 6.00 Build 0)  -->
<!DOCTYPE svg PUBLIC "-//W3C//DTD SVG 1.1//EN" "http://www.w3.org/Graphics/SVG/1.1/DTD/svg11.dtd">
<svg version="1.1" id="Layer_1" xmlns="http://www.w3.org/2000/svg" xmlns:xlink="http://www.w3.org/1999/xlink" x="0px" y="0px"
	 viewBox="0 0 140 100" enable-background="new 0 0 140 100" xml:space="preserve">
<g fill="#ff3366">
	<path d="M62.7,38.4c-2,0.1-3.6-0.9-3.3-1.9c0.2-0.6,1.2-1.3,2-1.4c1.4-0.2,2.2,0.8,2.4,2C63.8,37.5,63,38.1,62.7,38.4z"/>
	<path d="M5.3,70.8c0.8-1.8,1-3.4-0.7-5c-0.7-0.6-1.1-1.8-1.2-2.8c-0.6-4.6-0.5-9.2,1.6-13.5c4.1-8.8,9.9-16.5,17-23.3
		c3-2.9,6.8-4.7,10.8-6.1c2-0.7,5.8,0.4,6.8,2c0.5,0.9,0.7,2.4,0.2,3.2c-1.3,2.6-2.7,5.1-4.5,7.4c-1.3,1.7-3.2,3.1-5,4.5
		c-1.9,1.5-3.3,1.6-4.5,0.5c-1.2-1.1-1.1-2.4,0.6-4.2c1.3-1.4,2.7-2.6,4-4c0.6-0.6,1-1.4,1.5-2.1c-0.2-0.2-0.4-0.4-0.6-0.6
		c-1.7,1.2-3.5,2.1-5.1,3.5c-5.2,4.6-9.5,10-13.1,15.9c-2,3.4-3.8,6.9-4.1,10.9c-0.1,1.3,0,2.6,0.1,3.9c0.3,0.1,0.6,0.2,0.9,0.3
		c1-1.4,1.9-2.8,3-4.1c2-2.3,3.9-4.6,6.2-6.6c1.5-1.3,3.4-2.1,5.3-2.8c3.3-1.2,6.3,1.3,5.8,4.6c-0.4,3.4-3,5.5-5.3,7.6
		c-2.6,2.2-5.5,4.1-8.4,5.8c-2.5,1.4-4.2,3.3-5.3,5.8C9,77.2,7.5,83.1,6.8,89.2c-0.1,0.9-0.1,1.8,0.1,2.7c0.4,2,1.3,2.7,3.5,2.5
		c3-0.2,5.5-1.6,7.7-3.4c4.3-3.7,7.9-8,10.8-12.8c0.8-1.3,1.2-3,1.5-4.6c1.1-6.5,4.1-12.2,8.2-17.4c0.5-0.6,1.1-1.2,1.8-1.7
		c1.5-1,3-0.6,4.4,0.2c1.4,0.7,1.5,2,1.3,3.3c-0.8,4.3-3,8-5.2,11.7c-1.1,1.9-2.1,3.7-3.4,6c2.4,0.1,3.4-1.1,4.4-2.1
		c4.4-4,7.8-8.7,10.5-13.9c0.8-1.5,1.7-2.8,3.8-2.6c2.4,0.2,3.5,1.6,2.7,3.8c-0.7,1.8-1.8,3.5-2.7,5.3c-1.8,3.4-2.9,7.1-3.1,10.9
		c0,0.5,0,0.9,0.1,1.4c0,0.2,0.3,0.4,0.9,1.2c2-2.3,4.1-4.2,5.6-6.5c2.6-4.1,4.9-8.4,7.1-12.7c0.7-1.4,1.3-2.5,3.1-3
		c0.8-0.2,1.7-1.3,1.9-2.1c2.6-10.9,7.3-20.9,13-30.6c2.2-3.8,4.8-7.4,7.4-11c2.8-3.7,5.8-7.3,8.7-10.9c0.7-0.8,1.5-1.5,2.4-2
		c3-1.6,6.6,0.1,6.9,3.4c0.1,1.2-0.1,2.5-0.4,3.7c-1.5,6.6-4.3,12.7-7.4,18.6c-5,9.7-10,19.3-15.4,28.9c-2.5,4.4-5.7,8.5-8.5,12.8
		c-1.6,2.4-1.3,4.2,0.7,6.1c1.5,1.5,3.5,1.8,5.2,0.6c4-2.8,7.3-6.3,10-10.3c0.4-0.6,0.5-1.8,0.2-2.6c-1.5-4.4-0.5-8.5,2-12.2
		c5-7.3,10.6-14.2,17.6-19.9c2.8-2.3,5.3-2.7,8.1,0.6c-0.8,3.6-2.5,7-4.5,10.2c-3.5,5.5-7.3,10.8-10.9,16.2
		c-1.2,1.8-2.7,3.5-3.2,6.3c3.5-0.8,5.9-2.4,7.1-5.1c2.2-5.4,5.4-10.2,8.9-14.9c0.7-0.9,1.6-2,2.5-2.2c1.1-0.2,2.5,0.3,3.6,0.8
		c1.2,0.7,1.1,2,0.6,3.1c-1.5,3-2.9,6-4.6,8.9c-1.3,2.2-2.9,4.2-4.5,6.2c-1.8,2.2-1.9,4.6-1.3,7.2c0.6,2.3,2.4,3.2,4.6,2
		c1-0.5,1.9-1.4,2.7-2.3c1.7-1.9,3.3-4,4.8-6c2.3-3,4.4-3.5,7.7-1.5c1.3,0.8,3.5,1.3,3.1,3.3c-0.3,2.2-2.6,1.5-4,2
		c-1.2,0.4-2.4,1-3.3,1.9c-1.3,1.2-2.3,2.6-3.6,3.9c-5.4,5.6-13.5,4.8-17.6-1.7c-1.1-1.7-2.2-2.2-4.1-1.7c-1.1,0.3-2.4,0.5-3.6,0.3
		c-2.6-0.5-4.3,0.6-5.8,2.5c-1.8,2.2-3.6,4.3-5.6,6.3c-4.7,4.6-10.2,4.7-15.4,0.7c-0.8-0.6-1.7-1.2-2.6-1.9c-1,0.7-1.9,1.3-2.8,1.8
		c-1.3,0.8-2.8,1.5-4.4,0.8c-1.7-0.7-2.7,0.2-3.7,1.2c-1.4,1.5-2.8,3.1-4.4,4.5c-3.6,3.1-8.3,2.1-10.3-2.2c-0.5-1-0.8-2.1-1.5-3.7
		c-1.4,0.8-2.5,1.5-3.7,2.2c-2.1,1.4-4.3,2.5-7,2.1c-1.7-0.3-2.6,0.8-3.5,1.9c-3,3.4-6,6.9-9.1,10.2c-2.6,2.7-5.9,4.4-9.7,5
		c-2.2,0.3-4.6,0.3-6.7-0.3c-4.9-1.3-6.4-3.9-5.9-8.8C1.4,83.3,2.8,76.9,5.3,70.8z M100.9,56.4c4.4-5.2,8.5-10.5,12-17
		C108.3,41.8,100.9,52.2,100.9,56.4z M104.8,10.9c0.4-1,0.4-2.1,0.7-3.6c-2.7,0.7-3.9,2.3-5,3.8c-2.4,3.2-4.7,6.4-7,9.6
		c-7.4,10.6-13,21.9-15.9,34.5c-0.3,1.3-0.4,2.6-0.6,3.9c0.3,0.1,0.7,0.2,1.1,0.3c1.2-1.8,2.6-3.5,3.7-5.4
		c6.2-10.6,12.4-21.3,18.3-32C102.1,18.5,103.4,14.6,104.8,10.9z"/>
</g>
</svg>
