<?xml version="1.0" encoding="utf-8"?>
<!-- Generator: Adobe Illustrator 17.1.0, SVG Export Plug-In . SVG Version: 6.00 Build 0)  -->
<!DOCTYPE svg PUBLIC "-//W3C//DTD SVG 1.1//EN" "http://www.w3.org/Graphics/SVG/1.1/DTD/svg11.dtd">
<svg version="1.1" id="Layer_1" xmlns="http://www.w3.org/2000/svg" xmlns:xlink="http://www.w3.org/1999/xlink" x="0px" y="0px"
	 viewBox="0 0 260 100" enable-background="new 0 0 260 100" xml:space="preserve">
	<g fill="#ff6600">
		<path d="M145.4,61.9c2.4,0.7,4.7-0.1,6.6-1.3c3-1.8,5.9-3.8,8.7-6c1.2-0.9,2-2.3,2.8-3.5c0.8-1.2,1.6-2.3,3.2-2.3
			c1.8,0.1,3.3,1,3.8,2.7c0.4,1.5,0.3,3.1,0.2,4.7c-0.1,1.1-0.5,2.1-1,3.8c6.1-1.2,10.1-5.8,15.7-6.7c1,2.6,0.1,4.5-1.7,5.9
			c-3.5,2.7-7.2,5.2-10.8,7.8c-2.7,2-5.2,2.1-8.6-1.5c-0.5-0.6-1.1-1.2-1.8-2.1c-1,0.6-2,1.1-3,1.6c-3.9,2.1-7.7,4.7-12.3,5.1
			c-4.3,0.3-8.4,0.8-12.3,3c-3.2,1.8-6.8-0.2-8.7-3.9c-1.1-2.2-2-4.4-3.1-7c-1,0.6-1.8,1-2.4,1.5c-1.7,1.5-3.3,3-4.9,4.5
			c-5.6,5.1-10.8,3.3-14.2-3.1c-2.2-4.2-2.7-8.9-3.1-13.5C98,46,97.7,40.3,97.2,34.6c-0.1-1.4,0.1-2.7,1.4-3.3
			c1.5-0.8,3.1-0.3,4.2,0.9c1.5,1.6,2.1,3.5,2.2,5.7c0.3,5.8,0.6,11.6,0.9,17.4c0.1,1.6,0.4,3.2,0.8,4.8c0.6,2.7,2,3.2,4.2,1.6
			c1.6-1.2,3-2.6,4.5-3.9c2.4-2,4.8-4.2,7.3-6.1c2.8-2.1,5-1.6,6.7,1.4c0.8,1.4,1,3.1,1.3,4.6c0.4,1.9,0.5,3.9,0.8,5.9
			c0.2,1.4,1,2.4,2.6,2.2c1.5-0.2,2.2-1.1,2.3-2.6c0.3-8.2,6-12.5,12.4-16.1c1.9-1.1,4.1-1.1,6.1,0.1c1.6,0.9,2.6,3.1,2.2,4.8
			c-0.5,1.8-1.8,2.5-3.6,2.8C149.3,55.5,146.1,58.3,145.4,61.9z"/>
		<path d="M12.2,69.5c1.1,1.4,1.8,2.4,2.6,3.3C20.2,78.3,26,83.2,32.7,87c2.6,1.5,5.4,2.8,8.6,3c2.3,0.1,3.9-0.7,4.8-2.8
			c1.4-3.2,2.5-6.6,2.4-10.1c-0.3-14.6-4.2-28.4-9.3-42.1C35.8,25.8,31,17.3,26.3,8.7c-0.7-1.2-1.2-2.6-1.4-3.9
			c-0.3-2.5,1.8-3.9,3.8-2.6c1.7,1.1,3.4,2.7,4.2,4.5c4.1,9,8.3,18,11.8,27.2c3.7,9.6,6.7,19.3,8.3,29.5c1.1,6.7,2.3,13.3,1.5,20.1
			c-0.4,3.5-1.2,6.9-3.1,9.9c-2.3,3.7-5.2,4.9-9.6,4c-5.7-1.1-10.7-3.8-15.2-7.2c-7.9-5.9-15-12.7-21-20.6c-1.2-1.6-2.8-3.3-1.6-5.3
			c1.2-2.1,3.6-1.5,5.5-1.3c1.6,0.1,3.3,0.5,4.8,1.1c0.9,0.4,1.9,1.5,2.1,2.4c0.3,1.3-1,1.9-2.2,2.2C13.8,69,13.4,69.2,12.2,69.5z"/>
		<path d="M213.4,53.5c-4.4,2-7.4,5.2-10.2,8.5c-2.1,2.5-4.2,5-6.4,7.4c-1.2,1.3-2.5,2.8-4.5,2.1c-1.9-0.7-3-2.3-3.3-4.2
			c-0.3-2.2-0.6-4.4-0.4-6.6c0.3-3.6,0.9-7.2,1.7-10.7c0.8-3.3,2.1-4.2,4.1-3.6c2.1,0.6,3.7,3.7,3.1,6c-0.4,1.5-0.9,3.1-1.4,4.8
			c1.9,0.2,2.5-1.1,3.3-2c3.3-3.7,7.1-6.8,11.4-9.2c1-0.6,2.1-1.1,3.2-1.5c3-1,5.7,0.4,6.7,3.4c0.4,1.1,0.5,2.3,0.7,3.4
			c0.8,4.5,2.1,5.7,6.8,5.9c2.8,0.1,5.6,0,8.5-0.1c2.4-0.1,4.7-0.4,7-0.4c3.3,0,6.6,0.2,9.8,0.4c1.3,0.1,2.2,0.7,2.4,2.1
			c0.2,1.6-0.8,2.5-2.1,2.8c-2.7,0.7-5.5,1.3-8.3,1.6c-3.8,0.5-7.7,0.9-11.6,1.2c-2.1,0.2-4.2,0.1-6.3,0.1c-6.5,0-10.5-3.3-13-9
			C214.3,55.2,213.9,54.5,213.4,53.5z"/>
		<path d="M93,64.1c-0.2,2.8-0.8,5.4-2.5,7.6c-4.3,5.6-9.5,10-16.3,12.3c-1.3,0.4-2.7,0.7-4.1,0.8c-4.6,0.4-7.7-1.8-10.1-5.6
			c-2.8-4.4-2.5-8.8-0.8-13.4c2.4-6.3,5.9-11.9,11-16.4c0.9-0.8,1.5-2,2.2-3.1c1.3-1.8,2.2-2.3,4.2-1.4c6.7,3,12.7,6.8,15.3,14.1
			C92.4,60.6,92.6,62.4,93,64.1z M73.3,58c-4,3.9-7.3,8.8-8.3,14.8c-0.6,3.9,1.5,5.8,5.4,4.9c6.4-1.3,11.4-4.9,14.9-10.3
			c1.4-2,1.9-4.3,0.6-6.5c-2-0.7-3.8-1.5-5.7-2C78.3,58.6,76.2,58.4,73.3,58z"/>
	</g>
</svg>
