<?xml version="1.0" encoding="utf-8"?>
<!-- Generator: Adobe Illustrator 17.1.0, SVG Export Plug-In . SVG Version: 6.00 Build 0)  -->
<!DOCTYPE svg PUBLIC "-//W3C//DTD SVG 1.1//EN" "http://www.w3.org/Graphics/SVG/1.1/DTD/svg11.dtd">
<svg version="1.1" id="Layer_1" xmlns="http://www.w3.org/2000/svg" xmlns:xlink="http://www.w3.org/1999/xlink" x="0px" y="0px"
	 viewBox="0 0 220 100" enable-background="new 0 0 220 100" xml:space="preserve">
<g fill="#ff3366">
	<path d="M6.7,97.2c-1.2,0-3.2-1.7-3.5-3c-0.2-1-0.1-2.2-0.1-3.2c0.4-7.1,2.2-14,4.3-20.7c3.3-10.1,7.1-20,10.9-29.9
		C23,28.4,27.9,16.6,32.7,4.7c1.4-3.5,2.4-4.3,5.4-3.9c3,0.4,4.8,2.2,5.1,5.4c0.5,6.8,0.9,13.6,1.4,20.4c0.1,1.9-0.2,3.9,1.4,5.9
		c0.7-0.5,1.3-0.7,1.8-1.2c6.2-6.3,13.5-11.1,21-15.7c4-2.5,8-5.2,11.9-7.8c1.1-0.7,2.2-1.4,3.4-1.9c4.1-1.7,7.8,1.2,7.1,5.7
		c-0.5,2.8-1,5.6-1.8,8.3C87.2,27,84.4,34,80.9,40.6c-4.8,9.2-9.3,18.6-14.3,27.8c-4.8,8.7-10,17.3-15.1,25.8
		c-1.4,2.4-2.9,2.7-4.8,1.5c-2-1.2-2.5-2.5-1.5-4.6c0.7-1.4,1.6-2.6,2.4-3.9c2.7-4.6,5.6-9.1,8.1-13.7c5.7-10.4,11.5-20.7,16.7-31.2
		c3.1-6.3,5.4-13,7.9-19.6c0.5-1.4,1.3-3,0.1-5c-0.9,0.3-1.8,0.5-2.6,1c-5.6,3.5-11.3,6.9-16.6,10.7C54.5,34.3,49,40.4,45.6,48.1
		c-1.4,3.2-2.6,3.4-5.5,1.5c-2-1.4-2.8-3.2-2.8-5.5c0.2-6.9,0.3-13.9,0.4-20.8c0-2.5-0.3-5-0.5-7.5c0-0.5-0.4-0.9-0.6-1.3
		c-1.7-0.2-1.9,1.1-2.3,2c-1.6,4-3.1,8.1-4.8,12.1c-2.7,6.5-5.6,13-8.1,19.5c-5.1,13.2-9.8,26.5-11.9,40.5c-0.3,1.8-0.3,3.7-0.6,5.5
		C8.8,95.4,8.7,97.1,6.7,97.2z"/>
	<path d="M82.5,73.8c-1.7-0.2-3.9-2.8-3.9-5.3c0.4-1.5,0.9-3.6,1.7-5.6c1-2.6,2.2-5.2,3.1-7.9c1-2.7,1.8-5.6,2.5-8.4
		c0.6-2.4,2.1-3.7,4.6-3.6c2.3,0.1,4.3,1.7,4.2,4.1c-0.1,1.9-0.6,3.9-1.5,5.5c-3.2,5.7-5.4,11.8-7.6,17.9
		C84.7,73.1,83.9,74,82.5,73.8z"/>
	<path d="M118.7,58.4c0.1-0.4,0-0.8,0-1.8c-1.3,0.7-2.5,1-3.3,1.7c-4,3.6-8,7.3-11.9,11c-1.3,1.2-2.4,2.5-3.7,3.7
		c-1.2,1.2-2.5,1.8-4.1,0.9c-1.7-0.9-3-2.2-2.8-4.3c0.1-0.7,0.2-1.6,0.6-2.2c3-4.5,4.1-9.8,6.1-14.7c0.5-1.2,1-2.4,1.6-3.6
		c0.7-1.4,1.9-2.1,3.4-2.1c1.7,0,2.8,0.9,3.5,2.4c0.2,0.4,0.3,0.8,0.4,1.2c0.5,1.3,1.4,1.6,2.6,1c1.1-0.5,2.1-1.2,3.1-1.7
		c1-0.5,2-0.9,3-1.2c3.1-0.8,6.2-1.6,9.4-2.4c2.9-0.7,5.6,2,4.9,5.1c-0.3,1.1-1,2.2-1.6,3.2c-3.7,5.7-6.5,11.8-8.3,18.3
		c-0.5,1.8-0.7,3.6-1.2,5.4c-0.8,2.7-2.2,3-4.2,1c-1.1-1.1-1.9-2.4-1.7-4c0.4-2.7,0.6-5.4,1.3-8C116.6,64.3,117.8,61.4,118.7,58.4z"
		/>
	<path d="M97.1,22.7c0.5-1.8,1.5-2.5,3.3-2.4c1.8,0.1,2.9,0.8,3.3,2.5c0.2,0.8,0.2,1.7,0,2.5c-0.2,1.5-0.6,2.9-0.9,4.4
		c-0.5,2.5-2.1,3-4.2,1.4c-1.6-1.3-2.1-2.9-2-4.9C96.7,25,96.8,23.8,97.1,22.7z"/>
	<path d="M133.3,40.4c-1.7-1.1-2.7-3.4-2.2-5c0.6-1.8,3.6-3.9,6.4-3.9c0.6,0.4,2.1,1,2.9,2.1c0.9,1.3,0.1,2.7-0.9,3.8
		c-0.7,0.7-1.3,1.5-1.9,2.2C136.1,41.2,134.9,41.4,133.3,40.4z"/>
	<path d="M152,57.8c-0.8-0.1-1.2-0.3-1.4-0.2c-4.8,2.5-8.9,5.7-11.7,10.4c-1.3,2.2-1.3,3.6-0.3,4.5c1,0.9,3,0.6,4.6-1.2
		c2.1-2.3,3.9-4.9,5.7-7.5C150,62,150.8,60,152,57.8z M136.6,79.6c-3.7-2.1-6.8-5-6.7-9.6c0-1.6,0.9-3.4,1.8-4.8
		c4.6-6.5,10.4-11.7,17.6-14.9c1.9-0.9,4.1-1.1,6.2-1.4c3.8-0.6,7.8,3.9,6.6,8.4c-0.3,1.3-0.9,2.4-1.3,3.7
		c-1.2,3.8-2.5,7.6-3.6,11.5c-0.5,1.7-0.4,3.3,0.9,4.9c1.2,1.4,0.7,3.5-0.8,4.9c-1.3,1.2-2.8,1.3-4.4-0.2c-1.1-1-1.9-2.3-2.7-3.6
		c-0.5-0.8-0.8-1.8-1.4-3.2c-1.5,1.2-2.5,2.1-3.6,2.9C142.6,80.2,139.7,81.4,136.6,79.6z"/>
	<path d="M167,88.5c-2.6-0.9-4.2-3.6-3.3-5.8c0.9-2.4,1.8-4.9,3-7.2c3.3-6.2,5.1-12.9,7.4-19.4c0.9-2.6,1.5-3.3,3.4-3.3
		c2.1,0,3.9,1.4,4.5,3.5c0.2,0.7,0.4,1.4,0.7,2.6c1.3-0.7,2.3-1.3,3.2-1.7c5.2-2.6,9.7,0,10.3,5.9c0.1,1.4,0.2,2.7,0.3,4.1
		c2.1,0.3,3.2-0.9,4.5-1.7c2.7-1.5,5.4-3.3,8.3-4.2c4.8-1.5,8.2,2,7.3,7c-0.9,4.7-3.3,8.7-5.4,12.8c-1.9,3.7-3.7,7.3-5.7,10.9
		c-0.9,1.7-2,3.4-3.4,4.7c-1.5,1.5-3.3,1.3-5-0.1c-1.7-1.5-2-2.8-0.9-4.8c3-5.5,6.1-11,9.1-16.5c0.6-1.1,1-2.3,1.1-3.9
		c-0.7,0.3-1.5,0.4-2.2,0.8c-5.8,3.8-11.2,8.2-15.9,13.3c-0.2,0.2-0.4,0.5-0.6,0.7c-2.5,2.7-3.7,2.8-5.9,0.7c-2.3-2.2-2.3-4.8,0-7.1
		c3.4-3.3,5.4-7.3,6.1-11.9c0.1-0.5,0-1,0-1.4c-1.5-0.8-2.3,0.1-3,0.8c-5.6,5.4-10.3,11.4-13.6,18.4C170.1,88.1,168.7,89,167,88.5z"
		/>
</g>
</svg>
