<?xml version="1.0" encoding="utf-8"?>
<!-- Generator: Adobe Illustrator 17.1.0, SVG Export Plug-In . SVG Version: 6.00 Build 0)  -->
<!DOCTYPE svg PUBLIC "-//W3C//DTD SVG 1.1//EN" "http://www.w3.org/Graphics/SVG/1.1/DTD/svg11.dtd">
<svg version="1.1" id="Layer_1" xmlns="http://www.w3.org/2000/svg" xmlns:xlink="http://www.w3.org/1999/xlink" x="0px" y="0px"
	 viewBox="0 0 240 100" enable-background="new 0 0 240 100" xml:space="preserve">
<g fill="#ff6600">
	<path d="M204.2,79.5c-1,4-1,7.7-2.8,10.9c-0.6,1.1-0.5,2.1,0.3,3c0.8,0.9,1.6,1.9,3,1.2c2-1,3.8-2.3,4.2-5c0.6-4,1-8,1.9-11.9
		c0.8-3.8,0.9-7.6,1.4-11.5c0.6-4.6,1.7-9.1,2.7-13.7c0.6-2.8,1.4-5.7,2.2-8.4c0.3-1.2,0.9-2.3,1.6-3.4c1.1-1.9,0.9-3.1-0.9-4.1
		c-0.4-0.2-0.8-0.4-1.2-0.5c-0.8-0.2-1.2-0.7-1.4-1.6c-0.4-1.8-1.6-2.8-3-3.5c-1-0.5-2-1-2.9-1.7c-3.2-2.3-6.9-3.2-10.6-4.2
		c-2-0.5-4.1-0.1-6,0.7c-0.9,0.4-1.8,1.3-2.4,2.2c-1.2,1.9-1.6,4.1-1.3,6.5c0.9,7.5,3.7,14.1,7.5,20.3c2.4,4,4.8,8.1,7.1,12.2
		c0.5,0.8,0.8,1.7,1.2,2.5c0.6,1.6,0.3,2.4-1.2,2.9c-1.9,0.6-3.8,1-5.7,1.3c-5.9,0.7-11.9,1.3-17.8,2c-3.9,0.5-7.6,2-11.2,3.9
		c-3.6,2-6,5.1-6.6,9.7c-0.3,2.3,0.1,4.4,1.2,6.3c0.9,1.7,2.5,1.7,3.3,0c0.5-1.1,0.8-2.4,1.1-3.6c0.3-1,0.5-2.1,0.8-3.2
		c0.8-2.6,2.5-4.1,4.9-5c4.1-1.5,8.3-2.6,12.5-3c4-0.4,8-0.7,12-1.1c1.2-0.1,2.3-0.4,3.5-0.5C202.2,79.4,203,79.5,204.2,79.5z
		 M195.9,34.8c-0.1-2.4,0.9-3.2,2.9-2.4c1,0.4,1.8,0.9,2.8,1.4c2.8,1.5,5.2,3.8,8.3,4.6c0.7,0.2,1.1,0.8,1,1.6
		c-0.1,0.5-0.2,1.1-0.3,1.6c-0.9,4.1-1.7,8.3-2.6,12.4c-0.4,1.8-0.8,3.6-1.3,5.9c-0.8-0.8-1.4-1.1-1.7-1.6
		c-3.8-6.4-7.2-13-8.6-20.5C196.2,36.8,195.9,35.8,195.9,34.8z"/>
	<path d="M155,17.2c3.1-0.5,6.1,0.1,8.7,1.8c2.5,1.6,5,3.4,7.4,5.2c3.4,2.6,6.7,5.3,10,8.1c4.4,3.6,5.4,8.3,3.7,13.5
		c-2.3,7.2-5.4,14.2-9.8,20.5c-4.3,6.1-10.4,9.1-17.6,9.4c-6.9-0.3-11.8-3.3-15.2-8.9c-0.2-0.3-0.4-0.7-0.5-1.1
		c-1.2-3.8-2.6-7.5-3.5-11.3c-1.1-4.5-0.4-8.9,0.6-13.4c1.3-5.6,3.9-10.5,7.6-14.9c0.7-0.8,1.1-1.9,1.4-3
		C148.8,19.5,151,17.8,155,17.2z M145.1,53c0.8,4,2.1,7.8,3.8,11.5c1.2,2.6,3.3,4,5.8,4.4c2,0.4,4.1,0.1,6.1-0.4
		c4.5-0.9,7.3-4.2,9.6-7.8c3.1-4.9,5.8-10,7.6-15.5c1-3.1,0.9-5.8-1.4-8.4c-3.7-4.2-8.1-7.6-12.7-10.7c-3.7-2.4-7.1-1.9-10,1.3
		c-1.5,1.6-2.7,3.5-3.9,5.3c-3.2,4.7-5.1,9.8-5.4,15.5C144.6,49.9,144.8,51.4,145.1,53z"/>
	<path d="M110.4,30.9c-1.3,1.2-2.8,1.5-4.4,0.7c-1-0.5-2-0.9-3-1.6c-1.6-1.1-1.8-2.8-0.4-4.3c0.4-0.4,0.8-0.8,1.3-1
		c3.4-1.2,5.9-3.7,8.7-5.8c2.5-1.9,4.8-4,7.4-5.7c5.3-3.5,10.6-6.9,16.2-10.1c2.4-1.4,5.3-2.1,8-3c0.9-0.3,1.9-0.3,2.8-0.2
		c2.3,0.2,3.7,2.4,2.9,4.5c-0.2,0.6-0.9,1.1-1.5,1.4c-0.6,0.3-1.4,0.4-2.1,0.6c-4.5,0.9-8.3,3-12,5.7c-1.4,1-2.7,2-4.1,2.9
		c-1.9,1.2-2.6,2.8-2.4,5c0.6,5.5,1,11,1.4,16.5c0.4,6.9,0.6,13.9,0.9,20.8c0.1,2.3,0.3,4.6,0.7,6.8c0.3,2.3,1,4.5,2.3,6.4
		c1.1,1.5,1.1,3.1,0.6,4.8c-0.5,1.7-1.7,2-3.4,1.6c-4.2-0.9-5-4.4-5.9-7.8c-1.4-5-1.3-10.2-1.4-15.3c-0.1-5.3-0.1-10.6-0.5-15.9
		c-0.4-4.6-1.3-9.2-1.9-13.8c0-0.3-0.3-0.5-0.7-1.2c-1.8,1.4-3.5,2.6-5.1,3.9C113.4,28.2,111.9,29.5,110.4,30.9z"/>
	<path d="M69.8,10.1c3-1.8,5.2-1.2,6.5,2c0.8,2,1.1,4.3,1.2,6.5c0.2,5.1,0.1,10.3,0.2,15.4c0,0.6,0.2,1.2,0.4,2.3
		c0.9-0.8,1.3-1.1,1.7-1.5c6.4-7.7,12.5-15.6,18.1-23.8c0.6-0.9,1.1-1.8,1.6-2.6c1-1.8,2.4-3.1,4.2-4.1c1.7-1.1,4.4-0.6,5.5,1.1
		c0.3,0.5,0.5,1.4,0.3,2c-0.5,2.1-1.4,4-3.2,5.4c-0.8,0.6-1.5,1.2-2.2,1.8c-1.8,1.4-2.9,3.2-4.1,5.1c-2.2,3.5-4.8,6.7-7.1,10.1
		c-2.6,3.8-5.2,7.5-7.8,11.3c-0.8,1.2-0.7,1.7,0.7,2.7c2.6,1.9,5.2,3.6,7.7,5.6c4,3.2,7.8,6.5,11.6,9.8c2.2,1.9,4.4,3.9,6.4,6.1
		c1.9,2,3.4,4.3,5.2,6.5c0.5,0.7,1.1,1.6,1.8,1.7c2.5,0.5,3.5,2.2,3.9,4.3c0.4,2,0.6,4.1,0.3,6.1c-0.3,2.6-2.6,3.4-4.9,2
		c-0.7-0.4-1.4-0.7-2-1.2c-0.7-0.5-1.4-1.1-1.8-1.9c-0.8-1.4-1.6-2.9-2.2-4.5c-2.1-5.4-5.9-9.6-10-13.5c-5.4-5.2-11.3-9.8-17.4-14.1
		c-1-0.7-2-1.3-3.1-1.7c-2.1-0.6-3.3,0.4-3.1,2.5c0.7,5.9,1.3,11.8,2.2,17.7c0.3,2.4,0.3,4.7-0.8,6.9c-0.9,1.9-1.6,2.4-3.2,2.3
		c-1.6-0.1-2.8-1.1-3.1-2.9c-0.4-2.3-0.9-4.7-0.8-7c0.3-8-1-15.8-1.7-23.6c-0.2-2.4-0.4-4.9-0.2-7.3c0.4-4.4,0.4-8.7,0.1-13
		c-0.2-2.4-0.2-4.9-0.5-7.3c-0.2-1.4-0.7-2.7-1.3-4C68.2,11.8,68.3,11,69.8,10.1z"/>
	<path d="M56.2,75.6c-1.3,0.8-2.7,0.9-4-0.1c-0.5-0.4-1.1-0.6-1.7-0.9c-1-0.6-1.7-1.4-1.2-2.9c0-4.7,0-9.6,0-14.5
		c0-2-0.1-3.9-0.4-5.9c-0.2-1.4-0.6-2.8-1.2-4c-1.1-2.3-1.2-4.7-0.9-7.2c0.9-8.1,1.9-16.2,2.7-24.2c0.3-3.4,0.4-6.8,0.6-10.2
		c0.1-2.3,0.5-2.9,2.7-3.5c0.6-0.2,1.2-0.4,1.8-0.7c2.2-0.8,4.2,0,5.4,2.1c0.9,1.5,0.5,3.7-1.1,4.9c-1.1,0.8-1.6,1.8-1.8,3.2
		c-0.5,4.2-0.9,8.3-1.4,12.5c-0.1,0.9-0.2,1.9-0.4,2.8c-0.2,1.5,0,2.7,1.1,4c0.6,0.7,1.1,1.8,1.1,2.8c0.2,1.8,0.1,3.6,0,5.4
		c-0.1,2.7-0.4,5.3-0.6,8c0,0.6,0.1,1.3,0.3,1.9c0.4,1.3,0.2,2.4-0.1,3.7c-0.4,1.3-0.6,2.8-0.4,4.2c0.5,3.4,0.3,6.8,0.3,10.1
		c0,1.6,0.3,3.3,0.5,4.9C57.5,73.4,57.5,74.7,56.2,75.6z"/>
	<path d="M2.8,8.9c1.6-0.6,3.7,0.5,4.2,2.5c1.1,3.8,1.7,7.7,2,11.7C9.5,27,9.7,31,10.2,34.9c0.4,3.5,1.1,7,1.8,10.5
		c0.8,3.9,3,7.1,5.5,10.4c0.5-0.6,0.9-0.9,1.1-1.4c1.3-3.5,2.8-6.9,3.9-10.4c2-6.7,4.2-13.3,6.7-19.8c0.4-1.1,0.7-2.3,1.2-3.4
		c1.1-2.7,2.2-5.4,3.3-8.1c1-2.6,1.9-5.2,2.9-7.8c0.3-0.7,0.5-1.5,0.8-2.2c0.7-1.4,2.4-2.1,3.8-1.8c1.5,0.3,2.7,1.6,2.8,3.2
		c0.1,0.8,0,1.6-0.2,2.4c-0.6,3.4-1.7,6.6-3.4,9.5c-0.4,0.7-0.8,1.4-1.1,2.1c-1.4,3.5-2.8,6.9-4,10.4c-1.5,4.4-2.8,8.9-4.3,13.3
		c-1.5,4.4-3.3,8.7-4.9,13.1c-1.7,4.6-3.2,9.2-4.8,13.9c-0.9,2.6-2.4,3.4-4.9,2.4c-0.4-0.2-0.7-0.3-1.1-0.5c-2.5-0.9-3.7-2.5-3.3-5
		c0.6-3.5-0.3-6.6-1.8-9.6c-0.1-0.2-0.2-0.4-0.3-0.6c-3.7-5.6-4.6-12-5.1-18.5c-0.3-4.2-0.3-8.5-1.5-12.7c-0.2-0.5-0.1-1.1-0.1-1.6
		c0-3.2-0.6-6.3-2-9.2C0.3,11.5,1.1,9.6,2.8,8.9z"/>
	<path d="M233.9,32.4c3.5-0.9,5.2,0.4,5.1,4.4c0,0.1-0.1,0.6-0.2,1.2c-1.2,5.5-2.5,11-3.6,16.6c-1.7,8.6-3.2,17.3-4.8,26
		c-0.2,1-0.4,1.9-0.7,2.9c-0.7,2.3-2.9,3.4-5.3,2.8c-2.9-0.8-4-2.5-3.5-5.1c2.8-12.5,5.5-25.1,8.2-37.6c0.3-1.2,0.3-2.5,0.4-3.7
		c0.2-1.3,0.5-2.6,0.7-4C230.8,33.7,232.1,32.8,233.9,32.4z"/>
	<path d="M224,89.9c1.8,0,3.2,1.1,3.9,2.9c0.7,1.9,0.5,4-0.7,5.3c-1.1,1.3-3.1,1.8-5,1.3c-0.4-0.1-0.9-0.2-1.3-0.4
		c-3.3-0.9-4.1-4.2-1.8-6.7C220.4,90.9,222,90.1,224,89.9z"/>
</g>
</svg>
