<svg version="1.1" id="Layer_1" xmlns="http://www.w3.org/2000/svg" xmlns:xlink="http://www.w3.org/1999/xlink" x="0px" y="0px"
     width="303.532px" height="42.758px" viewBox="0 0 303.532 42.758" enable-background="new 0 0 303.532 42.758"
     xml:space="preserve">
<path fill-rule="evenodd" clip-rule="evenodd" d="M19.875,1.101c3.106,2.589,28.999,23.045,33.66,41.428
    c-15.846-26.805-45.571,3.106-53.08,0C-3.298,41.493,17.286-0.064,19.875,1.101z"/>
<g>
    <path d="M118.605,39.21H96.492v-7.225h5.24l-1.158-3.75H89.269l-1.159,3.75h4.301v7.225H74.875v-7.225h3.75l7.444-24.21h-2.261
        V0.662h21.178l9.762,31.324h3.858V39.21z M91.309,21.62h7.225L94.892,9.706L91.309,21.62z"/>
    <path d="M144.257,35.737c-1.216,2.04-4.633,3.971-8.88,3.971c-9.654,0-17.318-7.5-17.318-19.413C118.059,8.271,126.386,0,134.99,0
        c7.998,0,9.871,3.75,10.752,4.632l1.158-3.97h8.221v16.27h-9.872c-0.164-4.468-3.035-7.005-6.29-7.005
        c-4.463,0-7.552,4.854-7.552,10.368c0,5.625,2.754,10.148,7.552,10.148c3.144,0,4.47-1.269,5.298-2.703v-2.316h-3.365v-5.901
        h18.312v5.901h-2.209V39.21h-11.028L144.257,35.737z"/>
    <path d="M161.41,0.662h18.306v7.28h-3.418v23.934h3.418v7.335H161.41v-7.335h3.472V7.942h-3.472V0.662z"/>
    <path d="M208.123,35.737c-1.216,2.04-4.633,3.971-8.879,3.971c-9.655,0-17.319-7.5-17.319-19.413
        C181.925,8.271,190.252,0,198.856,0c7.999,0,9.871,3.75,10.753,4.632l1.157-3.97h8.222v16.27h-9.873
        c-0.164-4.468-3.035-7.005-6.29-7.005c-4.463,0-7.552,4.854-7.552,10.368c0,5.625,2.754,10.148,7.552,10.148
        c3.143,0,4.47-1.269,5.298-2.703v-2.316h-3.365v-5.901h18.312v5.901h-2.209V39.21h-11.027L208.123,35.737z"/>
    <path d="M225.277,0.662h33.252V12.85h-9.543V7.942h-8.821v7.611h10.478v7.334h-10.478v8.988h8.821v-5.128h9.543V39.21h-33.252
        v-7.335h3.471V7.942h-3.471V0.662z"/>
    <path d="M303.532,7.776h-3.642V39.21h-11.856L273.975,18.2v13.897h4.246v7.113h-16.932v-7.113h3.254V7.776h-3.2V0.662h15.833
        l13.565,20.239l-0.06-13.125h-3.746V0.662h16.597V7.776z"/>
</g>
</svg>
