<?xml version="1.0" encoding="UTF-8" standalone="no"?>
<svg width="223px" height="29px" viewBox="0 0 223 29" version="1.1" xmlns="http://www.w3.org/2000/svg" xmlns:xlink="http://www.w3.org/1999/xlink" xmlns:sketch="http://www.bohemiancoding.com/sketch/ns">
    <g id="Visuals" stroke="none" stroke-width="1" fill="none" fill-rule="evenodd" sketch:type="MSPage">
        <g id="Suisse-Mania-Text" sketch:type="MSArtboardGroup" fill="#ffffff">
            <g id="Imported-Layers" sketch:type="MSLayerGroup">
                <path d="M138.022004,7.84023036 C136.470095,13.7519709 135.306549,19.7461613 134.413469,25.990784 C132.640409,25.990784 130.891237,26.0154419 129.145146,25.9607321 C128.925537,25.9537971 128.581096,25.5584995 128.528698,25.2965089 C127.997782,22.6450101 127.58322,19.9688533 127.003759,17.3281424 C126.313336,14.1804025 125.49346,11.0604029 124.72367,7.92961538 C124.715194,7.89339904 124.626579,7.87721726 124.606545,7.86719998 C123.944633,14.3437614 125.000301,20.7694657 125.323937,27.2860963 L118.522969,27.2860963 L118.522969,1.32128815 C121.35555,1.30356525 124.079481,1.20801574 126.796478,1.30356525 C128.088708,1.34902832 128.597278,2.42781309 128.841546,3.59598287 C129.401743,6.27368077 129.965023,8.95137866 130.549108,11.6244532 C130.745601,12.5221562 130.99218,13.4106125 131.249547,14.2929044 C131.338932,14.600358 131.52849,14.8793009 131.672585,15.1705728 C131.757347,15.1713434 131.842879,15.1721139 131.927641,15.1728845 C132.196566,14.1611385 132.522513,13.1609509 132.722859,12.1361054 C133.377065,8.78801983 134.006613,5.4353109 134.592239,2.07489636 C134.698576,1.46769465 134.865017,1.25733162 135.503042,1.26503723 C138.419613,1.29971245 141.337726,1.28044844 144.213458,1.28044844 C144.537093,10.1603882 144.852253,18.787584 145.171265,27.5164939 L138.315588,27.5164939 L138.315588,7.87798782 C138.217726,7.86565886 138.119865,7.85255933 138.022004,7.84023036 Z M175.961323,27.021794 L169.569523,27.021794 C169.389212,18.4231089 169.210442,9.92228495 169.027819,1.2342148 L178.505714,1.2342148 C180.331172,7.93809155 182.199781,14.8007038 184.069161,21.663316 C184.216338,21.6355758 184.363515,21.6086062 184.510692,21.5816366 C183.731655,14.8900888 182.952619,8.19854101 182.167418,1.45613624 C183.886538,1.45613624 185.698897,1.43687223 187.508943,1.48464698 C187.693107,1.4900409 188.009037,1.88610902 188.024448,2.11727719 C188.297227,6.13575043 188.529936,10.1565354 188.776515,14.1765497 C189.005372,17.9230151 189.243475,21.6679393 189.468479,25.4144047 C189.498531,25.9021695 189.473102,26.3930166 189.473102,26.9693959 C186.799257,27.4486846 184.1231,27.7676966 181.448485,27.0441403 C179.970549,26.6434488 179.18766,25.5230537 178.837825,24.0782527 C177.52402,18.6481126 176.213296,13.2164313 174.897179,7.78629112 C174.879456,7.71308787 174.8024,7.65375471 174.599742,7.38174683 C174.482617,14.1226105 175.587601,20.5529382 175.961323,27.021794 Z M31.0242783,1.34902832 L39.0989823,1.34902832 C39.0989823,2.5233626 39.1136229,3.73699545 39.0959,4.94985775 C39.0604542,7.27386836 38.9949566,9.5971084 38.9633636,11.921119 C38.9286884,14.5525833 38.9232945,17.1855886 38.8940132,19.8178235 C38.8801431,21.0368503 38.8462384,22.255877 38.8115632,23.4749038 C38.7429833,25.9067929 37.3035762,27.2961136 35.1729763,28.0504923 C32.7626629,28.9027323 30.2344537,29.0730262 27.710868,28.8811566 C26.3215473,28.7755898 24.9145037,28.4927941 23.588369,28.0643624 C21.5918467,27.4209444 20.5323259,25.8967756 20.5292437,23.8093271 C20.5246203,21.1031185 20.6417455,18.3961393 20.7457712,15.6907012 C20.9052772,11.5088691 21.0971468,7.32780759 21.2766874,3.14597552 C21.3252327,2.00169311 21.3814836,1.9647062 22.518831,2.02403936 C24.6340197,2.13422952 26.7507495,2.22900847 28.996163,2.33611638 C28.9167952,3.22919605 28.8397392,4.16311544 28.7518953,5.0954937 C28.6447873,6.2282177 28.4729523,7.3570889 28.4274893,8.49212458 C28.2803122,12.1854213 28.1762865,15.8810296 28.061473,19.5750969 C28.0429796,20.181528 28.0591613,20.7879592 28.0499146,21.3943903 C28.0329623,22.5240321 28.6039476,23.2475885 29.5239969,23.2522118 C30.6305219,23.2583763 31.4041647,22.5471489 31.4180347,21.4306067 C31.45271,18.6018789 31.5212899,15.7708395 31.4557922,12.9436528 C31.3748834,9.40677995 31.1729965,5.87221873 31.0258194,2.33688694 C31.0150316,2.06179683 31.0242783,1.78593615 31.0242783,1.34902832 Z M8.49771133,19.9619183 C8.41834359,21.1508932 8.33358193,22.2450892 8.27424877,23.3408263 C8.23186794,24.1260275 8.62485382,24.5482947 9.41082558,24.6076278 C10.1929445,24.666961 10.9473233,24.4627624 11.0313144,23.623622 C11.1438162,22.5086209 11.1260933,21.3481567 10.924977,20.2508785 C10.8463799,19.8232174 10.1736805,19.3593399 9.67512784,19.1797993 C7.97604184,18.5664331 6.22455772,18.0994735 4.51314275,17.5184708 C3.8812831,17.304255 3.27099915,16.9813901 2.70848995,16.6176855 C1.43090057,15.7924152 0.621811997,14.682808 0.574037244,13.0715659 C0.495440068,10.476318 0.631058724,7.90418688 1.28911743,5.38676558 C1.89786026,3.05504937 3.60079907,1.8845679 5.83773633,1.47385913 C8.9122729,0.909808814 12.0237964,0.822735472 15.1206792,1.27274283 C17.5556505,1.62720068 18.433319,2.73834899 18.4857171,5.19566657 C18.5296391,7.24612818 18.6020718,9.29581923 18.6598638,11.3455103 C18.66834,11.6452583 18.6606344,11.9450064 18.6606344,12.2046853 L10.9935569,12.2046853 C10.9935569,10.5911315 10.9604228,9.0091707 11.0097387,7.43106271 C11.0290027,6.79149746 10.8016874,6.40929943 10.2206847,6.27676301 C9.62195917,6.13960323 9.03633315,6.29987983 8.88992665,6.94946237 C8.6233127,8.13689617 8.44377209,9.34590566 8.27656045,10.5518329 C8.21029225,11.0349744 8.28811886,11.5366093 8.27270765,12.0282269 C8.23495018,13.2672883 8.59249028,13.7897283 9.77915352,14.2096838 C11.6593212,14.8746776 13.5626058,15.4818793 15.4088689,16.2308641 C17.625001,17.1301083 18.0842551,19.1666998 18.2268088,21.2318021 C18.3277522,22.6920143 18.2892242,24.2038541 18.0172163,25.6363261 C17.7498318,27.0425991 16.5099999,27.7507443 15.2354927,28.2084572 C12.9053176,29.0475977 10.4664935,29.1200304 8.04616285,28.8811566 C6.32318947,28.7100922 4.58172264,28.3957035 2.93580531,27.8709517 C1.45864075,27.4009098 0.634140966,26.2073115 0.711197021,24.5498358 C0.773612425,23.1982726 0.814452134,21.8443977 0.913083883,20.4951462 C0.926953973,20.3071294 1.2174553,19.9865762 1.38312582,19.9842645 C3.77571631,19.9511304 6.16907736,19.9619183 8.49771133,19.9619183 Z M60.0643936,19.8147412 C60.0643936,20.6870158 60.0212422,21.7234197 60.0751814,22.7552003 C60.1429908,24.0397247 60.5945392,24.4666152 61.6740946,24.4111349 C62.755191,24.354884 63.1666703,23.8748247 63.188246,22.6442396 C63.2452675,19.3431582 63.0765147,19.201375 59.8979525,18.2736201 C58.1110226,17.7519507 56.3564562,17.0792513 54.6527469,16.3256431 C53.4637719,15.7993502 52.7887609,14.7105482 52.6223198,13.4183181 C52.2878966,10.8184469 52.2917494,8.22242839 52.8188128,5.6325744 C53.3666813,2.93946529 55.1004425,1.60177218 57.6949199,1.19645734 C60.5644874,0.747220539 63.4494661,0.631636457 66.3267391,1.05313308 C68.8680478,1.42531382 69.8913522,2.65898125 69.9206335,5.24035908 C69.9452914,7.47344354 69.9252569,9.706528 69.9252569,11.9519414 L62.7004812,11.9519414 C62.7004812,10.4370194 62.7151219,8.97141324 62.6950873,7.50657764 C62.68507,6.76067503 62.5571569,6.0640883 61.5777745,6.01708411 C60.7363224,5.97701496 60.4157692,6.3122088 60.2562632,7.39946973 C60.0697875,8.66858294 59.7669572,9.93076112 59.7068535,11.2052683 C59.6197801,13.066172 60.1383674,13.6340751 61.9399379,14.1611385 C63.1782287,14.523302 64.3980261,14.9447986 65.6355463,15.306962 C68.5736937,16.1669076 69.9707199,18.1834646 70.0030835,21.1747806 C70.0192653,22.6172699 69.9614732,24.0659238 69.8327896,25.5022486 C69.7002532,26.9824954 68.5351656,27.5858443 67.3269267,28.0104232 C65.2672184,28.7339795 63.1088783,28.8210529 60.9597849,28.6846637 C59.3431489,28.5829497 57.70879,28.415738 56.1360759,28.0474101 C53.8305588,27.5072472 52.8157305,26.0647578 52.8272889,23.7384355 C52.8326829,22.6611919 52.8696698,21.5839482 52.8688992,20.5067046 C52.8688992,20.0158575 53.0176174,19.7962478 53.5631743,19.8031828 C55.7608129,19.8301524 57.9592222,19.8147412 60.0643936,19.8147412 Z M72.9797589,19.6313478 L80.1952878,19.6313478 C80.1952878,20.613042 80.1351841,21.7110907 80.210699,22.7991222 C80.3062485,24.1730317 81.1831464,24.7062596 82.42529,24.1506854 C82.7512371,24.0042789 83.0733315,23.5719944 83.1542403,23.2159955 C83.2860062,22.6319106 83.2490193,22.0023626 83.2305258,21.3928492 C83.1719632,19.4687595 82.7358259,18.9601896 80.8833984,18.4539313 C79.402381,18.049387 77.9229048,17.6332843 76.4650042,17.1570779 C73.8165876,16.292509 72.3871978,14.4770683 72.4619422,11.64757 C72.516652,9.56859766 72.5806085,7.48037858 72.8271879,5.41835856 C73.0991958,3.13904047 74.5779014,1.77052494 76.7624406,1.31204142 C80.0380935,0.623160291 83.3553566,0.482918272 86.6649142,1.09474334 C88.4880604,1.4314783 89.5221527,2.49408129 89.6693297,4.3395738 C89.8665932,6.81769651 89.9012684,9.3081482 90.0083764,11.8525391 L82.6472115,11.8525391 C82.6472115,10.3445521 82.6541465,8.84735299 82.6433587,7.34938329 C82.6379647,6.64277927 82.4098788,6.04482429 81.6108075,5.94233973 C81.0683329,5.87221873 80.5928971,5.99782009 80.3586467,6.61812133 C79.6982763,8.36960545 79.4231862,10.164241 79.6551249,12.029768 C79.7768734,13.0137739 80.4095037,13.5385256 81.2864016,13.8282564 C82.8614273,14.3499258 84.4626521,14.8022449 86.0137905,15.3863298 C88.9750547,16.5005603 90.3104361,18.7413504 90.0569217,21.9522762 C89.9991296,22.6873909 90.0445927,23.4302113 90.0006708,24.1676377 C89.8681343,26.4014928 89.0921799,27.5064766 86.929987,28.0011765 C83.44243,28.7987066 79.9248211,28.7478496 76.4326407,27.9233498 C74.2696772,27.4132388 73.1084425,26.0200653 72.9928584,23.8185738 C72.9227374,22.4824218 72.9797589,21.1385642 72.9797589,19.6313478 Z M147.706409,26.8052665 C148.18878,23.4271291 148.641099,20.2023332 149.111141,16.9806195 C149.565001,13.8768017 150.048913,10.7783777 150.496609,7.67455984 C150.743188,5.96699767 150.411076,5.69421924 148.162581,5.73814119 C148.031585,4.38657799 147.90059,3.02576807 147.751101,1.48464698 C152.716594,1.27736619 157.618129,1.07316765 162.64989,0.862804621 C164.188699,9.5054117 165.71595,18.0840622 167.257071,26.7436217 C164.886056,26.8684525 162.532764,26.9925127 160.132468,27.1181141 C159.943681,25.4151753 159.728694,23.7723402 159.595388,22.1241112 C159.547613,21.5307796 159.301804,21.2818885 158.763182,21.2988408 C157.937141,21.3250399 157.090295,21.2865119 156.293536,21.4637408 C155.133071,21.721108 154.777072,22.7436419 154.60832,23.7615523 C154.44419,24.756346 154.427238,25.7757976 154.344017,26.8052665 L147.706409,26.8052665 Z M155.107643,14.7328944 C154.972024,17.0368705 155.643953,17.5184708 157.658969,17.3319952 C158.592118,17.2456924 158.996662,16.6955121 158.902654,15.764675 C158.7601,14.3607137 158.65068,12.9505879 158.440317,11.5566439 C158.183721,9.85986955 157.85315,8.17311251 157.511792,6.49020828 C157.462476,6.24979339 157.171975,6.05792382 156.993205,5.84447855 C156.840634,6.04174205 156.634894,6.21742985 156.544738,6.44012185 C155.47443,9.10086741 155.271002,11.914184 155.107643,14.7328944 Z M202.819211,5.51853143 C202.65277,4.12304629 202.490952,2.76454805 202.312952,1.27120171 C207.270739,1.06700317 212.146076,0.866657423 217.062252,0.664 C218.853035,9.29119586 220.619159,17.800496 222.419959,26.4754666 C220.090555,26.5949035 217.778873,26.7135698 215.428664,26.8337772 C215.172837,25.0907693 214.897747,23.4594926 214.710501,21.8181986 C214.63961,21.2032913 214.369913,21.021439 213.823586,21.046097 C213.208679,21.0730666 212.593771,21.0900189 211.979635,21.1108241 C210.647335,21.1578283 209.709563,22.5086209 209.688758,23.5812412 C209.670265,24.5344246 209.684905,25.487608 209.684905,26.5155357 L203.056543,26.5155357 C203.264595,24.545983 203.451841,22.6319106 203.67068,20.7209204 C204.187726,16.2023534 204.733283,11.686098 205.238,7.16598988 C205.394424,5.76125801 204.983715,5.48385621 202.819211,5.51853143 Z M211.968847,17.1763419 C213.45834,17.1771125 213.938399,16.6577547 213.778123,15.1659495 C213.670244,14.1595974 213.565448,13.148622 213.376661,12.1553694 C212.997545,10.1665526 212.572966,8.18544148 212.133747,6.20818312 C212.084431,5.98626169 211.819358,5.812115 211.654458,5.61562206 C211.49187,5.77435754 211.255308,5.90227059 211.178252,6.09491072 C209.988506,9.06850387 209.947666,12.2046853 209.976177,15.3331611 C209.987735,16.6993649 210.610348,17.1763419 211.968847,17.1763419 Z M106.214035,17.6063147 C104.159721,17.7265222 102.139311,17.8444179 99.9524602,17.972331 C99.905456,19.1289423 99.8060537,20.1799869 99.835335,21.2279493 C99.8661574,22.331392 100.26839,22.7351657 101.391867,22.7151311 C103.204996,22.6827676 105.015814,22.5432961 106.827401,22.4477466 C106.978431,22.440041 107.128691,22.4269415 107.431521,22.4045952 L107.431521,27.6682943 C103.907747,27.9842241 100.292277,28.6183955 96.6467555,27.8478349 C94.140122,27.3176893 92.5789663,25.3720239 92.5342738,22.6496335 C92.4664645,18.5086411 92.370915,14.3645665 92.4641528,10.2258858 C92.5281093,7.41411038 92.8948962,4.60926999 93.1399344,1.62334788 L107.05857,1.62334788 L107.05857,6.60425124 C105.676954,6.60425124 104.212119,6.60271012 102.748054,6.6050218 C102.378185,6.60579236 102.008316,6.60656292 101.639217,6.62890918 C99.9748065,6.72831149 99.3953449,7.25845715 99.2859253,8.92363848 C99.218116,9.96543634 99.2558735,11.0149398 99.2728258,12.0598199 C99.2874664,12.9883454 99.9285728,13.371314 100.716086,13.4452878 C102.367397,13.5993999 104.026414,13.6726031 105.683119,13.7766288 C105.830296,13.7858755 105.979014,13.7781699 106.214035,13.7781699 L106.214035,17.6063147 Z M49.65335,1.92694873 C49.5100258,10.5834259 49.3682426,19.1196956 49.2241478,27.8093069 L41.2449934,27.8093069 C41.6002218,19.2799722 41.9616147,10.6111661 42.3237781,1.92694873 L49.65335,1.92694873 Z M191.709269,1.38447411 L198.554929,1.38447411 C199.085074,9.9369256 199.608285,18.3868925 200.141513,26.9925127 L192.830434,26.9925127 C192.460565,18.5410046 192.085302,9.98315923 191.709269,1.38447411 Z" id="Fill-1" sketch:type="MSShapeGroup"></path>
            </g>
        </g>
    </g>
</svg>
