<svg xmlns="http://www.w3.org/2000/svg" xmlns:xlink="http://www.w3.org/1999/xlink" preserveAspectRatio="xMidYMid" width="23" height="15" viewBox="0 0 23 15">
  <defs>
    <style>

      .cls-2 {
        fill: #ffffff;
      }
    </style>
  </defs>
  <path d="M22.500,0.814 C22.500,0.814 14.824,6.674 14.824,6.674 C14.824,6.674 18.809,11.185 18.809,11.185 C18.809,11.185 18.691,11.302 18.691,11.302 C18.691,11.302 14.063,7.201 14.063,7.201 C14.063,7.201 11.250,9.369 11.250,9.369 C11.250,9.369 8.437,7.201 8.437,7.201 C8.437,7.201 3.809,11.302 3.809,11.302 C3.809,11.302 3.691,11.185 3.691,11.185 C3.691,11.185 7.676,6.674 7.676,6.674 C7.676,6.674 0.000,0.814 0.000,0.814 C0.000,0.814 0.000,14.994 0.000,14.994 C0.000,14.994 22.500,14.994 22.500,14.994 C22.500,14.994 22.500,0.814 22.500,0.814 ZM0.469,-0.006 C0.469,-0.006 11.250,8.197 11.250,8.197 C11.250,8.197 22.031,-0.006 22.031,-0.006 C22.031,-0.006 0.469,-0.006 0.469,-0.006 Z" id="path-1" class="cls-2" fill-rule="evenodd"/>
</svg>
