<svg xmlns="http://www.w3.org/2000/svg" xmlns:xlink="http://www.w3.org/1999/xlink" preserveAspectRatio="xMidYMid" width="21" height="21" viewBox="0 0 21 21">
  <defs>
    <style>

      .cls-2 {
        fill: #ffffff;
      }
    </style>
  </defs>
  <path d="M17.311,13.295 C16.314,12.709 15.465,12.416 14.762,12.416 C14.371,12.416 14.038,12.514 13.766,12.709 C12.828,13.295 12.261,13.588 12.066,13.588 C11.949,13.588 11.715,13.432 11.363,13.119 C11.363,13.119 11.305,13.060 11.305,13.060 C10.953,12.748 10.386,12.202 9.605,11.420 C9.605,11.420 9.488,11.302 9.488,11.302 C9.449,11.264 9.410,11.225 9.371,11.185 C9.332,11.147 9.292,11.127 9.254,11.127 C9.175,11.049 8.668,10.482 7.730,9.427 C7.730,9.427 7.672,9.369 7.672,9.369 C7.164,8.783 6.910,8.431 6.910,8.314 C6.910,8.041 7.145,7.592 7.613,6.967 C8.238,6.108 8.258,5.072 7.672,3.861 C7.320,3.197 6.695,2.279 5.797,1.107 C5.797,1.107 5.738,1.049 5.738,1.049 C5.152,0.345 4.488,-0.006 3.746,-0.006 C3.199,-0.006 2.574,0.228 1.871,0.697 C1.871,0.697 1.812,0.756 1.812,0.756 C0.953,1.303 0.406,1.948 0.172,2.689 C-0.297,4.095 0.055,5.893 1.227,8.080 C2.554,10.424 4.098,12.514 5.855,14.349 C7.222,15.756 8.746,17.065 10.426,18.275 C12.535,19.838 14.352,20.619 15.875,20.619 C16.422,20.619 16.842,20.600 17.135,20.560 C17.428,20.522 17.799,20.365 18.248,20.092 C18.697,19.819 19.156,19.409 19.625,18.861 C20.797,17.455 20.797,16.166 19.625,14.994 C19.078,14.447 18.307,13.881 17.311,13.295 Z" id="path-1" class="cls-2" fill-rule="evenodd"/>
</svg>
