<?xml version="1.0" encoding="utf-8"?>
<!-- Generator: Adobe Illustrator 17.1.0, SVG Export Plug-In . SVG Version: 6.00 Build 0)  -->
<!DOCTYPE svg PUBLIC "-//W3C//DTD SVG 1.1//EN" "http://www.w3.org/Graphics/SVG/1.1/DTD/svg11.dtd">
<svg version="1.1" id="Layer_1" xmlns="http://www.w3.org/2000/svg" xmlns:xlink="http://www.w3.org/1999/xlink" x="0px" y="0px"
	 viewBox="0 0 200 100" enable-background="new 0 0 200 100" xml:space="preserve">
<g>
	<path fill="#00ccff" d="M179.9,67.9c-1.1,1.1-2,1.9-2.8,2.7c-4,4.3-8.5,8.2-13.3,11.8c-4.2,3.2-8.9,5.1-14.3,5.5c-5.6,0.4-10-2.3-11.3-6.9
		c-0.6-2.2-0.4-4.4,0.4-6.5c0.6-1.4,1.2-2.8,2-4.2c0.7-1.3,1.1-2.6,0.9-4.1c-0.3-2.3,0-2.6,2.6-2.7c1.3-0.1,1.9-0.8,2.6-1.5
		c2.2-2.5,4.7-4.7,7.7-6.3c2.5-1.4,5.1-1.7,8-0.7c3.7,1.3,4.9,5.8,3.3,8.4c-3.2,5.1-7.6,8.3-14,8.9c-1.5,0.2-3.1-0.2-4.6-0.4
		c-1.9-0.3-2.4-0.2-2.9,1.5c-0.6,1.8-1.2,3.7-1.3,5.5c-0.1,2.9,1.8,4.6,4.9,5c3.2,0.4,6.2-0.2,9-1.5c5.3-2.5,9.6-6.1,13.8-9.8
		c2.9-2.5,5.6-5.3,8.5-7.9c3.1-2.7,5.2-5.9,6.8-9.4c2.1-4.7,5.1-9,8.2-13.2c0.4-0.6,0.9-1.1,1.6-1.4c1-0.6,2.1-0.3,2.9,0.5
		c0.8,0.7,0.9,1.6,0.3,2.5c-1.8,2.8-3.4,5.7-5.4,8.4c-3.7,4.8-5.8,10.2-7.6,15.7c-0.9,2.8-1.7,5.6-2.4,8.4
		c-1.4,5.4-1.1,10.9,0.5,16.2c0.4,1.2,0.9,2.5,1.2,3.7c0.2,0.6,0.3,1.4,0,2c-0.4,0.7-1.1,1.6-1.8,1.6c-0.6,0.1-1.6-0.7-2-1.3
		c-0.7-1-1-2.2-1.5-3.4c-2.9-7.5-2.7-15-0.4-22.6C180.4,69.8,180.4,69.9,179.9,67.9z M148.4,67.4c0.7,0.2,1.5,0.3,2.3,0.5
		c3.9,0.7,10.4-4.1,11.6-6.6c0.7-1.4,0.1-2.8-1.6-3.2c-1-0.2-2.2-0.2-3.1,0.2c-4.2,1.8-6.9,4.9-9.3,8.4
		C148.3,66.8,148.3,66.9,148.4,67.4z"/>
	<path fill="#00ccff" d="M2.6,85.6c0.2,0.1,0.3,0.2,0.4,0.2c1.8,2.9,2.8,3.4,6.4,2.4c3.1-0.8,6.3-1.8,9.2-3c11.1-4.6,21.3-10.7,31.2-17.3
		c5.5-3.6,10-8,13.9-13.1c5.2-6.7,8.1-14.2,9.5-22.2c0.8-4.7,1.1-9.4-0.2-14c-2.1-7.4-7.3-12-15.2-14C51.6,3,45.3,3,39.2,4.5
		c-6.8,1.7-12.8,5-17.7,9.8c-2.3,2.2-4.3,4.6-5.2,7.6c-0.1,0.4-0.4,0.8-0.7,1.2c-0.4,0.6-0.8,1.4-1.9,1.1c-1.1-0.3-1.7-1-1.6-2
		c0.1-1.1,0.4-2.3,0.9-3.3c1.8-3.5,4.6-6.5,7.7-9.1c7.9-6.5,17.1-10,27.8-9.9c4.3,0,8.5,0.4,12.5,1.9c6,2.2,11.1,5.7,14,11.2
		c2.5,4.7,3.3,9.8,2.9,15.1c-0.5,6.5-2,12.8-4.7,18.8c-3.6,7.9-9.1,14.5-16,20.2c-6.7,5.5-14.5,9.7-22,14
		c-6.5,3.7-13.4,6.7-20.5,9.3c-2.8,1-5.7,1.8-8.8,1.7c-1.9-0.1-3.5-0.5-4.8-1.9C-0.7,88.5,0,86.4,2.6,85.6z"/>
	<path fill="#00ccff" d="M90.1,62.2c0.4,0.7,0.7,1.3,1.1,2c1.5-1.5,1.8-3.4,2.6-5c0.6-1.4,1.1-2.8,1.8-4.2c0.3-0.7,0.8-1.4,1.9-1.1
		c1,0.3,1.8,1,1.6,2c-0.2,1.1-0.5,2.2-0.9,3.3c-1.6,4.1-3.3,8.1-5,12.1c-0.7,1.8-1.4,3.7-2,5.6c-0.6,1.9-0.8,3.9,0.2,5.8
		c0.5,0.9,0.3,1.8-0.7,2.4c-0.9,0.5-2.1,0.3-2.8-0.6c-1.4-1.7-1.8-3.8-1.4-5.8c0.4-2,1.1-4,1.7-5.9c0.6-1.9,1.3-3.8,2.1-6
		c-1.4,0.2-1.9,1-2.3,1.6c-3.3,4.8-7.4,8.9-12.1,12.4c-1.6,1.2-3.6,2.1-5.6,2.6c-4.4,1-8-2.2-7.3-6.4c0.5-2.9,2-5.4,3.6-7.9
		c4.6-7,10.2-13.1,17.7-17.7c3.7-2.2,7.7-3.4,12-3.6c1.7-0.1,3.5,0.4,5.2,0.9c0.6,0.2,1.3,1.2,1.2,1.7c-0.1,0.5-1.1,0.9-1.8,1.2
		c-0.5,0.2-1.1,0.1-1.7,0.1c-5.6-0.6-10.4,1.2-14.7,4.2c-6.8,4.8-12.1,10.8-15.8,18c-0.5,1-0.9,2-1.1,3c-0.3,1.7,0.8,2.8,2.6,2.2
		c1.6-0.6,3.2-1.5,4.6-2.5c4-3.1,7.7-6.6,11-10.3c0.9-1,1.8-2,2.8-2.9C89.1,62.8,89.5,62.6,90.1,62.2z"/>
	<path fill="#00ccff" d="M10.6,79.6c4.1-5.5,5.9-11.9,8.7-18c4.6-9.8,8.4-19.9,11.8-30.2c2.2-6.7,3.6-13.5,3.7-20.6c0-0.3,0-0.6,0-0.9
		c0.1-1,0.5-1.8,1.6-2c1-0.2,2.4,0.7,2.6,1.7c0.2,0.7,0.1,1.5,0.1,2.3c-0.3,8.1-2.6,15.9-5.2,23.6C30.1,46.9,25.4,58,20.5,69.1
		c-1.2,2.7-2.2,5.4-3.4,8.1c-0.5,1-1,2.1-1.8,3C13.8,81.8,12.2,81.6,10.6,79.6z"/>
	<path fill="#00ccff" d="M119.2,56.2c-0.7,0.2-1.2,0.2-1.5,0.4c-7,3.7-12.9,8.3-15.9,15.5c-0.6,1.5-0.8,3.1-1.2,4.6c-0.4,1.8-1.1,2.6-2.3,2.5
		c-1.3-0.1-2.1-1.2-2-2.9c0.2-2.9,1.2-5.6,2.6-8.2c2.6-5,7-8.6,11.6-11.9c1.7-1.3,3.6-2.3,5.6-3.2c1.3-0.6,2.8-0.9,4.2-0.9
		c2.6,0,4,1.6,4,4c0.1,2.9-0.9,5.7-2,8.4c-2.2,5.5-4.6,10.9-8,15.9c-0.8,1.1-1.8,2.2-2.8,3.1c-0.7,0.7-1.7,1-2.6,0.3
		c-0.9-0.7-0.9-1.6-0.4-2.5c1-1.6,2.1-3.1,2.9-4.7c2.3-4.5,4.6-9.1,6.7-13.7c0.7-1.5,0.9-3.2,1.3-4.8
		C119.5,57.5,119.3,57,119.2,56.2z"/>
	<path fill="#00ccff" d="M122.3,79.8c0.6-1.4,0.9-2.7,1.6-3.8c2.7-4.4,5.6-8.8,8.4-13.1c0.9-1.4,2.1-1.6,3.3-0.9c1.1,0.7,1.5,2,0.8,3.2
		c-0.1,0.1-0.2,0.3-0.3,0.4c-2.9,4.6-5.7,9.2-8.6,13.8c-0.4,0.6-0.8,1.2-1.3,1.7c-0.6,0.7-1.5,1.1-2.4,0.6
		C123.2,81.2,122.8,80.4,122.3,79.8z"/>
	<path fill="#00ccff" d="M145.4,47.1c0,1.1-1,2.1-2.1,2.1c-1.2,0-2.3-1-2.3-2.2c0-1,1.1-2,2.2-2C144.3,45,145.4,46,145.4,47.1z"/>
</g>
</svg>
