<?xml version="1.0" encoding="utf-8"?>
<!-- Generator: Adobe Illustrator 17.1.0, SVG Export Plug-In . SVG Version: 6.00 Build 0)  -->
<!DOCTYPE svg PUBLIC "-//W3C//DTD SVG 1.1//EN" "http://www.w3.org/Graphics/SVG/1.1/DTD/svg11.dtd">
<svg version="1.1" id="Layer_1" xmlns="http://www.w3.org/2000/svg" xmlns:xlink="http://www.w3.org/1999/xlink" x="0px" y="0px"
	 viewBox="0 0 280 200" enable-background="new 0 0 280 200" xml:space="preserve">
<g fill="#ff3366">
	<path d="M279.3,55.3c0.1,0.9-0.4,1.8-1.4,2.1c-1,0.3-2.1,0.5-3.2,0.9c-2.3,0.8-4.6,1.6-6.9,2.5c-0.4,0.2-0.8,0.6-1.2,1
		c0.8,0.6,1.5,1.1,2.2,1.6c1.8,1.3,1.6,3.4,0.2,4.7c-0.9,0.8-1.9,1.6-3,2.2c-2.4,1.3-4.9,2.4-7.3,3.7c-1.9,1-3.7,2.2-5.6,3.2
		c-0.9,0.5-1.8,0.8-2.8,1c-1.4,0.3-2-0.4-1.4-1.8c0.1-0.3,0.3-0.6,0.5-0.8c2.9-2.3,5.9-4.6,9.2-6.4c1.9-1,3.8-1.9,5.3-3.4
		c-0.9-1.4-1.7-2.8-2.6-4.4c0.1,0-0.1-0.1-0.2-0.1c-3.7,0.2-7.2,0.8-10.8,2c-2.9,1-5.7,2.2-8.6,3.4c-2.3,1-4.7,1.9-7,2.8
		c-0.6,0.2-1.2,0.4-1.8,0.4c-1.7,0.2-2.6-0.5-3-2.1c0-0.1-0.1-0.3-0.1-0.5c-0.3-1.4-0.5-1.5-1.8-1c-1.9,0.7-3.8,1.5-5.7,2.1
		c-0.8,0.3-1.7,0.5-2.6,0.6c-2.1,0.3-3.4-0.5-4-2.6c-0.1-0.4-0.2-0.9-0.4-1.5c-0.7,0.2-1.4,0.3-2,0.5c-2.2,0.8-4.4,1.7-6.6,2.4
		c-1,0.3-2.1,0.6-3.2,0.7c-1.6,0.2-2.5-0.2-3.1-1.5c-0.6-1.3-0.8-2.7,0.2-3.9c0.8-0.9,1.7-1.7,2.6-2.5c0.2-0.2,0.5-0.2,0.5-0.5
		c-2,0.5-3.8,1.2-5.5,2.2c-4.1,2.4-8.3,4.6-12.4,7c-2.6,1.5-3.8,0-4.1-2.2c-0.1-0.9,0.2-1.6,0.9-2.2c3.8-3.5,7.7-7,11.5-10.5
		c0.5-0.4,0.9-0.9,1.3-1.3c1-1.1,2-1.3,2.8-0.5c1.3,1.2,1.5,2.6,0.3,3.6c-1,0.9-2.1,1.7-3.1,2.6c-0.3,0.3-0.6,0.5-1,0.9
		c0.8,0.3,1.2-0.1,1.7-0.3c4.5-2.5,9.2-4.7,14-6.6c1-0.4,1.8-0.5,2.6,0.3c0.8,0.8,1.7,1.7,1,3c-0.4,0.7-0.7,1.5-1.2,2.1
		c-1.2,1.3-2.6,2.4-3.9,3.6c-0.4,0.4-0.8,0.9-1.3,1.4c0.7,0.6,1.4,0.2,1.9,0.1c2.7-0.9,5.5-1.7,8.2-2.7c3.9-1.5,7.7-3.1,11.5-4.6
		c2.7-1.1,5.4-2.3,8-3.5c1-0.4,1.8-0.2,2.6,0.5c0.7,0.6,1.1,1.3,0.9,2.3c-0.1,0.9-0.7,1.2-1.4,1.4c-4.6,1.5-9,3.6-13.4,5.7
		c-0.3,0.2-0.6,0.3-1,0.5c-0.1,0.1-0.2,0.2-0.5,0.5c0.5-0.1,0.9-0.1,1.2-0.2c5.2-1.5,10.1-3.8,15-5.9c0.7-0.3,1.2-0.8,1.8-1.2
		c0.7-0.5,1.5-0.7,2.4-0.4c1,0.4,1.7,1.1,1.8,2.2c0.1,0.9-0.4,1.7-1.2,2.2c-1.6,1-3.2,2-4.8,3c-0.4,0.2-0.8,0.5-1.1,1
		c1.3-0.3,2.7-0.7,4-1c2.8-0.8,5.7-1.5,8.5-2.4c1.8-0.5,3.5-1.1,5.2-1.7c4.3-1.4,8.6-2.8,12.8-4.2c1.8-0.6,3.6-1.2,5.4-1.8
		C277.1,52.5,279,53.6,279.3,55.3z"/>
	<path d="M104.6,24.5c3.3,0.2,6.3-0.7,9.4-1.4c1.8-0.4,3.5-1.1,5.3-1.3c4.5-0.6,8.8-2.2,13.2-3.2c0.2,0,0.5,0,0.6-0.2
		c0.9-1.1,2.2-0.8,3.3-1c1.6-0.3,3.2-0.8,4.7-1.1c0.6-0.1,1.2-0.2,1.8-0.3c0.4-0.1,0.9-0.1,1.2-0.3c0.9-0.8,2-1.1,3.1-1.6
		c0.6-0.3,1.3-0.6,1.9-0.5c2,0.3,3.7-0.5,5.5-0.9c0.9-0.2,1.7-0.3,2.6-0.5c0.5-0.1,0.9-0.2,1.4-0.3c0.4-0.1,0.7-0.3,1-0.3
		c1.6,0.2,2.9-0.6,4.4-1.1c1-0.3,2.1-0.6,3.2-0.9c0.4-0.1,0.8-0.1,1.2-0.2c4.1-1.4,8.4-1.8,12.6-2.5c2.7-0.4,5.2-1.1,7.7-2.2
		c0.6-0.2,1.2-0.3,1.8-0.4c2-0.4,4.2-0.1,6.2-0.8c1.4-0.4,2.7-0.8,4.1-0.8c0.4,0,0.8-0.1,1.1-0.2c2.1-1.3,4.6-1.1,6.9-1.9
		c1.5-0.5,3.2,0.7,3.4,2.2c0.1,0.9-0.4,1.6-1.1,2.1c-1.9,1.4-3.9,2.8-5.8,4.3c-5.2,3.9-10.5,7.8-15.6,11.8
		c-3.7,2.9-7.3,6.1-10.9,9.1c-3.8,3.3-7.7,6.6-11.4,9.9c-2.1,1.9-4.1,3.9-6.1,5.8c-0.2,0.2-0.3,0.4-0.3,0.8c0.4-0.1,0.9-0.2,1.3-0.3
		c3.4-1.3,6.9-2.6,10.3-3.8c3.9-1.4,7.9-2.8,11.8-4.3c0.8-0.3,1.3-0.2,1.9,0.3c1.7,1.7,1.9,2.6,0,4.4c-1.5,1.4-3.2,2.7-4.9,3.9
		c-5.8,4.2-11.7,8.4-17.5,12.7c-2,1.5-3.9,3.1-5.4,5.1c-0.7,0.9-0.9,1.9-0.6,2.9c0.3,1,0.7,1.3,1.7,1.2c1.2-0.1,2.5-0.4,3.7-0.8
		c3.2-1.1,6.2-2.6,9-4.4c2.4-1.5,4.9-2.9,7.3-4.6c2.3-1.6,4.7-3.3,6.5-5.6c0.2-0.3,0.4-0.7,0.3-1.1c0-0.2-0.6-0.4-0.9-0.3
		c-0.8,0.1-1.7,0.2-2.4,0.6c-3.8,1.8-7.5,3.8-10.4,6.9c-0.6,0.7-0.9,1.3-0.7,2.2c0.3,1.1-0.1,1.7-1.3,2c-0.9,0.2-2-0.4-2.3-1.2
		c-0.7-1.9-0.6-3.7,0.9-5.2c3.9-3.9,8.1-7.3,13.6-8.9c1.9-0.5,3.7-0.7,5.5,0.2c2.3,1,3,2.9,1.9,5.2c-0.8,1.7-2.3,2.7-3.6,3.8
		c-2.9,2.6-6.1,4.8-9.5,6.9c-3.7,2.3-7.4,4.6-11.5,6.3c-1.7,0.7-3.4,1.4-5.2,1.7c-2.5,0.4-4.7-0.8-5.7-3.1c-0.8-1.8-0.9-3.7-0.5-5.6
		c0.1-0.6,0.5-1.1,0.9-1.6c1.9-2.5,4.4-4.2,6.8-6.1c1.3-1,2.6-1.9,3.9-2.8c3.2-2.5,6.4-5,9.6-7.4c0.2-0.1,0.3-0.4,0.4-0.5
		c0-0.1-0.1-0.2-0.1-0.3c-0.5,0.2-1.1,0.3-1.6,0.5c-3.7,1.4-7.4,2.5-11,4.2c-2.7,1.3-5.5,2.2-8.3,3.3c-1.3,0.5-2.5,1.2-3.5,2.3
		c-1.9,1.9-3.8,3.6-5.7,5.5c-2,2-4,4.1-6,6.1c-1.8,1.8-3.7,3.7-5.5,5.5c-1.5,1.5-2.9,3-4.3,4.5c-3.1,3.2-6.3,6.3-9.3,9.6
		c-2.3,2.4-4.7,4.8-7,7.2c-3,3.1-5.8,6.5-8.8,9.6c-2.7,2.7-5.3,5.4-7.9,8.2c-2.4,2.6-4.7,5.2-7.1,7.8c-1.5,1.7-3.1,3.3-4.7,5
		c-3.4,3.6-6.7,7.2-10.1,10.9c-3.4,3.6-6.7,7.3-10.1,10.8c-3.6,3.8-7.3,7.5-11,11.3c-2.6,2.7-5.1,5.4-7.7,8c-2.6,2.6-5.2,5-7.9,7.6
		c-1,1-2,2-3,2.9c-1.6,1.5-3.2,3-4.8,4.4c-0.9,0.8-1.9,1.5-2.7,2.4c-3.7,3.7-7.9,6.9-12.2,10c-2.7,2-5.5,3.8-8.3,5.6
		c-0.7,0.5-1.6,0.8-2.5,1c-1.6,0.4-2.5-0.1-3.2-1.5c-0.6-1.1-0.7-2.3-0.4-3.6c1.5-5.3,3.9-10.2,6.2-15.2c1.2-2.4,2.6-4.7,3.9-7
		c1.6-2.9,3.1-5.8,4.7-8.7c0.3-0.6,0.7-1.1,1.1-1.7c1.5-2.4,2.8-4.8,4.4-7.1c1.2-1.6,2.2-3.3,3.3-5c1.1-1.8,2.6-3.4,3.8-5.1
		c0.9-1.2,1.6-2.6,2.5-3.9c0.3-0.4,0.5-0.9,0.9-1.3c1.2-1.3,2.2-2.8,3.2-4.3c0.9-1.4,2-2.7,3.1-3.8c2.1-2.2,3.8-4.7,5.8-7
		c0.5-0.6,1.2-1.1,1.7-1.7c1.9-2.4,3.9-4.6,6-6.8c0.7-0.7,1.4-1.4,2-2.2c1-1.2,2.3-2.1,3.4-3.1c0.5-0.4,1-0.8,1.3-1.3
		c0.8-1.1,1.6-2,2.7-2.8c0.4-0.2,0.6-0.7,0.9-1c0.5-0.5,1.1-0.9,1.6-1.3c0.2-0.2,0.6-0.3,0.7-0.6c0.6-1.3,1.7-1.9,2.9-2.4
		c0.4-0.2,0.9-0.3,1.3-0.6c0.3-0.2,0.6-0.5,0.6-0.8c0-0.9,0.6-1.4,1.2-1.9c2.5-2,5-4,7.6-6c1-0.8,2.2-1.4,3.3-2.1
		c0.3-0.2,0.8-0.4,1-0.7c2-2.4,4.9-3.6,7.2-5.6c0.5-0.5,1.4-0.7,2.1-1c0.2-0.1,0.5-0.1,0.5-0.3c0.2-0.8,1-1,1.5-1.4
		c2.3-1.9,4.9-3.3,7.4-4.9c1-0.6,2.2-1,3.3-1.5c0.3-0.2,0.6-0.4,0.9-0.5c0.6-0.4,1.2-0.7,1.8-1.1c0.4-0.3,0.7-0.6,1.1-0.8
		c0.6-0.4,1.3-0.7,1.9-1.1c0.7-0.4,1.3-0.9,2-1.1c1.5-0.5,3-0.9,4-2.3c0.3-0.5,1-0.8,1.5-1c2.7-1.3,5.4-2.7,8.2-4
		c0.5-0.2,1.1-0.4,1.6-0.6c1.1-0.4,2.3-0.7,3.2-1.6c0.3-0.4,0.9-0.5,1.4-0.7c1.5-0.7,2.9-1.3,4.4-2c1.7-0.7,3.5-1.5,5.2-2.1
		c0.5-0.2,1.2,0,2,0.1c-0.2-1.1,0.6-1.4,1.4-1.8c0.5-0.2,1-0.4,1.5-0.6c2.7-1,5.1-2.4,7-4.5c1.8-2,3.8-3.8,5.8-5.6
		c2.5-2.3,5.1-4.6,7.7-6.9c1.9-1.7,3.7-3.5,5.6-5.2c2.6-2.3,5.3-4.5,7.9-6.8c1.7-1.5,3.4-3,5.2-4.4c2-1.6,3.9-3.5,6.3-4.6
		c0.1-0.1,0.3-0.1,0.4-0.2c2-2.7,5-4.2,7.5-6.3c0.6-0.5,1.4-0.8,1.5-1.9c-0.6,0.1-1.1,0-1.6,0.2C191,8.2,182,10,173,12
		c-4.3,0.9-8.6,1.8-12.9,2.9c-3.5,0.8-6.9,1.8-10.3,2.7c-4.4,1.1-8.7,2.2-13.1,3.5c-6,1.7-11.9,3.7-17.9,5.4
		c-4.2,1.2-8.5,2.1-12.8,3.1c-1.1,0.3-2-0.2-2.8-0.7c-0.8-0.6-1.2-1.7-0.8-2.6C102.8,24.8,103.3,24.4,104.6,24.5z M142.6,58.9
		c0.1-0.1,0.2-0.3,0.4-0.9c-0.8,0.2-1.4,0.4-2,0.6c-1.5,0.6-3.1,1.2-4.6,2c-2.1,1.2-4.5,1.6-6.5,2.8c-1.6,1-3.3,1.7-5,2.5
		c-2,1-4.2,1.9-6.2,3c-3.2,1.7-6.3,3.4-9.4,5.2c-3.3,1.9-6.5,3.9-9.8,5.9c-2,1.3-4,2.6-6,3.9c-0.6,0.4-1.2,0.7-1.7,1.1
		c-3.3,2.3-6.5,4.6-9.8,6.9c-0.2,0.2-0.4,0.3-0.6,0.5c-1,0.7-2.1,1.5-3.3,2.3c-0.1,0.8-0.8,1.2-1.7,1.6c-0.6,0.3-1.1,0.8-1.7,1.3
		c-0.5,0.4-0.8,0.9-1.3,1.3c-3.2,2.9-6.3,5.7-9.5,8.5c-0.3,0.2-0.5,0.6-0.8,0.7c-1.2,0.4-1.6,1.4-2.4,2.1c-1.4,1.4-2.4,3.3-4.8,3.6
		c0.4,1-0.1,1.7-0.7,2.3c-2.2,2.3-4.4,4.6-6.6,6.8c-0.4,0.4-0.7,0.7-1.1,1.1c-2.5,3.2-4.9,6.4-7.5,9.5c-0.8,1-1.9,1.9-2.5,3.1
		c-0.4,0.7-1,1.3-1.5,2c-0.9,1.1-1.9,2.1-2.5,3.3c-0.7,1.4-1.7,2.6-2.9,3.6c-0.3,0.2-0.6,0.4-0.8,0.7c-0.7,1.4-2.1,2.4-2.2,4.1
		c0,0.1-0.2,0.3-0.2,0.4c-1.2,2-2.9,3.6-3.9,5.8c-0.1,0.2-0.4,0.4-0.5,0.6c-0.2,0.3-0.4,0.7-0.6,1c-0.3,0.5-0.5,1-0.8,1.5
		c-1.9,3.2-3.9,6.5-5.8,9.7c-2.1,3.6-4,7.4-5.7,11.2c-1.5,3.4-2.8,6.8-3.7,10.3c-0.1,0.5,0,1,0,1.9c0.7-0.4,1.2-0.5,1.6-0.8
		c3.2-2.2,6.5-4.4,9.6-6.8c3.2-2.5,6.3-5.2,9.3-7.8c3.9-3.4,7.8-6.9,11.6-10.4c3-2.8,5.8-5.8,8.7-8.7c2.1-2.1,4.3-4.3,6.4-6.4
		c1.8-1.8,3.5-3.7,5.3-5.5c1.6-1.7,3.3-3.3,4.9-5c1.9-2.1,3.8-4.3,5.7-6.3c2-2.1,4.1-4.2,6-6.3c3.2-3.4,6.3-6.9,9.5-10.3
		c2.7-2.9,5.5-5.8,8.2-8.7c2-2.1,4-4.3,6.1-6.5c2.7-2.8,5.4-5.6,8.1-8.4c0.8-0.9,1.5-1.8,2.4-2.7c1.7-1.8,3.5-3.5,5.2-5.3
		c3.7-3.8,7.3-7.6,11-11.4c3.3-3.4,6.7-6.8,10.1-10.1C138.1,63.4,140.4,61.1,142.6,58.9z"/>
</g>
</svg>
