<?xml version="1.0" encoding="utf-8"?>
<!-- Generator: Adobe Illustrator 17.1.0, SVG Export Plug-In . SVG Version: 6.00 Build 0)  -->
<!DOCTYPE svg PUBLIC "-//W3C//DTD SVG 1.1//EN" "http://www.w3.org/Graphics/SVG/1.1/DTD/svg11.dtd">
<svg version="1.1" id="Layer_1" xmlns="http://www.w3.org/2000/svg" xmlns:xlink="http://www.w3.org/1999/xlink" x="0px" y="0px"
	 viewBox="0 0 220 100" enable-background="new 0 0 220 100" xml:space="preserve">
<g fill="#00ccff">
	<path d="M213.7,26.3c3.6-0.9,5.3,0.4,5.2,4.3c0,0.1-0.1,0.6-0.2,1.1c-1.2,5.4-2.6,10.7-3.7,16.1c-1.7,8.4-3.2,16.8-4.9,25.3
		c-0.2,0.9-0.4,1.9-0.7,2.8c-0.7,2.2-2.9,3.3-5.4,2.7c-2.9-0.7-4.1-2.5-3.5-5c2.8-12.2,5.6-24.4,8.4-36.6c0.3-1.2,0.3-2.4,0.4-3.6
		c0.2-1.3,0.5-2.6,0.7-3.8C210.5,27.7,211.9,26.8,213.7,26.3z"/>
	<path d="M208.9,89.3c1.8,0,3.3,1,3.9,2.8c0.7,1.9,0.5,3.9-0.7,5.2c-1.1,1.2-3.1,1.8-5.1,1.3c-0.4-0.1-0.9-0.2-1.3-0.3
		c-3.3-0.9-4.2-4.1-1.8-6.5C205.3,90.3,206.9,89.5,208.9,89.3z"/>
	<path d="M163.3,58.6c1.5-1.5,2.6-2.7,3.9-3.8c2.5-2.3,5.1-4.5,7.7-6.7c0.5-0.5,1.2-0.8,1.9-1.1c2.2-0.9,4.7-0.2,5.6,1.4
		c1.2,2,0.6,4.7-1.6,5.8c-4.9,2.4-8.1,6.5-11.8,10.2c-1.3,1.3-1,2.7-0.1,4.1c1.5,2.2,3.1,4.4,4.7,6.5c2.7,3.6,5.3,7.1,9,9.9
		c1.2,0.9,1.6,2.1,1.5,3.5c-0.1,1-0.2,2.1-0.3,3.1c-0.4,2.3-1.1,3-3.2,3.3c-2.2,0.3-3-0.1-4.1-2.2c-2.8-5.5-7.2-9.9-10.7-14.9
		c-1-1.4-2.1-2.8-3.3-4.3c-0.7,0.5-1.2,0.8-1.5,1.2c-4.3,5.2-7,11.3-9.9,17.2c-0.8,1.6-1.1,3.3-1.8,4.9c-0.9,1.9-2.7,2.8-4.7,2.5
		c-2.2-0.3-3.8-1.4-4.6-3.3c-0.2-0.6-0.1-1.4,0.2-2c4.1-7.7,7.5-15.8,13.1-22.8c1.2-1.5,2.2-3,3.4-4.5c0.8-1,0.8-1.8,0.2-2.9
		c-2.8-4.3-5.5-8.7-8.2-13c-0.3-0.4-0.7-0.8-0.9-1.3c-1.5-2.5-1-3.8,1.8-4.9c2.8-1.1,4.5-0.6,6.1,1.8c2.2,3.4,4.3,6.9,6.4,10.4
		C162.3,57.1,162.6,57.6,163.3,58.6z"/>
	<path d="M114.5,67.2c0.4,0.1,0.8-0.2,1.5-0.4c-1.7-5-3.4-9.8-6.1-14.8c-0.7,0.8-1,1-1.1,1.3c-1.2,3.3-2.5,6.6-3.6,9.9
		c-0.6,1.6-0.2,2.2,1.6,2.6C109.4,66.4,111.9,66.8,114.5,67.2z M99.6,87.5c-0.5,3.8-2.7,4.6-5.9,4.3c-1.9-0.2-3.5-2.8-3-4.9
		c0.8-3.6,1.6-7.2,2.5-10.8c0.6-2.5,1.6-4.8,1.2-7.5c-0.1-0.5,0.1-1.3,0.5-1.7c1.8-2.1,2.5-4.7,3.3-7.2c1.8-5.6,3.6-11.2,5.3-16.8
		c0.9-2.9,5.7-4.6,8.1-2.5c1.7,1.5,3.3,3.4,4.2,5.5c2.9,6.2,5.5,12.6,8.2,18.9c0.1,0.3,0.3,0.7,0.4,1c0.6,2.4,2,4.1,4.7,4.5
		c1.6,0.2,2.5,1.3,2.5,2.7c0,1.3-0.2,2.6-1.8,3.3c-0.2,0.1-0.5,0.3-1,0.6c1.1,2.9,2.2,5.7,3.2,8.5c0.6,1.7,1.4,3.4,1,5.4
		c-0.6,2.9-3,4-5.8,2.6c-2.3-1.1-3.2-3-3.4-5.1c-0.5-4-2.5-7.5-3.7-11.2c-0.3-0.8-1.2-1.8-2-1.9c-4.4-0.8-8.9-1.5-13.4-1.9
		c-2.1-0.2-2.5,0.3-2.9,2.4C100.9,79.6,100.1,83.5,99.6,87.5z"/>
	<path d="M10,77.1C9.1,79.4,7.2,80,4.7,80c-2.7,0-4.7-3.3-3.5-5.6c1.2-2.1,2.1-4.3,2.9-6.5c1.6-4.7,3-9.6,4.6-14.3
		c1.6-4.8,3.3-9.7,5-14.5c4.1-11,8.7-21.7,13.8-32.4c0.5-1,0.8-2.1,1.3-3.2c0.9-2.1,3-3.2,5.6-2.9c2.8,0.3,3.6,1.1,4,3.8
		c0.6,4,1.4,7.9,1.9,11.9c0.5,4.5,0.6,9.1,1,13.6c0.3,3.7,0.7,7.3,1.1,11c0.3,2.6,1.1,4.2,2.7,6c0.7-0.7,1.4-1.4,1.8-2.1
		c0.7-1.2,1.3-2.5,1.9-3.8c3-6.6,6-13.2,9.1-19.7c1.7-3.5,3.6-6.9,5.5-10.3c1.2-2.2,3.3-3,5.7-3.2c2-0.2,3.2,0.6,3.8,2.4
		c0.7,2.6,1.6,5.3,1.7,7.9c0.5,9.3,1,18.5,1.1,27.8c0.2,9.8,0.7,19.6,1.7,29.3c0.4,3.7,1.3,7.2,3.7,10.3C82.2,87.1,82,89,81,90
		c-1,1-3.2,1-4.8,0.2c-3.8-2-5.2-5.4-5.9-9.1c-1.4-7.5-2-15.1-2.2-22.7c-0.2-7.5-0.5-15-0.9-22.6c-0.2-3.4-0.4-6.8-0.7-10.2
		c0-0.4-0.1-0.8-0.3-1.6c-0.6,0.5-1.1,0.8-1.3,1.2c-2.1,4.5-4,9-6.1,13.4c-1.8,3.9-3.6,7.9-5.8,11.6c-1.2,2.1-3.3,3.5-5.8,4.3
		c-4.6,1.4-9.7-1.7-11.5-6.4c-1.9-4.8-2.7-9.8-3-14.9c-0.3-4.3-0.6-8.6-0.9-12.8c0-0.6-0.3-1.1-0.6-2.3c-0.8,1.4-1.4,2.1-1.7,3
		c-2.8,6.8-5.9,13.6-8.4,20.6c-2.9,8.3-5.2,16.8-7.8,25.2C12.4,70.3,11.3,73.7,10,77.1z"/>
</g>
</svg>
