<?xml version="1.0" encoding="utf-8"?>
<!-- Generator: Adobe Illustrator 18.0.0, SVG Export Plug-In . SVG Version: 6.00 Build 0)  -->
<!DOCTYPE svg PUBLIC "-//W3C//DTD SVG 1.1//EN" "http://www.w3.org/Graphics/SVG/1.1/DTD/svg11.dtd">
<svg version="1.1" id="Layer_1" xmlns="http://www.w3.org/2000/svg" xmlns:xlink="http://www.w3.org/1999/xlink" x="0px" y="0px"
	 viewBox="0 0 220 202.6" enable-background="new 0 0 220 202.6" xml:space="preserve">
<g>
	<path fill="#999999" d="M129.8,120.6c0,2.5,0.9,3.6,3.4,3.9c1.8,0.2,3.7,0.2,5.5,0c5.9-0.7,10-3.7,11.7-9.5
		c1.6-5.2,1.7-10.5,0.3-15.8c-2.7-9.8-10.7-13.4-20.9-11c0,0.5,0,0.9,0,1.3C129.8,99.8,129.8,110.2,129.8,120.6z M157.4,96.8
		c4.1,10.5,1,23.1-9.9,28.9c-2.8,1.5-5.9,2.4-9.1,2.4c-6.1,0.1-12.2,0-18.7,0c0.6-0.5,0.9-0.7,1.2-0.9c1.1-0.9,1.8-2.1,1.8-3.7
		c0-11.6,0-23.2,0-34.8c0-2.1-1.2-3.3-3-4.5c0.5-0.1,0.8-0.1,1.1-0.1c5.6,0,11.2,0,16.8,0C146.9,84.2,154.3,88.8,157.4,96.8z"/>
	<path fill="#999999" d="M103.9,129c-1.8-4.5-3.6-8.9-5.3-13.2c-2.3-5.8-4.6-11.6-7-17.3c-0.5-1.3-1.4-2.4-2.1-3.5
		c3.3,0,6.7,0,10.5,0c-2,1.2-1.1,2.7-0.6,4.1c1.9,4.8,3.8,9.6,5.6,14.4c0.2,0.4,0.4,0.8,0.6,1.5c1.3-3.2,2.6-6.2,3.9-9.1
		c1-2.3,1.9-4.7,3-7c0.6-1.4,0.8-2.6-0.7-3.8c2.8,0,5.3,0,7.8,0c-2.3,1.3-2.9,3.7-3.9,5.9c-3.8,9-7.6,18.1-11.4,27.1
		C104.3,128.3,104.1,128.5,103.9,129z"/>
	<path fill="#999999" d="M60.4,117.5c0.6,0.8,1,1.3,1.3,1.8c3.5,5,8.4,6.8,14.3,6.2c5.1-0.6,8.4-5.3,7.3-10.3c-0.5-2.3-2-3.8-4-4.6
		c-2.2-0.8-4.4-1.4-6.6-2.1c-1.1-0.4-2.3-0.7-3.4-1.1c-5.8-2.1-8.3-6.1-7.8-12.8c0.5-6.4,4.8-10.4,11.7-11.3
		c4.2-0.5,8.3-0.1,12.3,1.2c0.8,0.2,1.1,0.6,1.2,1.5c0.2,2.2,0.4,4.3,0.7,6.9c-0.8-1-1.4-1.7-2-2.3c-3.5-3.9-7.8-4.9-12.7-3.5
		c-2.7,0.8-4.4,2.6-5,5.4c-0.7,3.4,0.5,6,3.8,7.4c2.6,1.1,5.4,1.7,8,2.7c1.9,0.7,3.8,1.4,5.6,2.4c3.5,2,4.9,5.4,5,9.3
		c0.2,7.6-4.3,13.1-12.1,14.4c-5.7,1-11.3,0.2-16.7-1.5c-0.3-0.1-0.8-0.6-0.8-0.9C60.3,123.5,60.4,120.6,60.4,117.5z"/>
</g>
</svg>
