<?xml version="1.0" encoding="utf-8"?>
<!-- Generator: Adobe Illustrator 18.0.0, SVG Export Plug-In . SVG Version: 6.00 Build 0)  -->
<!DOCTYPE svg PUBLIC "-//W3C//DTD SVG 1.1//EN" "http://www.w3.org/Graphics/SVG/1.1/DTD/svg11.dtd">
<svg version="1.1" id="Layer_1" xmlns="http://www.w3.org/2000/svg" xmlns:xlink="http://www.w3.org/1999/xlink" x="0px" y="0px"
	 viewBox="0 0 220 202.6" enable-background="new 0 0 220 202.6" xml:space="preserve">
<g>
	<g>
		<path fill="#999999" d="M61.6,88.7h27.2c0,0,0.1,0,0.1-0.1c0,0,0-0.1-0.1-0.1H61.6C61.6,88.6,61.5,88.7,61.6,88.7
			C61.5,88.7,61.6,88.7,61.6,88.7z M61.6,93.9h27.2c0,0,0.1,0,0.1-0.1c0,0,0-0.1-0.1-0.1H61.6C61.6,93.8,61.5,93.8,61.6,93.9
			C61.5,93.8,61.6,93.9,61.6,93.9z M61.6,99.1h27.2c0,0,0.1,0,0.1-0.1c0,0,0-0.1-0.1-0.1H61.6C61.6,99,61.5,99,61.6,99.1
			C61.5,99.1,61.6,99.1,61.6,99.1z M61.6,104.9h27.2c0,0,0.1,0,0.1-0.1c0,0,0-0.1-0.1-0.1H61.6C61.6,104.8,61.5,104.8,61.6,104.9
			C61.5,104.9,61.6,104.9,61.6,104.9z M61.4,110.4h27.2c0,0,0.1,0,0.1-0.1c0,0,0-0.1-0.1-0.1H61.4C61.4,110.3,61.4,110.3,61.4,110.4
			C61.4,110.3,61.4,110.4,61.4,110.4z M61.6,115.7h27.2c0,0,0.1,0,0.1-0.1c0,0,0-0.1-0.1-0.1H61.6C61.6,115.5,61.5,115.6,61.6,115.7
			C61.5,115.6,61.6,115.7,61.6,115.7z M61.6,121.2h27.2c0,0,0.1,0,0.1-0.1c0,0,0-0.1-0.1-0.1H61.6C61.6,121.1,61.5,121.1,61.6,121.2
			C61.5,121.1,61.6,121.2,61.6,121.2z M33.4,90.6h27.2c0,0,0.1,0,0.1-0.1c0,0,0-0.1-0.1-0.1H33.4C33.3,90.5,33.3,90.5,33.4,90.6
			C33.3,90.6,33.3,90.6,33.4,90.6z M33.4,96.4h27.2c0,0,0.1,0,0.1-0.1c0,0,0-0.1-0.1-0.1H33.4C33.3,96.3,33.3,96.3,33.4,96.4
			C33.3,96.4,33.3,96.4,33.4,96.4z M33.4,102.1h27.2c0,0,0.1,0,0.1-0.1c0,0,0-0.1-0.1-0.1H33.4C33.3,102,33.3,102.1,33.4,102.1
			C33.3,102.1,33.3,102.1,33.4,102.1z M33.2,108.1h27.2c0,0,0.1,0,0.1-0.1s0-0.1-0.1-0.1H33.2C33.2,108,33.2,108.1,33.2,108.1
			C33.2,108.1,33.2,108.1,33.2,108.1z M33.4,113.9h27.2c0,0,0.1,0,0.1-0.1c0,0,0-0.1-0.1-0.1H33.4C33.3,113.8,33.3,113.8,33.4,113.9
			C33.3,113.9,33.3,113.9,33.4,113.9z M33.4,119.9h27.2c0,0,0.1,0,0.1-0.1c0,0,0-0.1-0.1-0.1H33.4C33.3,119.8,33.3,119.8,33.4,119.9
			C33.3,119.9,33.3,119.9,33.4,119.9z"/>
		<path fill="#999999" d="M48.2,120.7c3.4,3,7.8,4.8,12.7,4.8c4.9,0,9.3-1.8,12.7-4.8H48.2"/>
		<path fill="#999999" d="M72.7,90.9c-3.2-2.5-7.3-4-11.7-4c-4.4,0-8.5,1.5-11.7,4H72.7"/>
		<path fill="#999999" d="M46.5,93.4c-0.9,1-1.6,2-2.3,3.2h33.5c-0.7-1.1-1.4-2.2-2.3-3.2H46.5"/>
		<path fill="#999999" d="M43.2,98.7c-0.5,1.2-0.9,2.5-1.1,3.8h37.9c-0.3-1.3-0.6-2.6-1.1-3.8H43.2"/>
		<path fill="#999999" d="M42,109.9c0.3,1.5,0.7,2.9,1.4,4.3h35.2c0.6-1.3,1.1-2.8,1.4-4.3H42"/>
		<path fill="#999999" d="M43.9,115.2c1,1.8,2.2,3.5,3.7,4.9h26.6c1.5-1.4,2.8-3.1,3.7-4.9H43.9"/>
		<path fill="#999999" d="M41.6,106.2c0,0.7,0,1.5,0.1,2.2h38.3c0.1-0.7,0.1-1.4,0.1-2.2c0-0.6,0-1.2-0.1-1.8H41.7
			C41.7,105,41.6,105.6,41.6,106.2"/>
		<path fill="#999999" d="M106.2,123.2v1.7c-3.7-0.1-6.1-0.2-7.3-0.2l-8,0.2v-1.7c2,0,3.3-0.1,3.7-0.3c0.4-0.1,0.8-0.3,0.9-0.6
			c0.2-0.3,0.3-1.2,0.4-2.5c0-0.4,0.1-2.8,0.1-7.4v-12c0-2.3,0-4.6-0.1-6.9c-0.1-1.6-0.2-2.6-0.4-2.9c-0.2-0.3-0.5-0.5-1-0.7
			c-0.4-0.1-1.7-0.2-3.7-0.3V88c3.3,0.1,5.8,0.2,7.6,0.2c1.7,0,4.3-0.1,7.6-0.2v1.7c-2.1,0-3.3,0.1-3.7,0.3
			c-0.4,0.1-0.7,0.3-0.9,0.6c-0.2,0.3-0.3,1.2-0.4,2.5c0,0.3-0.1,2.8-0.1,7.4v12c0,2.3,0,4.6,0.1,6.9c0.1,1.6,0.2,2.6,0.4,2.9
			c0.2,0.3,0.5,0.5,1,0.7C102.9,123.1,104.2,123.2,106.2,123.2"/>
		<path fill="#999999" d="M118.6,117.3l-0.1-8V98.9l0.1-3.8c0-2.2,0.1-3.7,0.1-4.5c2.2-0.3,4.4-0.5,6.5-0.5c4,0,7.2,0.6,9.5,1.8
			c2.3,1.2,4,3,5.2,5.3c1.1,2.3,1.7,5.1,1.7,8.3c0,2.2-0.3,4.4-0.9,6.5c-0.6,2.1-1.4,3.8-2.6,5.2c-1.1,1.3-2.3,2.4-3.4,3.1
			c-1.2,0.7-2.6,1.2-4.3,1.6c-1.7,0.4-3.6,0.6-5.8,0.6c-2.1,0-4.1-0.2-6-0.5C118.7,120.1,118.6,118.6,118.6,117.3z M116.2,124.7
			c0.7,0,2.3,0,4.6,0.1c1.8,0.1,3.2,0.1,4.3,0.1c3.2,0,5.7-0.3,7.5-0.8c1.8-0.5,3.6-1.3,5.2-2.3c1.7-1,3.2-2.4,4.7-4.1
			c1.5-1.7,2.6-3.7,3.4-6c0.8-2.3,1.3-4.8,1.3-7.4c0-3.7-0.9-6.8-2.7-9.3c-1.8-2.5-4-4.4-6.6-5.4c-2.6-1.1-6-1.6-10.2-1.6
			c-1.4,0-3.4,0-6,0.1c-2.6,0.1-4.6,0.1-6.1,0.1c-1.9,0-4.2-0.1-6.7-0.2v1.6c1.8,0,3,0.1,3.6,0.4c0.2,0.1,0.4,0.3,0.5,0.5
			c0.2,0.3,0.3,1.2,0.4,2.7c0.1,2.3,0.2,4.3,0.2,6v10.6c0,1.4-0.1,3.9-0.2,7.4c-0.1,2.1-0.2,3.7-0.3,4.9c-0.7,0.5-1.5,1-2.5,1.6v1.2
			C113.3,124.7,115.2,124.7,116.2,124.7"/>
		<path fill="#999999" d="M185.6,122.8c-2.6,1-4.8,1.6-6.5,1.9c-3,0.6-5.8,0.9-8.4,0.9c-4,0-7.5-0.8-10.7-2.3
			c-3.1-1.6-5.5-3.8-7.2-6.6c-1.7-2.8-2.5-6.1-2.5-10c0-3.4,0.6-6.2,1.8-8.6c1.2-2.4,2.7-4.3,4.6-5.8c1.8-1.5,3.6-2.6,5.5-3.4
			c2.8-1.1,6.2-1.7,10.3-1.7c1.9,0,3.9,0.2,6.1,0.7c2.1,0.4,4.5,1,7.2,1.8c-0.3,0.9-0.5,1.7-0.6,2.6c-0.1,0.8-0.3,2.6-0.5,5.2H183
			l-0.1-3c0-0.4,0-0.8-0.1-1.1c0-0.3-0.1-0.6-0.3-1.1c-0.5-0.6-1.2-1.2-2.2-1.7c-1.8-0.7-3.2-1.1-4.4-1.3c-1.1-0.2-2.5-0.3-4.1-0.3
			c-3.3,0-6.1,0.7-8.5,2.1c-2.4,1.4-4.2,3.4-5.5,6c-1.2,2.6-1.9,5.5-1.9,8.6c0,3.4,0.7,6.5,2.2,9.2c1.4,2.7,3.4,4.8,5.8,6.2
			c2.4,1.4,5.3,2.2,8.5,2.2c1.5,0,3-0.1,4.4-0.4c1.4-0.3,2.6-0.7,3.6-1.2c0.2-0.7,0.2-1.8,0.2-3.3v-2.9c0-1.5-0.1-2.4-0.2-2.7
			c-0.2-0.3-0.6-0.5-1.3-0.6c-0.7-0.1-2.2-0.2-4.7-0.3v-1.6l8.1,0.2c1.6,0,3.2-0.1,4.8-0.2l0.2,1.2l-1.9,1.1
			c-0.2,1.8-0.3,3.6-0.3,5.1C185.3,119.3,185.4,121,185.6,122.8"/>
	</g>
</g>
</svg>
