<?xml version="1.0" encoding="utf-8"?>
<!-- Generator: Adobe Illustrator 18.0.0, SVG Export Plug-In . SVG Version: 6.00 Build 0)  -->
<!DOCTYPE svg PUBLIC "-//W3C//DTD SVG 1.1//EN" "http://www.w3.org/Graphics/SVG/1.1/DTD/svg11.dtd">
<svg version="1.1" id="Layer_1" xmlns="http://www.w3.org/2000/svg" xmlns:xlink="http://www.w3.org/1999/xlink" x="0px" y="0px"
	 viewBox="0 0 18 18" enable-background="new 0 0 18 18" xml:space="preserve">
<g fill="white">
	<path d="M7.607,13.198c-0.101,0.061-0.208,0.091-0.321,0.091c-0.107,0-0.215-0.026-0.322-0.08
		c-0.214-0.128-0.321-0.315-0.321-0.562V6.218c0-0.248,0.107-0.436,0.321-0.562c0.222-0.121,0.436-0.117,0.644,0.01l5.464,3.214
		C13.286,9,13.393,9.185,13.393,9.432c0,0.248-0.106,0.432-0.321,0.553L7.607,13.198z M2.534,5.56C1.845,6.741,1.5,8.032,1.5,9.432
		s0.345,2.69,1.034,3.872c0.69,1.183,1.626,2.118,2.808,2.808s2.473,1.035,3.872,1.035c1.4,0,2.69-0.346,3.873-1.035
		c1.182-0.689,2.117-1.625,2.807-2.808c0.69-1.182,1.035-2.473,1.035-3.872s-0.345-2.69-1.035-3.872
		c-0.689-1.182-1.625-2.118-2.807-2.808c-1.183-0.689-2.473-1.034-3.873-1.034c-1.399,0-2.69,0.345-3.872,1.034
		S3.225,4.378,2.534,5.56z"/>
</g>
</svg>
