<?xml version="1.0" encoding="utf-8"?>
<!-- Generator: Adobe Illustrator 18.0.0, SVG Export Plug-In . SVG Version: 6.00 Build 0)  -->
<!DOCTYPE svg PUBLIC "-//W3C//DTD SVG 1.1//EN" "http://www.w3.org/Graphics/SVG/1.1/DTD/svg11.dtd">
<svg version="1.1" id="Layer_1" xmlns="http://www.w3.org/2000/svg" xmlns:xlink="http://www.w3.org/1999/xlink" x="0px" y="0px"
	 viewBox="0 0 700 600" enable-background="new 0 0 700 600" xml:space="preserve">
<g fill="#ffffff">
	<path d="M692.805,521.532c-1.67,6.9-2.89,13.69-5.01,20.19c-1.51,4.64-1.36,8.93-0.27,13.5c1.54,6.48,0.75,7.69-5.83,8.74
		c-25.3,4.02-50.62,7.92-75.91,11.95c-28.4,4.52-56.77,9.16-85.17,13.69c-7.67,1.22-15.45,1.85-23.04,3.44
		c-4.39,0.92-4.9-0.75-4.61-4.22c0.14-1.66,0.03-3.33,0.03-5.57c-10.05-2.12-20.13-4.27-30.21-6.38
		c-34.72-7.25-69.44-14.48-104.16-21.72c-17.78-3.7-35.54-7.47-53.36-10.95c-1.2-0.23-3.52,1.36-4.12,2.66
		c-4.74,10.36-10.95,19.42-21.66,24.26c-3.5,1.58-7.62,2.78-11.39,2.6c-10.33-0.48-21-0.04-30.14-6.38
		c-10.66-7.39-16.6-17.96-19.38-30.25c-4.01-17.67-2.07-34.61,8.27-49.98c1.83-2.73,4.12-5.24,6.6-7.4
		c2.45-2.12,2.52-3.94,1.28-6.81c-17.56-40.72-35-81.5-52.44-122.27c-19.85-46.4-39.67-92.82-59.51-139.22
		c-0.44-1.02-1.05-1.97-1.59-2.96c-6.38,3.91-8.39,3.57-12.65-2.39c-15.63-21.83-31.15-43.72-46.86-65.49
		c-1.22-1.7-3.53-2.62-5.31-3.94c-0.88-0.66-1.91-1.25-2.54-2.12c-9.4-12.85-18.82-25.7-28.1-38.65c-4.72-6.6-5.11-6.79-11.63-2.05
		c-5.81-2.94-4.64-9.16-6.9-14.13c5.66-2.91,8.14-7.44,10.06-13.29c1.72-5.21,6.3-9.51,9.76-14.1c2.1-2.78,4.61-5.26,6.7-8.04
		c3.39-4.5,3.86-9.38,0.73-14.18c-2.5-3.85-1.59-6.46,1.86-9.17c4.03-3.18,7.9-6.64,11.42-10.37c5.35-5.66,12.04-3.31,18.29-3.49
		c0.7-0.02,1.75,1.74,2.12,2.85c2.15,6.42,4.41,12.83,6.02,19.4c0.47,1.92-0.52,4.76-1.81,6.43c-1.88,2.42-4.64,4.15-6.88,6.05
		c3.71,11.19,12.87,19.93,11.63,32.69c4.99,0.44,9.74,1.01,14.5,1.24c18.62,0.88,37.25,1.68,55.88,2.38
		c1.69,0.07,3.89-0.26,5.05-1.3c6.05-5.48,13.23-4.41,20.19-3.52c3.34,0.43,5.56-0.05,7.84-2.52c2.69-2.92,6.24-5.1,8.72-8.16
		c4.89-6.03,8.15-12.84,5.6-20.88c-0.94-2.94-0.02-4.65,2.14-6.36c3.5-2.78,7.24-5.37,10.23-8.65c4.83-5.3,10.18-2.46,15.29-1.5
		c4.11,0.78,5.56,4.14,5.86,8.21c0.29,3.95,1.11,7.86,1.61,11.8c0.48,3.78-0.7,6.78-4.08,8.88c-3.6,2.24-6.06,4.83-4.06,9.76
		c1.28,3.16,1.22,6.83,2.2,10.15c2.22,7.49-0.55,14.32-2.18,21.39c-0.42,1.82,0.17,4.64,1.4,5.97c16.15,17.45,32.5,34.71,48.8,52.02
		c15.82,16.82,31.65,33.64,47.47,50.46c15.84,16.83,31.67,33.67,47.51,50.5c16.06,17.08,32.13,34.14,48.17,51.23
		c2.33,2.49,4.51,5.12,7.37,8.36c0.49-6.56,1.06-12.1,1.3-17.66c0.78-17.62,1.3-35.25,2.17-52.87c1.49-30.4,3.22-60.8,4.75-91.2
		c0.84-16.61,1.37-33.24,2.3-49.85c0.13-2.37,1.1-5.37,2.77-6.87c12.07-10.84,24.43-21.37,36.69-32.01
		c2.11-1.84,4.14-3.77,7.39-6.73c0,5.25,0.17,9.26-0.04,13.25c-0.5,9.47-1.33,18.92-1.76,28.38c-0.82,17.95-1.31,35.92-2.19,53.87
		c-1.49,30.74-3.19,61.47-4.77,92.2c-0.73,14.29-1.43,28.58-2.04,42.88c-0.78,18.29-1.39,36.58-2.22,54.87
		c-0.12,2.78,0.63,4.43,2.98,6.05c11.43,7.85,22.69,15.94,34.62,24.37c0.85-16.04,1.66-31.14,2.43-46.24
		c1.31-25.75,2.61-51.5,3.87-77.25c0.76-15.46,1.4-30.92,2.14-46.37c1.26-26.26,2.56-52.51,3.84-78.77
		c0.65-13.46,1.43-26.92,1.89-40.39c0.3-8.84,5.48-14.03,12.81-17.2c3.21-1.39,4.43-3.03,4.38-6.18c-0.01-0.83,0.06-1.66,0.09-2.5
		c0.3-8.71,6.57-12.53,13.63-7.39c7.26,5.28,13.8,11.67,20.12,18.11c3.06,3.1,4.81,7.46,7.3,11.16c2.63,3.91,3.37,8.14,3,12.77
		c-1.34,16.38-2.62,32.77-3.83,49.16c-0.79,10.77-1.41,21.55-2.16,32.32c-1.26,18.06-2.59,36.12-3.84,54.18
		c-0.77,11.11-1.41,22.23-2.18,33.34c-1.23,17.73-2.55,35.46-3.79,53.19c-0.78,11.11-1.43,22.22-2.21,33.33
		c-1.26,18.06-2.4,36.13-3.96,54.17c-0.45,5.19,1,8.43,5.31,11.48c15.11,10.66,29.97,21.69,44.76,32.79
		c0.99,0.74,1.39,3.42,0.91,4.8c-4.44,12.76-9.09,25.45-13.78,38.12c-1.01,2.73-0.99,4.78,1.48,6.87c2.25,1.9,3.81,4.59,5.98,6.61
		c1.39,1.29,3.22,2.55,5.02,2.88c26.47,4.85,52.98,9.53,79.46,14.29C688.965,520.192,690.645,520.882,692.805,521.532z
		 M683.885,559.472c-4.65-12.82,2.21-23.93,3.56-36.25c-8.12,1.11-15.81,2.17-23.49,3.2c-13.44,1.81-26.88,3.6-40.32,5.42
		c-3.23,0.44-6.28,0.66-6.2-3.86c-14.42,2.35-28.39,4.63-42.53,6.94c0.38,1.93,0.65,3.26,0.97,4.9c-5.98,0.78-11.56,1.47-17.12,2.26
		c-15.71,2.23-31.38,4.76-47.12,6.69c-10.57,1.29-10.61,0.93-11.66,11.63c-0.08,0.82-0.37,1.62-0.45,2.45
		c-0.8,8.52-1.58,17.05-2.39,25.87C559.405,578.962,621.165,569.292,683.885,559.472z M667.775,521.502
		c0.03-0.21,0.07-0.41,0.11-0.62c-18.95-3.46-37.89-6.92-58.01-10.59c5.21,6.18,9.52,11.3,14.4,17.08
		C638.035,525.522,652.905,523.512,667.775,521.502z M598.695,526.762c5.56-0.93,11.1-1.98,17.19-3.07
		c-9.4-10.62-18.16-20.52-26.66-30.11c5.22-14.34,10.3-28.32,15.44-42.47c-18.88,0.94-37.13,1.77-55.36,2.89
		c-1.38,0.09-3.25,2.02-3.86,3.51c-3.98,9.78-7.6,19.71-11.57,29.5c-0.5,1.23-2.37,1.9-3.61,2.84c-0.12-1.38-0.71-2.93-0.28-4.09
		c3.39-9.13,6.61-18.34,10.62-27.18c2.23-4.89,0.7-7.45-2.97-10.37c-10.73-8.54-21.27-17.31-31.87-26.01
		c-13.4-11-26.8-22.02-41.21-33.87c-0.39,8.47-0.89,15.74-0.96,23.02c-0.02,2.06,0.65,4.56,1.89,6.16
		c17.73,22.84,35.82,45.4,53.31,68.42c4.95,6.52,10.01,10.54,18.52,8.97c1.69-0.31,4.35,0.19,5.37,1.36
		c9.22,10.6,18.1,21.48,27.29,32.1c1.12,1.3,3.58,2.3,5.26,2.1C583.085,529.492,590.885,528.082,598.695,526.762z M566.175,448.812
		c11.37-0.66,22.73-1.31,35.56-2.04c-15.31-11.29-29.44-21.7-44.75-32.99c0,5.29,0.07,8.92-0.02,12.55
		c-0.1,3.74-1.81,5.78-5.88,5.68c-11.24-0.25-21.19-3.95-29.11-11.82c-5.6-5.57-9.68-12.07-7.19-20.93
		c1.14-4.04,0.82-8.5,1.03-11.13c-4.36-3.42-7.89-6.07-11.28-8.9c-1.44-1.21-2.38-3.04-3.88-4.14
		c-7.18-5.29-14.45-10.45-21.75-15.58c-3.97-2.8-8.05-5.44-12.09-8.16c-0.59,0.16-1.19,0.31-1.79,0.46c0,9.75-0.1,19.5,0.11,29.25
		c0.04,1.53,1.21,3.43,2.44,4.48c4.37,3.75,9.06,7.15,13.53,10.8c20.33,16.65,40.76,33.17,60.8,50.16
		c3.72,3.16,7.19,3.44,11.35,3.15C557.555,449.352,561.865,449.062,566.175,448.812z M551.345,71.942
		c6.01,7.06,11.64,15.38,23.93,13.58c-6.87-13.27-15.13-24.49-27.95-31.69c-1.22-0.69-3.15-1.35-4.16-0.84
		c-1.03,0.53-2.24,3.03-1.82,3.75C544.425,61.962,547.435,67.342,551.345,71.942z M571.935,146.732c1.24-18.72,2.37-37.44,3.6-56.94
		c-8.78,1.89-15.3-1.98-20.67-7.67c-5.26-5.57-9.82-11.8-15.02-18.15c-1.28,22.27-2.56,44.3-3.81,66.34
		c-0.75,13.11-1.4,26.24-2.2,39.35c-1.21,20.08-2.58,40.15-3.76,60.23c-0.84,14.28-1.35,28.57-2.21,42.84
		c-1.51,24.89-3.1,49.77-4.8,74.65c-1.27,18.7-2.81,37.39-4.11,56.1c-0.14,2.03,0.02,4.31,0.82,6.14
		c4.66,10.58,20.17,19.13,32.37,17.74c0.59-6.62,1.3-13.35,1.78-20.1c1.39-19.22,2.69-38.45,4.01-57.67
		c1.68-24.2,3.34-48.4,5.02-72.59c1.32-19.06,2.66-38.12,3.97-57.18C568.605,195.462,570.315,171.102,571.935,146.732z
		 M569.135,536.342c0.04-0.35,0.07-0.7,0.1-1.05c-60.97-5.83-121.95-11.65-182.93-17.48c1.33,1.12,2.71,1.61,4.13,1.96
		c32.13,7.92,64.25,15.91,96.43,23.65c5.56,1.34,11.52,2.81,17.05,2.14C525.715,542.942,547.405,539.482,569.135,536.342z
		 M525.395,526.792c13.2,1.29,26.4,2.46,40.63,3.77c-7.9-9.34-15.28-18.22-22.87-26.91c-1.69-1.93-4.02-4.35-6.26-4.58
		c-8.25-0.86-16.6-0.67-24.88-1.29c-11.74-0.87-23.47-2.05-35.19-3.2c-15.51-1.52-31-3.22-46.51-4.69
		c-15.52-1.47-31.08-2.64-46.58-4.29c-1.71-0.18-4.02-2.35-4.64-4.09c-10.78-30.49-21.28-61.09-32.05-91.58
		c-1.53-4.32-1.12-7.52,1.48-11.34c10.98-16.12,21.54-32.51,32.4-48.71c1.95-2.91,2.17-5.04-0.43-7.66
		c-3.5-3.52-6.65-7.4-9.97-11.09c-18.33-20.35-36.68-40.67-55.01-61.02c-21.22-23.57-42.4-47.17-63.65-70.71
		c-22.6-25.02-45.26-49.98-67.89-74.97c-8.1-8.94-16.22-17.87-24.43-26.92c-14.71,10.04-29.05,19.82-43.52,29.7
		c0.5,1.11,0.8,2.04,1.29,2.86c7.33,12.22,14.72,24.41,22.02,36.65c30.98,51.94,61.92,103.89,92.89,155.84
		c40.86,68.53,81.72,137.07,122.64,205.57c0.67,1.11,1.97,2.38,3.12,2.56c4.09,0.62,8.25,0.76,12.38,1.14
		c11.57,1.05,23.14,2.07,34.7,3.21c12.22,1.19,24.41,2.57,36.62,3.75c12.06,1.16,24.14,2.1,36.19,3.26
		C493.725,523.572,509.555,525.252,525.395,526.792z M533.845,95.872c0.52-8.55,0.81-17.13,1.21-25.87
		c-7.22,2.19-11.75,7.17-12.03,12.68c-0.6,11.79-1.28,23.58-1.87,35.37c-1.36,27.24-2.76,54.49-4.01,81.74
		c-1.14,24.75-2.1,49.51-3.16,74.27c-0.34,7.97-0.75,15.94-1.15,23.92c-1.26,25.24-2.43,50.49-3.89,75.72
		c-0.31,5.43,2.04,7.54,7.72,8.05c0.13-1.77,0.26-3.23,0.35-4.69c0.71-12.27,1.38-24.55,2.14-36.83
		c1.25-20.24,2.61-40.48,3.81-60.72c0.82-13.78,1.33-27.57,2.17-41.34c1.53-25.04,3.29-50.07,4.78-75.11
		c0.88-14.77,1.35-29.56,2.17-44.33C532.505,111.102,533.375,103.502,533.845,95.872z M502.045,492.662
		c5.64,0.52,11.3,0.8,17.95,1.26c-19.17-24.44-37.58-47.9-56.4-71.88c-0.94,7.89-1.41,14.86-2.65,21.7
		c-1.86,10.23-5.44,19.67-13.81,26.7c-10.15,8.53-24.23,5.24-27.91-7.41c-2.04-7.02-2.48-14.66-2.64-22.04
		c-0.17-7.62,0.96-15.26,1.4-22.9c0.68-11.62,1.44-23.25,1.76-34.88c0.13-4.68,0.84-10.58-1.55-13.87
		c-9.98-13.73-21.04-26.68-31.77-39.99c-0.49,0.51-0.89,0.82-1.15,1.22c-11.26,17.16-22.58,34.27-33.63,51.56
		c-1,1.56-0.94,4.44-0.29,6.33c10.04,29.36,20.36,58.62,30.29,88.01c1.41,4.18,3.53,5.32,7.48,5.4c5.3,0.12,10.6,0.62,15.89,1.14
		c15.51,1.55,31,3.22,46.51,4.77C468.365,489.462,485.195,491.092,502.045,492.662z M493.635,578.892c0.93-9.7,1.81-18.91,2.72-28.4
		c-1.71-0.62-2.76-1.1-3.86-1.37c-42.42-10.41-84.85-20.84-127.29-31.16c-5.1-1.24-10.31-2.52-15.5-2.65
		c-5.92-0.15-11.88,0.98-17.82,1.53c-8.53,0.79-17.07,1.57-25.29,2.32c-0.86,6.99-1.66,13.51-2.49,20.31
		C367.295,552.612,430.355,565.732,493.635,578.892z M472.195,132.732c1.1-21.59,2.22-43.18,3.41-66.41
		c-11.08,9.56-20.62,18.47-30.9,26.42c-6.23,4.81-8.56,10.2-7.79,17.79c0.39,3.9-0.55,7.94-0.75,11.92
		c-1.36,28.25-2.67,56.51-4.02,84.76c-1.33,27.92-2.74,55.83-4,83.75c-1.13,25.27-2.1,50.54-3.16,75.81
		c-0.33,7.82-0.74,15.63-1.11,23.45c-0.95,19.92-2.19,39.85-2.63,59.78c-0.11,5.04,1.92,10.3,3.81,15.13
		c0.79,2.04,3.51,3.89,5.76,4.7c5.97,2.13,13.91-1,17.89-6.57c6.16-8.63,8.45-18.65,9.19-28.9c1.32-18.41,2.1-36.87,3.01-55.31
		c1.39-28.42,2.7-56.83,4.05-85.25c0.98-20.77,2.04-41.54,2.95-62.32c1.11-25.1,2.09-50.21,3.15-75.32
		C471.385,148.352,471.795,140.542,472.195,132.732z M422.555,322.042c0.05-1.26-0.83-2.82-1.74-3.82
		c-7.47-8.25-15-16.43-22.6-24.56c-14.87-15.89-29.78-31.74-44.7-47.59c-21.76-23.1-43.54-46.19-65.35-69.26
		c-9.36-9.9-18.88-19.66-28.23-29.58c-20.53-21.77-40.96-43.63-61.56-65.33c-1.44-1.51-3.88-2.67-5.95-2.85
		c-8.8-0.78-17.64-1.13-26.9-1.66c11.75,13.16,23.18,26.06,34.72,38.86c11.25,12.46,22.67,24.76,33.91,37.22
		c20.34,22.53,40.58,45.14,60.9,67.68c13.45,14.92,26.99,29.76,40.42,44.7c16.76,18.62,32.82,37.94,50.43,55.73
		c10.11,10.23,22.69,18.02,35.22,27.73C421.685,339.282,422.245,330.672,422.555,322.042z M419.835,364.062
		c0.48-0.23,0.97-0.46,1.46-0.69c-0.44-3.32,0.35-7.92-1.54-9.73c-5.41-5.21-11.9-9.3-17.97-13.83c-0.27,0.29-0.54,0.57-0.81,0.86
		C407.265,348.472,413.545,356.262,419.835,364.062z M307.155,514.682c14.19-1.29,28.84-2.64,44.13-4.04
		c-79.48-133.29-158.51-265.84-237.91-399c-4.5,11.23-8.79,21.61-12.73,32.13c-0.65,1.74-0.25,4.28,0.51,6.1
		c6.64,15.87,13.47,31.67,20.24,47.49c35.55,83.01,71.1,166.02,106.66,249.02c3.95,9.22,7.95,18.42,11.91,27.59
		c6.55-2.19,12.43-4.32,18.41-6.14c9.86-3,19.48-1.89,27.06,5.05c5.59,5.13,10.64,11.43,14.07,18.16
		C303.165,498.242,304.635,506.552,307.155,514.682z M288.925,558.922c15.81-19.12,16.89-50.68,3.95-71.88
		c-6.32-10.37-15.19-17.03-29.28-16.07c37.01,14.21,41.64,76.79,6.44,98.46C278.305,567.972,284.465,564.302,288.925,558.922z
		 M277.465,557.662c15.24-17.16,16.34-51.47,2.23-69.5c-14.56-18.6-36.47-17.82-49.61,1.7c-6.41,9.53-8.69,20.19-9.16,31.2
		c0.32,12.23,3.1,23.39,10.02,33.46C242.635,571.562,263.775,573.082,277.465,557.662z M219.625,53.752
		c7.29-3.56,6.07-9.53,5.06-15.59c-0.22-1.31-0.24-2.7-0.72-3.9c-0.66-1.66-1.42-4.28-2.6-4.56c-3.29-0.77-7.28-1.66-10.13-0.45
		c-3.63,1.53-6.34,5.15-9.56,7.72c-2.18,1.75-3.11,3.53-2.13,6.43c0.83,2.46,2.08,5.76,1.11,7.65c-2.94,5.72-6.7,11.05-10.48,16.29
		c-1.6,2.2-4.05,3.79-7,6.48c3.9,0.43,6.37,1.06,8.78,0.87c2.43-0.19,5.17-0.65,7.11-1.97c3.64-2.45,6.8-5.6,10.9-9.1
		c0-0.81-0.2-2.99,0.08-5.12c0.14-1,1.19-1.89,1.83-2.83c0.73,0.9,1.85,1.69,2.14,2.71c0.85,3.02,1.05,6.24,2.08,9.18
		c2.71,7.73,3.19,15.33-0.04,23.03c-0.45,1.07-0.24,2.41-0.34,3.63c0.67,0.1,1.35,0.2,2.02,0.3c0.82-4.72,2.38-9.45,2.27-14.14
		c-0.14-5.38-1.87-10.7-2.72-16.08C216.695,60.522,214.845,56.082,219.625,53.752z M212.975,89.572c0-5.95,0.16-11.21-0.15-16.43
		c-0.06-0.87-2.13-2.26-3.33-2.32c-4.81-0.22-6.34,3.76-9.2,7.92C204.425,82.272,208.155,85.452,212.975,89.572z M126.045,90.262
		c7.39,0.66,11.6-3.21,16.44-7.77c-22.02-1.08-44.05-2.15-66.18-3.23c-0.26,3.4-0.47,6.14-0.72,9.54c2.91,0,5.54-0.07,8.16,0.01
		C97.855,89.192,112.015,89.002,126.045,90.262z M125.205,95.632c-0.14-0.32-0.28-0.64-0.42-0.97c-16.42-0.62-32.83-1.24-49.87-1.89
		c-0.99,9.9-1.99,19.4-2.84,28.92c-0.1,1.2,0.38,2.63,1.02,3.71c5.39,9.05,11.03,17.97,16.28,27.11c2.17,3.78,4.9,5.03,9.57,3.79
		c-1.02-2.47-2.23-4.67-2.79-7.03c-0.46-1.91-0.72-4.24-0.05-5.99c4.75-12.32,9.72-24.57,14.78-36.77c0.54-1.31,1.96-2.38,3.18-3.26
		C117.725,100.632,121.485,98.162,125.205,95.632z M116.785,205.972c0.41-1.83,1.77-4.19,1.09-5.4c-3.33-5.88-7.1-11.52-10.93-17.1
		c-3.48-5.09-7.24-10-11.43-15.75c3.38,0,5.52,0,7.86,0c-0.48-4.87-2.26-7.81-7.51-6.85c-4.33,0.79-7.04-1.07-9.3-4.76
		c-3.72-6.07-8.43-11.58-11.74-17.84c-3.79-7.16-9.01-13.75-7.04-23.23c2.12-10.18,1.59-20.91,3.78-31.06
		c3.25-15.01-2.77-26.96-10.45-38.7c1.96,5.12,4.12,10.2,6.86,14.95c3.35,5.82,4.04,11.77,2.37,18.16c-0.29,1.1-0.19,2.31-0.3,3.47
		c-1.05,11.23-2.05,22.46-3.2,33.68c-0.29,2.78-1.08,5.49-1.9,9.51c-11.51-16.74-22.2-32.22-32.76-47.78
		c-0.5-0.74-0.28-2.47,0.26-3.33c3.25-5.19,6.9-10.14,10-15.42c2.37-4.04,4.65-7.69,11.1-6.41c-2.23-6.6,1.43-8.75,5.4-11.03
		c11.22-6.43,11.89-8.35,8.07-20.69c-0.3-0.94-0.5-1.95-0.96-2.81c-1.29-2.42-0.07-7.06-5.28-6.07c-3.16,0.6-6.79,0.39-9.37,1.94
		c-3.77,2.28-6.66,5.96-10.16,8.76c-3.05,2.44-3.45,4.68-1.99,8.49c1.25,3.23,1.78,7.83,0.39,10.75
		c-2.6,5.41-6.84,10.03-10.39,14.99c-2.76,3.87-6.91,7.41-7.9,11.69c-1.35,5.81-4.09,9.89-8.57,13.23c0.58,2.23,1.11,4.26,1.65,6.34
		c5.69-2.81,8.64-3.4,13.07,2.91c8.76,12.48,17.79,24.78,26.75,37.12c1.05,1.46,2.26,2.85,3.61,4.03c1.99,1.74,4.7,2.88,6.18,4.94
		c16.13,22.27,32.05,44.69,48.16,66.97C113.095,204.902,115.225,205.222,116.785,205.972z M66.325,74.022
		c0.94-5.67-3.75-17.47-9.35-24.4c1.01,5.02-2.58,5.85-5.62,7.12c-1.01,0.42-2.57,0.32-3.08,1.03c-3.28,4.65-6.35,9.45-9.86,14.77
		C48.325,73.062,57.195,73.532,66.325,74.022z M64.675,88.422c0.46-3.64,0.83-6.53,1.27-9.97c-9.51-0.48-18.55-0.94-28.48-1.45
		c2.08,3.14,3.68,5.77,5.51,8.23c0.92,1.23,2.22,2.99,3.42,3.05C52.475,88.592,58.575,88.422,64.675,88.422z M64.295,93.162
		c-5.54,0-10.39,0-16.03,0c4.71,6.76,9.01,12.93,13.3,19.1c0.35-0.16,0.69-0.32,1.03-0.48
		C63.145,105.722,63.695,99.672,64.295,93.162z"/>
</g>
</svg>
