<?xml version="1.0" encoding="utf-8"?>
<!-- Generator: Adobe Illustrator 17.1.0, SVG Export Plug-In . SVG Version: 6.00 Build 0)  -->
<!DOCTYPE svg PUBLIC "-//W3C//DTD SVG 1.1//EN" "http://www.w3.org/Graphics/SVG/1.1/DTD/svg11.dtd">
<svg version="1.1" id="Layer_1" xmlns="http://www.w3.org/2000/svg" xmlns:xlink="http://www.w3.org/1999/xlink" x="0px" y="0px"
	 viewBox="0 0 120 100" enable-background="new 0 0 120 100" xml:space="preserve">
<g>
	<path fill="#00ccff" d="M18.6,55.7c1.2,0.3,1.9,0.6,2.6,0.6c8.4,0.9,14.4,5.3,18.7,11.8c5.6,8.5,8.9,17.9,10.4,27.9c0.1,0.7,0.1,1.6-0.2,2.2
		c-0.7,1.3-2.6,1.2-3.4-0.2c-0.5-0.8-0.6-1.8-0.8-2.7c-1.2-8.4-4-16.4-8.5-23.7c-2.4-4-5.3-7.5-9.7-9.8c-4.7-2.4-8.9-2.2-13.1,0.9
		c-1.3,0.9-1.5,2.2-1.5,3.5c0.3,5.8,0.5,11.7,0.9,17.5c0.1,2.2,0.6,4.3,1,6.5c0.3,1.8-0.2,2.8-1.3,3c-1.2,0.3-2.5-0.7-2.8-2.4
		c-0.7-5-1.4-9.9-1.9-14.9C8.7,72.1,9.5,68,8.3,64.2c-0.1-0.3,0-0.8,0-1.1c1.5-8,0.7-16,0-24C7.7,33.3,7,27.6,6,21.9
		c-1-5.6-2.6-11-4-16.6c-0.2-1-0.7-2-0.8-3C1.1,1.1,2,0.6,3.1,1c1.6,0.7,2.4,2,2.8,3.5C7.2,9,8.6,13.5,9.5,18
		c2.3,11.1,3.3,22.3,3.6,33.5c0,0.8,0.1,1.7,0.2,3c0.8-0.7,1.4-1,1.6-1.5c6-10.1,12-20.2,18-30.4c1.2-2,2.3-4,3.5-5.9
		c0.5-0.8,1.1-1.6,1.9-2.2c1-0.8,2.2-0.9,3.3,0c1.1,0.9,0.6,1.8,0.1,2.8c-7.1,11.6-14.1,23.2-21.2,34.8
		C19.8,53.2,19.4,54.3,18.6,55.7z"/>
	<path fill="#00ccff" d="M86,93.8c-0.4,0.1-0.5,0.1-0.6,0.1c-4.3,2.9-6,2.8-9.6-0.9c-3.2-3.2-5.7-6.9-7.1-11c-0.6-1.7-0.5-3.7-0.6-5.6
		c0-1,0.7-2,1.8-1.8c0.8,0.1,1.6,0.9,2.1,1.6c0.3,0.5,0.2,1.3,0.2,1.9c0.2,4.9,2.9,8.7,6.1,12.3c0.6,0.6,1.7,1.1,2.5,1
		c0.5-0.1,1.1-1.3,1.2-2c0.2-1.6,0.2-3.2,0.1-4.8c-0.1-2,0.4-2.9,1.8-3.1c1.5-0.2,2.7,0.7,3,2.5c0.1,0.7,0.1,1.5,0.2,2.3
		c0.5,3.3,2.2,6.1,5,8.1c2.5,1.7,5.2,1.1,6.3-1.7c0.8-2.1,1.1-4.4,1.4-6.6c0.4-3.6,0.1-7.2-1.1-10.6c-0.2-0.4-0.2-0.9-0.4-1.8
		c3.2,2.1,4.8,4.6,4.9,7.8c0.1,3.8,0,7.6-0.6,11.3c-0.9,5.4-6.7,7.7-11.6,5c-1-0.6-1.9-1.3-2.8-2.1C87.3,95,86.6,94.3,86,93.8z"/>
	<path fill="#00ccff" d="M64.6,92.2c0,0.5,0.1,1-0.1,1.4c-0.4,0.6-1,1.3-1.6,1.4c-0.6,0.1-1.5-0.4-1.9-1c-0.4-0.7-0.5-1.6-0.7-2.4
		c-1.1-5.3-2.1-10.5-3.2-15.8c-0.2-1.1-0.9-2.2,0.3-3.1c0.9-0.6,2.5,0.1,3.4,1.5c0.3,0.5,0.6,1,0.7,1.5c1.1,5.4,2.2,10.9,3.3,16.3
		C64.8,92.2,64.7,92.2,64.6,92.2z"/>
	<path fill="#00ccff" d="M118.8,95.9c-0.4,0.4-0.8,1.3-1.4,1.6c-1,0.4-1.7-0.3-2-1.2c-0.6-1.7-1.1-3.4-1.7-5.1c-1.6-4.1-3.2-8.1-4.8-12.2
		c-0.7-1.9-0.6-3,0.4-3.2c1.5-0.4,2.3,0.7,2.8,1.6c0.8,1.3,1.4,2.7,1.9,4.1c1.5,4.2,2.9,8.4,4.4,12.6
		C118.4,94.6,118.5,95.1,118.8,95.9z"/>
	<path fill="#00ccff" d="M107.7,66.8c-0.4,0.2-1,0.8-1.6,0.8c-1.1,0.1-2-0.5-2-1.6c0-0.5,0.7-1.3,1.3-1.5C106.4,64.2,107.6,65.3,107.7,66.8z"/>
	<path fill="#00ccff" d="M56.8,62.6c-1.1,0.6-1.7,1.2-2.3,1.2c-1,0.1-1.7-0.7-1.6-1.6c0.1-0.5,1-1.3,1.4-1.2C55.1,61.1,55.6,61.8,56.8,62.6z"/>
</g>
</svg>
