<?xml version="1.0" encoding="utf-8"?>
<!-- Generator: Adobe Illustrator 17.1.0, SVG Export Plug-In . SVG Version: 6.00 Build 0)  -->
<!DOCTYPE svg PUBLIC "-//W3C//DTD SVG 1.1//EN" "http://www.w3.org/Graphics/SVG/1.1/DTD/svg11.dtd">
<svg version="1.1" id="Layer_1" xmlns="http://www.w3.org/2000/svg" xmlns:xlink="http://www.w3.org/1999/xlink" x="0px" y="0px"
	 viewBox="0 0 280 100" enable-background="new 0 0 280 100" xml:space="preserve">
<g fill="#ff6600">
	<path d="M62.1,21.3c1.1-0.9,2-2,3.5-3.4c-2.4-1.9-3.8-0.7-5.2,0.2c-6.2,4.4-12.4,8.7-18.5,13.3c-7.3,5.6-14.7,11.3-21,18.8
		c-3.7,4.4-7.7,8.6-9.8,14.9c-1.6,4.7-0.5,7.4,3.3,6.8c4.1-0.6,8.2-1.4,12-3.2c11.9-5.6,23.1-13.1,33.4-22.8
		c6.9-6.5,14.3-12,20.4-20c0.6-0.8,1-1.7,1.5-2.6c-0.2-0.3-0.3-0.6-0.5-0.9c-1.5,0.8-3.2,1.4-4.6,2.4c-10.5,7.7-20.9,15.9-29.9,26.7
		c-1.4,1.6-2.9,3-4.5,4.3c-3.4,2.9-4.4,2.8-7.5-0.2c-2.2-2.1-2.3-5.7-0.2-8.1c1.8-2.1,3.6-4.1,5.4-6.1c1.5-1.7,2.9-3.6,4.5-5.1
		C50.3,31.3,56.2,26.3,62.1,21.3z M197.5,49.7c3.4-2.2,9.1,0,11,4.2c0.9,2,1.2,4-0.3,5.7c-1.9,2.2-4,4.3-6,6.4c6,6.8,6,6.8,3.6,15.7
		c1.5-0.6,2.8-0.8,3.8-1.6c5.7-4.7,11.4-9.4,17-14.5c2-1.8,3.5-4.7,5.1-7.2c2.2-3.2,4.2-6.8,6.7-9.6c2.8-3.2,8.9-2,11.2,2
		c0.6,1,0.7,2.6,0.8,3.9c0,1.5-0.3,3-0.6,5.1c2.4-0.6,4.4-1,6.4-1.5c4.5-1.3,9.1-2.7,13.6-4.1c2.9-0.9,7.8,2.6,8.8,6.3
		c0.6,2.3,0.6,4.4-0.8,6.3c-2.5,3.3-5,6.7-7.6,9.9c-1.6,2.1-3.6,2.1-5.4,0.3c-0.3-0.3-0.7-0.6-0.9-1.1c-2.6-6-6.3-4.4-10-2.4
		c-3.9,2.1-7.8,3.5-12,2.9c-1.1-0.2-2.2-0.2-3.1-0.8c-2.6-1.6-4.5-0.5-6.9,1.5c-8.4,7.2-16.5,15.2-26.1,19.7c-1.7,0.8-3.6,1-5.5,1.2
		c-3.1,0.3-5.3-1.7-7-5c-1-2-2.1-3.9-3.3-6.3c-3.5,1.8-6.4,3.5-9.4,4.9c-4.1,1.9-5.7,1.2-8.3-3.1c-4-6.6-4-6.6-10.2-3.3
		c-4.4,2.4-8.8,5.1-13.3,6.8c-4.6,1.7-9.3,2.6-14,3.6c-5,1-8.8-1.6-11.2-7.5c-0.4-1.1-0.9-2.1-1.4-3.2c-1.5-3.6-1.6-3.8-4.6-3.2
		c-7.2,1.4-14.4,3-21.7,4.3c-5.4,1-10,4.3-14.7,7.6c-2.8,2-5.7,3.8-8.7,5.1c-4.5,1.9-8.9-0.6-11.3-6c-2.3-5.2-1.1-9.7,3.4-11.3
		c4.1-1.5,8.3-2.6,12.4-3.9c3-1,5.7-2.6,8.4-6.7c-1.8,0-2.7-0.3-3.6,0c-8.1,2.8-16.1,5.7-24.1,8.8c-2.7,1-4.7-0.3-6.4-2.7
		c-1.2-1.6-2.1-3.6-3.3-5.7c-2.6,1.6-5.3,3-7.9,4.6c-7.4,4.6-15,8.1-23.3,8c-3.6,0-7.2-0.6-10.3-3.3c-6.1-5.5-7.7-15.6-4-24.1
		c1.6-3.8,3.5-7.4,6.4-9.9c1.1-0.9,1.9-2.5,2.8-3.7c1.3-1.7,2.5-3.7,4-5c8.3-7.4,16.5-15.2,25.3-21.7c5.3-3.9,10.6-7.9,15.9-11.8
		c0.7-0.5,1.4-0.9,2.1-1.4c6.4-4.4,12.4-2.9,17.6,3.2c1.5,1.8,2.8,2.2,4.6,1.5c1.5-0.6,3.1-1,4.7-1.4c4.1-1,7,1.7,9.2,5.7
		c2,3.7,1.7,8-0.1,11.8c-1.3,2.8-2.8,5.6-4.6,7.8c-3.8,4.5-7.9,8.8-12,12.9c-5.7,5.7-11.6,11-17.4,16.5c-0.3,0.3-0.4,0.8-0.7,1.6
		c0.7,0.1,1.2,0.4,1.6,0.3c9.6-2.7,19.3-4.9,28.3-10.6c1.7-1,3.2-2.4,4.7-3.9c3.5-3.6,7.1-6.6,11.3-8.6c3.8-1.8,7.1-0.1,10.2,2.2
		c1.6,1.1,2,3.1,1.3,5.4c-0.9,3.1-2.1,5.5-4.6,6.7c-2.1,1-4.1,2.6-6.2,3.7c-3.6,1.9-5.2,5.8-6.3,10.2c-0.7,2.5,0.1,3.9,2,3.6
		c13.3-2.1,26.2-6.1,38.1-14.3c6.5-4.4,12.6-9.7,19-14.3c3.4-2.5,7.2-3.7,11.1-1.7c0.9,0.4,1.7,0.9,2.5,1.6c2.6,2.3,2.9,4.3,1.5,8
		c-1,2.7-2.8,4-4.8,5.2c-8.4,4.9-16.7,9.7-25,14.9c-3.8,2.4-7,6-10,10.5c2.1,1.4,4,0.9,5.7,0.1c6.8-3.1,13.5-6.3,20.2-9.7
		c5.7-2.9,11.4-5.9,17-8.9c1.6-0.9,3.1-2,4.6-3C187.4,56.7,192.4,53.1,197.5,49.7z"/>
</g>
</svg>
