<?xml version="1.0" encoding="utf-8"?>
<!-- Generator: Adobe Illustrator 18.1.1, SVG Export Plug-In . SVG Version: 6.00 Build 0)  -->
<svg version="1.1" id="Layer_1" xmlns="http://www.w3.org/2000/svg" xmlns:xlink="http://www.w3.org/1999/xlink" x="0px" y="0px"
	 viewBox="0 0 800 600" enable-background="new 0 0 800 600" xml:space="preserve">
<g>
	
		<rect x="288.1" y="166.7" fill="#C74054" stroke="#4F4130" stroke-width="3.5962" stroke-linecap="round" stroke-linejoin="round" stroke-miterlimit="10" width="144.8" height="85.9"/>
	
		<rect x="297.4" y="176" fill="#FFFFFF" stroke="#4F4130" stroke-width="3.5962" stroke-linecap="round" stroke-linejoin="round" stroke-miterlimit="10" width="126.1" height="67.2"/>
	
		<rect x="288.1" y="252.6" fill="#FFFFFF" stroke="#4F4130" stroke-width="3.5962" stroke-linecap="round" stroke-linejoin="round" stroke-miterlimit="10" width="144.8" height="18.4"/>
	
		<rect x="342.8" y="270.9" fill="#C74054" stroke="#4F4130" stroke-width="3.5962" stroke-linecap="round" stroke-linejoin="round" stroke-miterlimit="10" width="35.3" height="13"/>
	
		<line fill="none" stroke="#4F4130" stroke-width="3.5962" stroke-linecap="round" stroke-linejoin="round" stroke-miterlimit="10" x1="327" y1="283.9" x2="394" y2="283.9"/>
</g>
<g>
	
		<rect x="45.5" y="328" fill="#547CA9" stroke="#4F4130" stroke-width="3.5962" stroke-linecap="round" stroke-linejoin="round" stroke-miterlimit="10" width="144.8" height="85.9"/>
	
		<rect x="54.8" y="337.3" fill="#FFFFFF" stroke="#4F4130" stroke-width="3.5962" stroke-linecap="round" stroke-linejoin="round" stroke-miterlimit="10" width="126.1" height="67.2"/>
	
		<rect x="45.5" y="413.9" fill="#FFFFFF" stroke="#4F4130" stroke-width="3.5962" stroke-linecap="round" stroke-linejoin="round" stroke-miterlimit="10" width="144.8" height="18.4"/>
	
		<rect x="100.2" y="432.2" fill="#547CA9" stroke="#4F4130" stroke-width="3.5962" stroke-linecap="round" stroke-linejoin="round" stroke-miterlimit="10" width="35.3" height="13"/>
	
		<line fill="none" stroke="#4F4130" stroke-width="3.5962" stroke-linecap="round" stroke-linejoin="round" stroke-miterlimit="10" x1="84.4" y1="445.2" x2="151.4" y2="445.2"/>
</g>
<g>
	
		<rect x="609.7" y="332.5" fill="#A0BC6A" stroke="#4F4130" stroke-width="3.5962" stroke-linecap="round" stroke-linejoin="round" stroke-miterlimit="10" width="144.8" height="85.9"/>
	
		<rect x="619.1" y="341.9" fill="#FFFFFF" stroke="#4F4130" stroke-width="3.5962" stroke-linecap="round" stroke-linejoin="round" stroke-miterlimit="10" width="126.1" height="67.2"/>
	
		<rect x="609.7" y="418.4" fill="#FFFFFF" stroke="#4F4130" stroke-width="3.5962" stroke-linecap="round" stroke-linejoin="round" stroke-miterlimit="10" width="144.8" height="18.4"/>
	
		<rect x="664.5" y="436.8" fill="#A0BC6A" stroke="#4F4130" stroke-width="3.5962" stroke-linecap="round" stroke-linejoin="round" stroke-miterlimit="10" width="35.3" height="13"/>
	
		<line fill="none" stroke="#4F4130" stroke-width="3.5962" stroke-linecap="round" stroke-linejoin="round" stroke-miterlimit="10" x1="648.6" y1="449.8" x2="715.6" y2="449.8"/>
</g>
<g>
	
		<path fill="#FFFFFF" stroke="#4F4130" stroke-width="3.5962" stroke-linecap="round" stroke-linejoin="round" stroke-miterlimit="10" d="
		M185.8,151.6l0.2,0.1c11.6,2.9,23.6,2.9,35.2,0l0.2-0.1c3.3-0.8,5.7-3.8,5.7-7.2V86.7c0-3.3-2.2-6.2-5.3-7.1l-0.2-0.1
		c-11.7-3.5-24.1-3.5-35.8,0l-0.2,0.1c-3.2,0.9-5.3,3.8-5.3,7.1v57.7C180.1,147.9,182.4,150.8,185.8,151.6z"/>
	
		<rect x="187" y="86.4" fill="#C74054" stroke="#4F4130" stroke-width="3.5962" stroke-linecap="round" stroke-linejoin="round" stroke-miterlimit="10" width="33.2" height="48.6"/>
	
		<path fill="#C74054" stroke="#4F4130" stroke-width="3.5962" stroke-linecap="round" stroke-linejoin="round" stroke-miterlimit="10" d="
		M198,140.3h11.1v6.7l-0.1,0c-3.5,1.3-7.4,1.3-11,0l-0.1,0V140.3z"/>
	
		<polygon fill="#C74054" stroke="#4F4130" stroke-width="3.5962" stroke-linecap="round" stroke-linejoin="round" stroke-miterlimit="10" points="
		209.1,140.3 220.2,140.3 220.2,145.5 209.1,147 	"/>
	
		<polygon fill="#C74054" stroke="#4F4130" stroke-width="3.5962" stroke-linecap="round" stroke-linejoin="round" stroke-miterlimit="10" points="
		187,140.3 198,140.3 198,147 187,145.5 	"/>
</g>
<g>
	
		<rect x="240.7" y="236" fill="#8D5091" stroke="#4F4130" stroke-width="3.5962" stroke-linecap="round" stroke-linejoin="round" stroke-miterlimit="10" width="37.4" height="65.5"/>
	
		<rect x="245.9" y="241.8" fill="#FFFFFF" stroke="#4F4130" stroke-width="3.5962" stroke-linecap="round" stroke-linejoin="round" stroke-miterlimit="10" width="27" height="47.6"/>
	
		<rect x="258.4" y="294.1" fill="none" stroke="#4F4130" stroke-width="3.5962" stroke-linecap="round" stroke-linejoin="round" stroke-miterlimit="10" width="1.9" height="1.9"/>
</g>
<g>
	
		<rect x="446.9" y="47.2" fill="#C74054" stroke="#4F4130" stroke-width="3.5962" stroke-linecap="round" stroke-linejoin="round" stroke-miterlimit="10" width="37.4" height="65.5"/>
	
		<rect x="452.1" y="59.2" fill="#FFFFFF" stroke="#4F4130" stroke-width="3.5962" stroke-linecap="round" stroke-linejoin="round" stroke-miterlimit="10" width="27" height="47.6"/>
	
		<rect x="464.6" y="52.6" fill="none" stroke="#4F4130" stroke-width="3.5962" stroke-linecap="round" stroke-linejoin="round" stroke-miterlimit="10" width="1.9" height="1.9"/>
</g>
<g>
	
		<path fill="#FFFFFF" stroke="#4F4130" stroke-width="3.5962" stroke-linecap="round" stroke-linejoin="round" stroke-miterlimit="10" d="
		M105.3,260.5H130c3.5,0,6.3-2.8,6.3-6.3v-51.7c0-3.5-2.8-6.3-6.3-6.3h-24.7c-3.5,0-6.3,2.8-6.3,6.3v51.7
		C98.9,257.6,101.8,260.5,105.3,260.5z"/>
	
		<rect x="104.4" y="208.7" fill="#8BB4D2" stroke="#4F4130" stroke-width="3.5962" stroke-linecap="round" stroke-linejoin="round" stroke-miterlimit="10" width="26.5" height="39.1"/>
	
		<circle fill="none" stroke="#4F4130" stroke-width="3.5962" stroke-linecap="round" stroke-linejoin="round" stroke-miterlimit="10" cx="117.6" cy="254.2" r="1.1"/>
	
		<line fill="#FFFFFF" stroke="#4F4130" stroke-width="3.5962" stroke-linecap="round" stroke-linejoin="round" stroke-miterlimit="10" x1="122.5" y1="202.4" x2="112.8" y2="202.4"/>
</g>
<g>
	
		<path fill="#A0BC6A" stroke="#4F4130" stroke-width="3.5962" stroke-linecap="round" stroke-linejoin="round" stroke-miterlimit="10" d="
		M442.9,191v45.5c0,3.5,2.8,6.3,6.3,6.3h70.4c3.5,0,6.3-2.8,6.3-6.3V191c0-3.5-2.8-6.3-6.3-6.3h-70.4
		C445.8,184.7,442.9,187.5,442.9,191z"/>
	
		<rect x="455.5" y="190.1" fill="#FFFFFF" stroke="#4F4130" stroke-width="3.5962" stroke-linecap="round" stroke-linejoin="round" stroke-miterlimit="10" width="57.8" height="47.3"/>
	
		<circle fill="none" stroke="#4F4130" stroke-width="3.5962" stroke-linecap="round" stroke-linejoin="round" stroke-miterlimit="10" cx="449.2" cy="213.8" r="1.1"/>
	
		<line fill="#FFFFFF" stroke="#4F4130" stroke-width="3.5962" stroke-linecap="round" stroke-linejoin="round" stroke-miterlimit="10" x1="519.7" y1="218.6" x2="519.7" y2="208.9"/>
</g>
<g>
	
		<path fill="#FFFFFF" stroke="#4F4130" stroke-width="3.5962" stroke-linecap="round" stroke-linejoin="round" stroke-miterlimit="10" d="
		M536.7,476v63.5c0,4.9,4,8.9,8.9,8.9h94.8c4.9,0,8.9-4,8.9-8.9V476c0-4.9-4-8.9-8.9-8.9h-94.8C540.7,467.1,536.7,471.1,536.7,476z"
		/>
	
		<rect x="554.3" y="474.7" fill="#8D5091" stroke="#4F4130" stroke-width="3.5962" stroke-linecap="round" stroke-linejoin="round" stroke-miterlimit="10" width="77.3" height="66"/>
	
		<circle fill="none" stroke="#4F4130" stroke-width="3.5962" stroke-linecap="round" stroke-linejoin="round" stroke-miterlimit="10" cx="545.5" cy="507.7" r="1.5"/>
	
		<line fill="#FFFFFF" stroke="#4F4130" stroke-width="3.5962" stroke-linecap="round" stroke-linejoin="round" stroke-miterlimit="10" x1="640.4" y1="514.5" x2="640.4" y2="501"/>
</g>
<g>
	
		<path fill="#FFFFFF" stroke="#4F4130" stroke-width="3.5962" stroke-linecap="round" stroke-linejoin="round" stroke-miterlimit="10" d="
		M304.1,399.9h63.5c4.9,0,8.9-4,8.9-8.9v-84.5c0-4.9-4-8.9-8.9-8.9h-63.5c-4.9,0-8.9,4-8.9,8.9V391
		C295.2,395.9,299.2,399.9,304.1,399.9z"/>
	
		<rect x="302.9" y="315.2" fill="#547CA9" stroke="#4F4130" stroke-width="3.5962" stroke-linecap="round" stroke-linejoin="round" stroke-miterlimit="10" width="66" height="67.1"/>
	
		<circle fill="none" stroke="#4F4130" stroke-width="3.5962" stroke-linecap="round" stroke-linejoin="round" stroke-miterlimit="10" cx="335.9" cy="391.1" r="1.5"/>
	
		<line fill="#FFFFFF" stroke="#4F4130" stroke-width="3.5962" stroke-linecap="round" stroke-linejoin="round" stroke-miterlimit="10" x1="342.6" y1="306.4" x2="329.1" y2="306.4"/>
</g>
<g>
	
		<path fill="#E5A770" stroke="#4F4130" stroke-width="3.5962" stroke-linecap="round" stroke-linejoin="round" stroke-miterlimit="10" d="
		M370.2,150.5l-0.2,0.1c-9.4,6.7-22,6.7-31.5,0l-0.2-0.1v-40.6l0.2-0.1c9.4-6.7,22-6.7,31.5,0l0.2,0.1V150.5z"/>
	
		<rect x="344" y="113.9" fill="#FFFFFF" stroke="#4F4130" stroke-width="3.5962" stroke-linecap="round" stroke-linejoin="round" stroke-miterlimit="10" width="20.5" height="30.1"/>
	
		<line fill="none" stroke="#4F4130" stroke-width="3.5962" stroke-linecap="round" stroke-linejoin="round" stroke-miterlimit="10" x1="355.7" y1="150.1" x2="352.8" y2="150.1"/>
</g>
<g>
	
		<path fill="#FFFFFF" stroke="#4F4130" stroke-width="3.5962" stroke-linecap="round" stroke-linejoin="round" stroke-miterlimit="10" d="
		M423.4,153.9h-22.2c-3.2,0-5.9-2.6-5.9-5.9v-44.2c0-3.2,2.6-5.9,5.9-5.9h22.2c3.2,0,5.9,2.6,5.9,5.9V148
		C429.2,151.2,426.6,153.9,423.4,153.9z"/>
	
		<rect x="395.3" y="103.5" fill="#FFFFFF" stroke="#4F4130" stroke-width="3.5962" stroke-linecap="round" stroke-linejoin="round" stroke-miterlimit="10" width="33.9" height="41.8"/>
</g>
<g>
	
		<path fill="#FFFFFF" stroke="#4F4130" stroke-width="3.5962" stroke-linecap="round" stroke-linejoin="round" stroke-miterlimit="10" d="
		M416.7,353.6h-10.9c-6.4,0-11.5-5.2-11.5-11.5v-32.9c0-6.4,5.2-11.5,11.5-11.5h10.9c6.4,0,11.5,5.2,11.5,11.5V342
		C428.2,348.4,423.1,353.6,416.7,353.6z"/>
	
		<path fill="#547CA9" stroke="#4F4130" stroke-width="3.5962" stroke-linecap="round" stroke-linejoin="round" stroke-miterlimit="10" d="
		M422.6,345h-22.6c-3.1,0-5.7-2.5-5.7-5.7v-30.5c0-3.1,2.5-5.7,5.7-5.7h22.6c3.1,0,5.7,2.5,5.7,5.7v30.5
		C428.2,342.4,425.7,345,422.6,345z"/>
</g>
<g>
	
		<path fill="#FFFFFF" stroke="#4F4130" stroke-width="3.5962" stroke-linecap="round" stroke-linejoin="round" stroke-miterlimit="10" d="
		M274.9,218.3h-34.6c-1.7,0-3.1-1.4-3.1-3.1V157c0-1.7,1.4-3.1,3.1-3.1h34.6c1.7,0,3.1,1.4,3.1,3.1v58.2
		C278.1,216.9,276.7,218.3,274.9,218.3z"/>
	<circle fill="#4F4130" stroke="#4F4130" stroke-width="0.7992" stroke-miterlimit="10" cx="257.6" cy="211.5" r="3.1"/>
	
		<path fill="#C74054" stroke="#4F4130" stroke-width="3.5962" stroke-linecap="round" stroke-linejoin="round" stroke-miterlimit="10" d="
		M268.9,205.1h-22.4c-2.3,0-4.1-1.8-4.1-4.1v-37.9c0-2.3,1.8-4.1,4.1-4.1h22.4c2.3,0,4.1,1.8,4.1,4.1V201
		C273,203.3,271.1,205.1,268.9,205.1z"/>
</g>
<g>
	
		<path fill="#FFFFFF" stroke="#4F4130" stroke-width="3.5962" stroke-linecap="round" stroke-linejoin="round" stroke-miterlimit="10" d="
		M455.4,130.8l-0.1,0.2c-2.9,11.6-2.9,23.6,0,35.2l0.1,0.2c0.8,3.3,3.8,5.7,7.2,5.7h53.6c3.3,0,6.2-2.2,7.1-5.3l0.1-0.2
		c3.5-11.7,3.5-24.1,0-35.8l-0.1-0.2c-0.9-3.2-3.8-5.3-7.1-5.3h-53.6C459.2,125.2,456.2,127.5,455.4,130.8z"/>
	
		<rect x="472" y="132" fill="#C74054" stroke="#4F4130" stroke-width="3.5962" stroke-linecap="round" stroke-linejoin="round" stroke-miterlimit="10" width="44.5" height="33.2"/>
	
		<path fill="#C74054" stroke="#4F4130" stroke-width="3.5962" stroke-linecap="round" stroke-linejoin="round" stroke-miterlimit="10" d="
		M466.7,143.1v11.1H460l0-0.1c-1.3-3.5-1.3-7.4,0-11l0-0.1H466.7z"/>
	
		<polygon fill="#C74054" stroke="#4F4130" stroke-width="3.5962" stroke-linecap="round" stroke-linejoin="round" stroke-miterlimit="10" points="
		466.7,154.2 466.7,165.3 461.6,165.3 460,154.2 	"/>
	
		<polygon fill="#C74054" stroke="#4F4130" stroke-width="3.5962" stroke-linecap="round" stroke-linejoin="round" stroke-miterlimit="10" points="
		466.7,132 466.7,143.1 460,143.1 461.6,132 	"/>
</g>
<g>
	
		<path fill="#FFFFFF" stroke="#4F4130" stroke-width="3.5962" stroke-linecap="round" stroke-linejoin="round" stroke-miterlimit="10" d="
		M237.2,104.1v24.7c0,3.5,2.8,6.3,6.3,6.3h53.4c3.5,0,6.3-2.8,6.3-6.3v-24.7c0-3.5-2.8-6.3-6.3-6.3h-53.4
		C240,97.8,237.2,100.6,237.2,104.1z"/>
	
		<rect x="249.8" y="103.3" fill="#FFFFFF" stroke="#4F4130" stroke-width="3.5962" stroke-linecap="round" stroke-linejoin="round" stroke-miterlimit="10" width="40.9" height="26.5"/>
	
		<circle fill="none" stroke="#4F4130" stroke-width="3.5962" stroke-linecap="round" stroke-linejoin="round" stroke-miterlimit="10" cx="243.5" cy="116.5" r="1.1"/>
	
		<line fill="#FFFFFF" stroke="#4F4130" stroke-width="3.5962" stroke-linecap="round" stroke-linejoin="round" stroke-miterlimit="10" x1="296.9" y1="121.4" x2="296.9" y2="111.7"/>
</g>
<g>
	
		<path fill="#FFFFFF" stroke="#4F4130" stroke-width="3.5962" stroke-linecap="round" stroke-linejoin="round" stroke-miterlimit="10" d="
		M449.4,317.3h24.7c3.5,0,6.3-2.8,6.3-6.3v-51.7c0-3.5-2.8-6.3-6.3-6.3h-24.7c-3.5,0-6.3,2.8-6.3,6.3V311
		C443,314.5,445.9,317.3,449.4,317.3z"/>
	
		<rect x="448.5" y="265.6" fill="#A0BC6A" stroke="#4F4130" stroke-width="3.5962" stroke-linecap="round" stroke-linejoin="round" stroke-miterlimit="10" width="26.5" height="39.1"/>
	
		<circle fill="none" stroke="#4F4130" stroke-width="3.5962" stroke-linecap="round" stroke-linejoin="round" stroke-miterlimit="10" cx="461.7" cy="311.1" r="1.1"/>
	
		<line fill="#FFFFFF" stroke="#4F4130" stroke-width="3.5962" stroke-linecap="round" stroke-linejoin="round" stroke-miterlimit="10" x1="466.6" y1="259.3" x2="456.9" y2="259.3"/>
</g>
<g>
	
		<path fill="#E5A770" stroke="#4F4130" stroke-width="3.5962" stroke-linecap="round" stroke-linejoin="round" stroke-miterlimit="10" d="
		M178.6,203.2l-0.1-0.2c-6.7-9.4-6.7-22,0-31.5l0.1-0.2h40.6l0.1,0.2c6.7,9.4,6.7,22,0,31.5l-0.1,0.2H178.6z"/>
	
		<rect x="185.2" y="177.1" fill="#FFFFFF" stroke="#4F4130" stroke-width="3.5962" stroke-linecap="round" stroke-linejoin="round" stroke-miterlimit="10" width="30.1" height="20.5"/>
	
		<line fill="none" stroke="#4F4130" stroke-width="3.5962" stroke-linecap="round" stroke-linejoin="round" stroke-miterlimit="10" x1="179" y1="188.8" x2="179" y2="185.9"/>
</g>
<g>
	
		<path fill="#BEB1A5" stroke="#4F4130" stroke-width="3.5962" stroke-linecap="round" stroke-linejoin="round" stroke-miterlimit="10" d="
		M160.8,249v-22.2c0-3.2,2.6-5.9,5.9-5.9h44.2c3.2,0,5.9,2.6,5.9,5.9V249c0,3.2-2.6,5.9-5.9,5.9h-44.2
		C163.4,254.9,160.8,252.3,160.8,249z"/>
	
		<rect x="169.4" y="221" fill="#FFFFFF" stroke="#4F4130" stroke-width="3.5962" stroke-linecap="round" stroke-linejoin="round" stroke-miterlimit="10" width="41.8" height="33.9"/>
</g>
<g>
	
		<path fill="#A0BC6A" stroke="#4F4130" stroke-width="3.5962" stroke-linecap="round" stroke-linejoin="round" stroke-miterlimit="10" d="
		M98,166.4v-34.6c0-1.7,1.4-3.1,3.1-3.1h58.2c1.7,0,3.1,1.4,3.1,3.1v34.6c0,1.7-1.4,3.1-3.1,3.1h-58.2C99.4,169.5,98,168.1,98,166.4
		z"/>
	<circle fill="#4F4130" stroke="#4F4130" stroke-width="0.7992" stroke-miterlimit="10" cx="104.8" cy="149" r="3.1"/>
	
		<path fill="#FFFFFF" stroke="#4F4130" stroke-width="3.5962" stroke-linecap="round" stroke-linejoin="round" stroke-miterlimit="10" d="
		M111.2,160.3v-22.4c0-2.3,1.8-4.1,4.1-4.1h37.9c2.3,0,4.1,1.8,4.1,4.1v22.4c0,2.3-1.8,4.1-4.1,4.1h-37.9
		C113,164.4,111.2,162.5,111.2,160.3z"/>
</g>
<g>
	
		<path fill="#FFFFFF" stroke="#4F4130" stroke-width="3.5962" stroke-linecap="round" stroke-linejoin="round" stroke-miterlimit="10" d="
		M177.8,536.3l0.2,0.1c11.6,2.9,23.6,2.9,35.2,0l0.2-0.1c3.3-0.8,5.7-3.8,5.7-7.2v-57.7c0-3.3-2.2-6.2-5.3-7.1l-0.2-0.1
		c-11.7-3.5-24.1-3.5-35.8,0l-0.2,0.1c-3.2,0.9-5.3,3.8-5.3,7.1v57.7C172.1,532.5,174.4,535.5,177.8,536.3z"/>
	
		<rect x="179" y="471" fill="#8D5091" stroke="#4F4130" stroke-width="3.5962" stroke-linecap="round" stroke-linejoin="round" stroke-miterlimit="10" width="33.2" height="48.6"/>
	
		<path fill="#BEB1A5" stroke="#4F4130" stroke-width="3.5962" stroke-linecap="round" stroke-linejoin="round" stroke-miterlimit="10" d="
		M190.1,524.9h11.1v6.7l-0.1,0c-3.5,1.3-7.4,1.3-11,0l-0.1,0V524.9z"/>
	
		<polygon fill="#BEB1A5" stroke="#4F4130" stroke-width="3.5962" stroke-linecap="round" stroke-linejoin="round" stroke-miterlimit="10" points="
		201.1,524.9 212.2,524.9 212.2,530.1 201.1,531.7 	"/>
	
		<polygon fill="#C6C6C6" stroke="#4F4130" stroke-width="3.5962" stroke-linecap="round" stroke-linejoin="round" stroke-miterlimit="10" points="
		179,524.9 190.1,524.9 190.1,531.7 179,530.1 	"/>
</g>
<g>
	
		<rect x="212.3" y="380.7" fill="#8D5091" stroke="#4F4130" stroke-width="3.5962" stroke-linecap="round" stroke-linejoin="round" stroke-miterlimit="10" width="44.2" height="63.4"/>
	
		<rect x="217.5" y="386.4" fill="#FFFFFF" stroke="#4F4130" stroke-width="3.5962" stroke-linecap="round" stroke-linejoin="round" stroke-miterlimit="10" width="33.9" height="45.6"/>
	
		<rect x="233.5" y="436.7" fill="none" stroke="#4F4130" stroke-width="3.5962" stroke-linecap="round" stroke-linejoin="round" stroke-miterlimit="10" width="1.9" height="1.9"/>
</g>
<g>
	
		<path fill="#FFFFFF" stroke="#4F4130" stroke-width="3.5962" stroke-linecap="round" stroke-linejoin="round" stroke-miterlimit="10" d="
		M136.8,500.3h13.9c3.2,0,5.8-2.6,5.8-5.8v-26.9c0-3.2-2.6-5.8-5.8-5.8h-13.9c-3.2,0-5.8,2.6-5.8,5.8v26.9
		C131.1,497.8,133.6,500.3,136.8,500.3z"/>
	
		<rect x="136.8" y="468.2" fill="#FFFFFF" stroke="#4F4130" stroke-width="3.5962" stroke-linecap="round" stroke-linejoin="round" stroke-miterlimit="10" width="14" height="21.2"/>
	
		<circle fill="none" stroke="#4F4130" stroke-width="3.5962" stroke-linecap="round" stroke-linejoin="round" stroke-miterlimit="10" cx="143.8" cy="494.7" r="0.8"/>
</g>
<g>
	
		<path fill="#FFFFFF" stroke="#4F4130" stroke-width="3.5962" stroke-linecap="round" stroke-linejoin="round" stroke-miterlimit="10" d="
		M502.8,299.9h13.9c3.2,0,5.8-2.6,5.8-5.8v-26.9c0-3.2-2.6-5.8-5.8-5.8h-13.9c-3.2,0-5.8,2.6-5.8,5.8v26.9
		C497.1,297.3,499.7,299.9,502.8,299.9z"/>
	
		<rect x="502.8" y="267.8" fill="#C74054" stroke="#4F4130" stroke-width="3.5962" stroke-linecap="round" stroke-linejoin="round" stroke-miterlimit="10" width="14" height="21.2"/>
	
		<circle fill="none" stroke="#4F4130" stroke-width="3.5962" stroke-linecap="round" stroke-linejoin="round" stroke-miterlimit="10" cx="509.8" cy="294.3" r="0.8"/>
</g>
<g>
	
		<path fill="#E5A770" stroke="#4F4130" stroke-width="3.5962" stroke-linecap="round" stroke-linejoin="round" stroke-miterlimit="10" d="
		M318.1,552.8h24.7c3.5,0,6.3-2.8,6.3-6.3v-51.7c0-3.5-2.8-6.3-6.3-6.3h-24.7c-3.5,0-6.3,2.8-6.3,6.3v51.7
		C311.8,550,314.6,552.8,318.1,552.8z"/>
	
		<rect x="317.2" y="501.1" fill="#FFFFFF" stroke="#4F4130" stroke-width="3.5962" stroke-linecap="round" stroke-linejoin="round" stroke-miterlimit="10" width="26.5" height="39.1"/>
	
		<circle fill="none" stroke="#4F4130" stroke-width="3.5962" stroke-linecap="round" stroke-linejoin="round" stroke-miterlimit="10" cx="330.5" cy="546.6" r="1.1"/>
	
		<line fill="#FFFFFF" stroke="#4F4130" stroke-width="3.5962" stroke-linecap="round" stroke-linejoin="round" stroke-miterlimit="10" x1="335.3" y1="494.8" x2="325.6" y2="494.8"/>
</g>
<g>
	
		<path fill="#FFFFFF" stroke="#4F4130" stroke-width="3.5962" stroke-linecap="round" stroke-linejoin="round" stroke-miterlimit="10" d="
		M392.7,530.1l-0.2,0.1c-9.4,6.7-22,6.7-31.5,0l-0.2-0.1v-40.6l0.2-0.1c9.4-6.7,22-6.7,31.5,0l0.2,0.1V530.1z"/>
	
		<rect x="366.5" y="493.5" fill="#8BB4D2" stroke="#4F4130" stroke-width="3.5962" stroke-linecap="round" stroke-linejoin="round" stroke-miterlimit="10" width="20.5" height="30.1"/>
	
		<line fill="none" stroke="#4F4130" stroke-width="3.5962" stroke-linecap="round" stroke-linejoin="round" stroke-miterlimit="10" x1="378.2" y1="529.7" x2="375.3" y2="529.7"/>
</g>
<g>
	
		<path fill="#FFFFFF" stroke="#4F4130" stroke-width="3.5962" stroke-linecap="round" stroke-linejoin="round" stroke-miterlimit="10" d="
		M430.9,519.6h-22.2c-3.2,0-5.9-2.6-5.9-5.9v-44.2c0-3.2,2.6-5.9,5.9-5.9h22.2c3.2,0,5.9,2.6,5.9,5.9v44.2
		C436.7,517,434.1,519.6,430.9,519.6z"/>
	
		<rect x="402.8" y="469.2" fill="#A0BC6A" stroke="#4F4130" stroke-width="3.5962" stroke-linecap="round" stroke-linejoin="round" stroke-miterlimit="10" width="33.9" height="41.8"/>
</g>
<g>
	
		<path fill="#FFFFFF" stroke="#4F4130" stroke-width="3.5962" stroke-linecap="round" stroke-linejoin="round" stroke-miterlimit="10" d="
		M448.6,503.2l-0.1,0.2c-2.9,11.6-2.9,23.6,0,35.2l0.1,0.2c0.8,3.3,3.8,5.7,7.2,5.7h53.6c3.3,0,6.2-2.2,7.1-5.3l0.1-0.2
		c3.5-11.7,3.5-24.1,0-35.8l-0.1-0.2c-0.9-3.2-3.8-5.3-7.1-5.3h-53.6C452.4,497.5,449.5,499.8,448.6,503.2z"/>
	
		<rect x="465.3" y="504.4" fill="#E5A770" stroke="#4F4130" stroke-width="3.5962" stroke-linecap="round" stroke-linejoin="round" stroke-miterlimit="10" width="44.5" height="33.2"/>
	
		<path fill="#E5A770" stroke="#4F4130" stroke-width="3.5962" stroke-linecap="round" stroke-linejoin="round" stroke-miterlimit="10" d="
		M460,515.5v11.1h-6.7l0-0.1c-1.3-3.5-1.3-7.4,0-11l0-0.1H460z"/>
	
		<polygon fill="#E5A770" stroke="#4F4130" stroke-width="3.5962" stroke-linecap="round" stroke-linejoin="round" stroke-miterlimit="10" points="
		460,526.5 460,537.6 454.8,537.6 453.3,526.5 	"/>
	
		<polygon fill="#E5A770" stroke="#4F4130" stroke-width="3.5962" stroke-linecap="round" stroke-linejoin="round" stroke-miterlimit="10" points="
		460,504.4 460,515.5 453.3,515.5 454.8,504.4 	"/>
</g>
<g>
	
		<path fill="#FFFFFF" stroke="#4F4130" stroke-width="3.5962" stroke-linecap="round" stroke-linejoin="round" stroke-miterlimit="10" d="
		M230.8,483.5v24.7c0,3.5,2.8,6.3,6.3,6.3h53.4c3.5,0,6.3-2.8,6.3-6.3v-24.7c0-3.5-2.8-6.3-6.3-6.3h-53.4
		C233.6,477.1,230.8,479.9,230.8,483.5z"/>
	
		<rect x="243.4" y="482.6" fill="#FFFFFF" stroke="#4F4130" stroke-width="3.5962" stroke-linecap="round" stroke-linejoin="round" stroke-miterlimit="10" width="40.9" height="26.5"/>
	
		<circle fill="none" stroke="#4F4130" stroke-width="3.5962" stroke-linecap="round" stroke-linejoin="round" stroke-miterlimit="10" cx="237.1" cy="495.8" r="1.1"/>
	
		<line fill="#FFFFFF" stroke="#4F4130" stroke-width="3.5962" stroke-linecap="round" stroke-linejoin="round" stroke-miterlimit="10" x1="290.6" y1="500.7" x2="290.6" y2="491"/>
</g>
<g>
	
		<path fill="#FFFFFF" stroke="#4F4130" stroke-width="3.5962" stroke-linecap="round" stroke-linejoin="round" stroke-miterlimit="10" d="
		M74.1,548.1v-34.6c0-1.7,1.4-3.1,3.1-3.1h58.2c1.7,0,3.1,1.4,3.1,3.1v34.6c0,1.7-1.4,3.1-3.1,3.1H77.2
		C75.5,551.2,74.1,549.8,74.1,548.1z"/>
	<circle fill="#4F4130" stroke="#4F4130" stroke-width="0.7992" stroke-miterlimit="10" cx="80.8" cy="530.7" r="3.1"/>
	
		<path fill="#547CA9" stroke="#4F4130" stroke-width="3.5962" stroke-linecap="round" stroke-linejoin="round" stroke-miterlimit="10" d="
		M87.2,542v-22.4c0-2.3,1.8-4.1,4.1-4.1h37.9c2.3,0,4.1,1.8,4.1,4.1V542c0,2.3-1.8,4.1-4.1,4.1H91.3C89,546.1,87.2,544.2,87.2,542z"
		/>
</g>
<g>
	
		<path fill="#FFFFFF" stroke="#4F4130" stroke-width="3.5962" stroke-linecap="round" stroke-linejoin="round" stroke-miterlimit="10" d="
		M539.7,448.5l0.2,0.1c11.6,2.9,23.6,2.9,35.2,0l0.2-0.1c3.3-0.8,5.7-3.8,5.7-7.2v-42.7c0-3.3-2.2-6.2-5.3-7.1l-0.2-0.1
		c-11.7-3.5-24.1-3.5-35.8,0l-0.2,0.1c-3.2,0.9-5.3,3.8-5.3,7.1v42.7C534,444.7,536.3,447.7,539.7,448.5z"/>
	
		<rect x="540.9" y="398.3" fill="#8BB4D2" stroke="#4F4130" stroke-width="3.5962" stroke-linecap="round" stroke-linejoin="round" stroke-miterlimit="10" width="33.2" height="33.6"/>
	
		<path fill="#8BB4D2" stroke="#4F4130" stroke-width="3.5962" stroke-linecap="round" stroke-linejoin="round" stroke-miterlimit="10" d="
		M557.4,437.1h0.1c3,0,5.5,2.5,5.5,5.5v1.2l-0.1,0c-3.5,1.3-7.4,1.3-11,0l-0.1,0v-1.2C551.9,439.6,554.4,437.1,557.4,437.1z"/>
	
		<path fill="#8BB4D2" stroke="#4F4130" stroke-width="3.5962" stroke-linecap="round" stroke-linejoin="round" stroke-miterlimit="10" d="
		M567.2,437.1h6.9v5.2l-11.1,1.6v-2.5C563,439,564.9,437.1,567.2,437.1z"/>
	
		<path fill="#8BB4D2" stroke="#4F4130" stroke-width="3.5962" stroke-linecap="round" stroke-linejoin="round" stroke-miterlimit="10" d="
		M540.9,437.1h6.9c2.3,0,4.2,1.9,4.2,4.2v2.5l-11.1-1.6V437.1z"/>
</g>
<g>
	
		<path fill="#E5A770" stroke="#4F4130" stroke-width="3.5962" stroke-linecap="round" stroke-linejoin="round" stroke-miterlimit="10" d="
		M561.2,370.7h24.7c3.5,0,6.3-2.8,6.3-6.3v-51.7c0-3.5-2.8-6.3-6.3-6.3h-24.7c-3.5,0-6.3,2.8-6.3,6.3v51.7
		C554.9,367.8,557.7,370.7,561.2,370.7z"/>
	
		<rect x="560.3" y="318.9" fill="#FFFFFF" stroke="#4F4130" stroke-width="3.5962" stroke-linecap="round" stroke-linejoin="round" stroke-miterlimit="10" width="26.5" height="39.1"/>
	
		<circle fill="none" stroke="#4F4130" stroke-width="3.5962" stroke-linecap="round" stroke-linejoin="round" stroke-miterlimit="10" cx="573.6" cy="364.4" r="1.1"/>
	
		<line fill="#FFFFFF" stroke="#4F4130" stroke-width="3.5962" stroke-linecap="round" stroke-linejoin="round" stroke-miterlimit="10" x1="578.4" y1="312.6" x2="568.7" y2="312.6"/>
</g>
<g>
	
		<path fill="#FFFFFF" stroke="#4F4130" stroke-width="3.5962" stroke-linecap="round" stroke-linejoin="round" stroke-miterlimit="10" d="
		M463.2,482.8h45.5c3.5,0,6.3-2.8,6.3-6.3v-63.5c0-3.5-2.8-6.3-6.3-6.3h-45.5c-3.5,0-6.3,2.8-6.3,6.3v63.5
		C456.8,479.9,459.7,482.8,463.2,482.8z"/>
	
		<rect x="462.3" y="419.2" fill="#FFFFFF" stroke="#4F4130" stroke-width="3.5962" stroke-linecap="round" stroke-linejoin="round" stroke-miterlimit="10" width="47.3" height="51"/>
	
		<circle fill="none" stroke="#4F4130" stroke-width="3.5962" stroke-linecap="round" stroke-linejoin="round" stroke-miterlimit="10" cx="485.9" cy="476.5" r="1.1"/>
	
		<line fill="#FFFFFF" stroke="#4F4130" stroke-width="3.5962" stroke-linecap="round" stroke-linejoin="round" stroke-miterlimit="10" x1="490.8" y1="412.9" x2="481.1" y2="412.9"/>
</g>
<g>
	
		<path fill="#FFFFFF" stroke="#4F4130" stroke-width="3.5962" stroke-linecap="round" stroke-linejoin="round" stroke-miterlimit="10" d="
		M531,370.5h-22.2c-3.2,0-5.9-2.6-5.9-5.9v-44.2c0-3.2,2.6-5.9,5.9-5.9H531c3.2,0,5.9,2.6,5.9,5.9v44.2
		C536.9,367.8,534.3,370.5,531,370.5z"/>
	
		<rect x="503" y="320.1" fill="#8D5091" stroke="#4F4130" stroke-width="3.5962" stroke-linecap="round" stroke-linejoin="round" stroke-miterlimit="10" width="33.9" height="41.8"/>
</g>
<g>
	
		<path fill="#C74054" stroke="#4F4130" stroke-width="3.5962" stroke-linecap="round" stroke-linejoin="round" stroke-miterlimit="10" d="
		M376.1,425.1v22.2c0,3.2-2.6,5.9-5.9,5.9H326c-3.2,0-5.9-2.6-5.9-5.9v-22.2c0-3.2,2.6-5.9,5.9-5.9h44.2
		C373.4,419.3,376.1,421.9,376.1,425.1z"/>
	
		<rect x="325.7" y="419.3" fill="#FFFFFF" stroke="#4F4130" stroke-width="3.5962" stroke-linecap="round" stroke-linejoin="round" stroke-miterlimit="10" width="41.8" height="33.9"/>
</g>
<g>
	
		<path fill="#A0BC6A" stroke="#4F4130" stroke-width="3.5962" stroke-linecap="round" stroke-linejoin="round" stroke-miterlimit="10" d="
		M123.1,282.8v24.7c0,3.5,2.8,6.3,6.3,6.3h60.2c3.5,0,6.3-2.8,6.3-6.3v-24.7c0-3.5-2.8-6.3-6.3-6.3h-60.2
		C125.9,276.5,123.1,279.3,123.1,282.8z"/>
	
		<rect x="135.7" y="281.9" fill="#FFFFFF" stroke="#4F4130" stroke-width="3.5962" stroke-linecap="round" stroke-linejoin="round" stroke-miterlimit="10" width="47.7" height="26.5"/>
	
		<circle fill="none" stroke="#4F4130" stroke-width="3.5962" stroke-linecap="round" stroke-linejoin="round" stroke-miterlimit="10" cx="129.3" cy="295.2" r="1.1"/>
	
		<line fill="#FFFFFF" stroke="#4F4130" stroke-width="3.5962" stroke-linecap="round" stroke-linejoin="round" stroke-miterlimit="10" x1="189.7" y1="300" x2="189.7" y2="290.3"/>
</g>
<g>
	
		<path fill="#8BB4D2" stroke="#4F4130" stroke-width="3.5962" stroke-linecap="round" stroke-linejoin="round" stroke-miterlimit="10" d="
		M669.4,523v-34.6c0-1.7,1.4-3.1,3.1-3.1h58.2c1.7,0,3.1,1.4,3.1,3.1V523c0,1.7-1.4,3.1-3.1,3.1h-58.2
		C670.8,526.1,669.4,524.7,669.4,523z"/>
	<circle fill="#4F4130" stroke="#4F4130" stroke-width="0.7992" stroke-miterlimit="10" cx="676.1" cy="505.7" r="3.1"/>
	
		<path fill="#FFFFFF" stroke="#4F4130" stroke-width="3.5962" stroke-linecap="round" stroke-linejoin="round" stroke-miterlimit="10" d="
		M682.5,516.9v-22.4c0-2.3,1.8-4.1,4.1-4.1h37.9c2.3,0,4.1,1.8,4.1,4.1v22.4c0,2.3-1.8,4.1-4.1,4.1h-37.9
		C684.3,521,682.5,519.2,682.5,516.9z"/>
</g>
<g>
	
		<path fill="#FFFFFF" stroke="#4F4130" stroke-width="3.5962" stroke-linecap="round" stroke-linejoin="round" stroke-miterlimit="10" d="
		M393.4,447.6l0.2,0.1c11.6,2.9,23.6,2.9,35.2,0l0.2-0.1c3.3-0.8,5.7-3.8,5.7-7.2v-57.7c0-3.3-2.2-6.2-5.3-7.1l-0.2-0.1
		c-11.7-3.5-24.1-3.5-35.8,0l-0.2,0.1c-3.2,0.9-5.3,3.8-5.3,7.1v57.7C387.8,443.8,390.1,446.8,393.4,447.6z"/>
	
		<rect x="394.6" y="382.3" fill="#C74054" stroke="#4F4130" stroke-width="3.5962" stroke-linecap="round" stroke-linejoin="round" stroke-miterlimit="10" width="33.2" height="48.6"/>
	
		<path fill="#C74054" stroke="#4F4130" stroke-width="3.5962" stroke-linecap="round" stroke-linejoin="round" stroke-miterlimit="10" d="
		M405.7,436.3h11.1v6.7l-0.1,0c-3.5,1.3-7.4,1.3-11,0l-0.1,0V436.3z"/>
	
		<polygon fill="#C74054" stroke="#4F4130" stroke-width="3.5962" stroke-linecap="round" stroke-linejoin="round" stroke-miterlimit="10" points="
		416.8,436.3 427.9,436.3 427.9,441.4 416.8,443 	"/>
	
		<polygon fill="#C74054" stroke="#4F4130" stroke-width="3.5962" stroke-linecap="round" stroke-linejoin="round" stroke-miterlimit="10" points="
		394.6,436.3 405.7,436.3 405.7,443 394.6,441.4 	"/>
</g>
<g>
	
		<rect x="446.9" y="327.9" fill="#8BB4D2" stroke="#4F4130" stroke-width="3.5962" stroke-linecap="round" stroke-linejoin="round" stroke-miterlimit="10" width="37.4" height="65.5"/>
	
		<rect x="452.1" y="333.7" fill="#FFFFFF" stroke="#4F4130" stroke-width="3.5962" stroke-linecap="round" stroke-linejoin="round" stroke-miterlimit="10" width="27" height="47.6"/>
	
		<rect x="464.6" y="386" fill="none" stroke="#4F4130" stroke-width="3.5962" stroke-linecap="round" stroke-linejoin="round" stroke-miterlimit="10" width="1.9" height="1.9"/>
</g>
<g>
	
		<path fill="#FFFFFF" stroke="#4F4130" stroke-width="3.5962" stroke-linecap="round" stroke-linejoin="round" stroke-miterlimit="10" d="
		M714.7,259.7h24.7c3.5,0,6.3-2.8,6.3-6.3v-51.7c0-3.5-2.8-6.3-6.3-6.3h-24.7c-3.5,0-6.3,2.8-6.3,6.3v51.7
		C708.4,256.9,711.2,259.7,714.7,259.7z"/>
	
		<rect x="713.8" y="208" fill="#FFFFFF" stroke="#4F4130" stroke-width="3.5962" stroke-linecap="round" stroke-linejoin="round" stroke-miterlimit="10" width="26.5" height="39.1"/>
	
		<circle fill="none" stroke="#4F4130" stroke-width="3.5962" stroke-linecap="round" stroke-linejoin="round" stroke-miterlimit="10" cx="727.1" cy="253.4" r="1.1"/>
	
		<line fill="#FFFFFF" stroke="#4F4130" stroke-width="3.5962" stroke-linecap="round" stroke-linejoin="round" stroke-miterlimit="10" x1="731.9" y1="201.7" x2="722.2" y2="201.7"/>
</g>
<g>
	
		<path fill="#8D5091" stroke="#4F4130" stroke-width="3.5962" stroke-linecap="round" stroke-linejoin="round" stroke-miterlimit="10" d="
		M620.4,284.6v-52.4c0-3.5-2.8-6.3-6.3-6.3h-70.4c-3.5,0-6.3,2.8-6.3,6.3v52.4c0,3.5,2.8,6.3,6.3,6.3h70.4
		C617.6,291,620.4,288.1,620.4,284.6z"/>
	
		<rect x="550" y="231.4" fill="#FFFFFF" stroke="#4F4130" stroke-width="3.5962" stroke-linecap="round" stroke-linejoin="round" stroke-miterlimit="10" width="57.8" height="54.1"/>
	
		<circle fill="none" stroke="#4F4130" stroke-width="3.5962" stroke-linecap="round" stroke-linejoin="round" stroke-miterlimit="10" cx="614.1" cy="258.4" r="1.1"/>
	
		<line fill="#FFFFFF" stroke="#4F4130" stroke-width="3.5962" stroke-linecap="round" stroke-linejoin="round" stroke-miterlimit="10" x1="543.7" y1="253.6" x2="543.7" y2="263.3"/>
</g>
<g>
	
		<path fill="#FFFFFF" stroke="#4F4130" stroke-width="3.5962" stroke-linecap="round" stroke-linejoin="round" stroke-miterlimit="10" d="
		M303.2,456.6l-0.2,0.1c-9.4,6.7-22,6.7-31.5,0l-0.2-0.1V416l0.2-0.1c9.4-6.7,22-6.7,31.5,0l0.2,0.1V456.6z"/>
	
		<rect x="277.1" y="419.9" fill="#E5A770" stroke="#4F4130" stroke-width="3.5962" stroke-linecap="round" stroke-linejoin="round" stroke-miterlimit="10" width="20.5" height="30.1"/>
	
		<line fill="none" stroke="#4F4130" stroke-width="3.5962" stroke-linecap="round" stroke-linejoin="round" stroke-miterlimit="10" x1="288.8" y1="456.1" x2="285.9" y2="456.1"/>
</g>
<g>
	
		<path fill="#FFFFFF" stroke="#4F4130" stroke-width="3.5962" stroke-linecap="round" stroke-linejoin="round" stroke-miterlimit="10" d="
		M670.5,317.3h-22.2c-3.2,0-5.9-2.6-5.9-5.9v-44.2c0-3.2,2.6-5.9,5.9-5.9h22.2c3.2,0,5.9,2.6,5.9,5.9v44.2
		C676.4,314.7,673.8,317.3,670.5,317.3z"/>
	
		<rect x="642.4" y="266.9" fill="#E5A770" stroke="#4F4130" stroke-width="3.5962" stroke-linecap="round" stroke-linejoin="round" stroke-miterlimit="10" width="33.9" height="41.8"/>
</g>
<g>
	
		<path fill="#A0BC6A" stroke="#4F4130" stroke-width="3.5962" stroke-linecap="round" stroke-linejoin="round" stroke-miterlimit="10" d="
		M634.2,170.8h-29.7c-4.3,0-7.8-3.5-7.8-7.8v-59.1c0-4.3,3.5-7.8,7.8-7.8h29.7c4.3,0,7.8,3.5,7.8,7.8V163
		C642.1,167.3,638.5,170.8,634.2,170.8z"/>
	
		<rect x="596.7" y="103.5" fill="#FFFFFF" stroke="#4F4130" stroke-width="3.5962" stroke-linecap="round" stroke-linejoin="round" stroke-miterlimit="10" width="45.3" height="55.8"/>
</g>
<g>
	
		<path fill="#FFFFFF" stroke="#4F4130" stroke-width="3.5962" stroke-linecap="round" stroke-linejoin="round" stroke-miterlimit="10" d="
		M578.6,198.9h-34.6c-1.7,0-3.1-1.4-3.1-3.1v-58.2c0-1.7,1.4-3.1,3.1-3.1h34.6c1.7,0,3.1,1.4,3.1,3.1v58.2
		C581.7,197.5,580.3,198.9,578.6,198.9z"/>
	<circle fill="#4F4130" stroke="#4F4130" stroke-width="0.7992" stroke-miterlimit="10" cx="561.2" cy="192.1" r="3.1"/>
	
		<path fill="#C74054" stroke="#4F4130" stroke-width="3.5962" stroke-linecap="round" stroke-linejoin="round" stroke-miterlimit="10" d="
		M572.5,185.7H550c-2.3,0-4.1-1.8-4.1-4.1v-37.9c0-2.3,1.8-4.1,4.1-4.1h22.4c2.3,0,4.1,1.8,4.1,4.1v37.9
		C576.6,183.9,574.7,185.7,572.5,185.7z"/>
</g>
<g>
	
		<path fill="#FFFFFF" stroke="#4F4130" stroke-width="3.5962" stroke-linecap="round" stroke-linejoin="round" stroke-miterlimit="10" d="
		M208.3,326.2l-0.1,0.2c-2.9,11.6-2.9,23.6,0,35.2l0.1,0.2c0.8,3.3,3.8,5.7,7.2,5.7h57.7c3.3,0,6.2-2.2,7.1-5.3l0.1-0.2
		c3.5-11.7,3.5-24.1,0-35.8l-0.1-0.2c-0.9-3.2-3.8-5.3-7.1-5.3h-57.7C212.1,320.6,209.1,322.9,208.3,326.2z"/>
	
		<rect x="224.9" y="327.4" fill="#8BB4D2" stroke="#4F4130" stroke-width="3.5962" stroke-linecap="round" stroke-linejoin="round" stroke-miterlimit="10" width="48.6" height="33.2"/>
	
		<path fill="#8BB4D2" stroke="#4F4130" stroke-width="3.5962" stroke-linecap="round" stroke-linejoin="round" stroke-miterlimit="10" d="
		M219.7,338.5v11.1h-6.7l0-0.1c-1.3-3.5-1.3-7.4,0-11l0-0.1H219.7z"/>
	
		<polygon fill="#8BB4D2" stroke="#4F4130" stroke-width="3.5962" stroke-linecap="round" stroke-linejoin="round" stroke-miterlimit="10" points="
		219.7,349.6 219.7,360.6 214.5,360.6 212.9,349.6 	"/>
	
		<polygon fill="#8BB4D2" stroke="#4F4130" stroke-width="3.5962" stroke-linecap="round" stroke-linejoin="round" stroke-miterlimit="10" points="
		219.7,327.4 219.7,338.5 212.9,338.5 214.5,327.4 	"/>
</g>
<g>
	
		<path fill="#FFFFFF" stroke="#4F4130" stroke-width="3.5962" stroke-linecap="round" stroke-linejoin="round" stroke-miterlimit="10" d="
		M666.1,235l-0.2,0.1c-9.4,6.7-22,6.7-31.5,0l-0.2-0.1v-40.6l0.2-0.1c9.4-6.7,22-6.7,31.5,0l0.2,0.1V235z"/>
	
		<rect x="639.9" y="198.3" fill="#FFFFFF" stroke="#4F4130" stroke-width="3.5962" stroke-linecap="round" stroke-linejoin="round" stroke-miterlimit="10" width="20.5" height="30.1"/>
	
		<line fill="none" stroke="#4F4130" stroke-width="3.5962" stroke-linecap="round" stroke-linejoin="round" stroke-miterlimit="10" x1="651.6" y1="234.5" x2="648.7" y2="234.5"/>
</g>
<g>
	
		<path fill="#8BB4D2" stroke="#4F4130" stroke-width="3.5962" stroke-linecap="round" stroke-linejoin="round" stroke-miterlimit="10" d="
		M658.1,158.9v-34.6c0-1.7,1.4-3.1,3.1-3.1h58.2c1.7,0,3.1,1.4,3.1,3.1v34.6c0,1.7-1.4,3.1-3.1,3.1h-58.2
		C659.5,162,658.1,160.6,658.1,158.9z"/>
	<circle fill="#4F4130" stroke="#4F4130" stroke-width="0.7992" stroke-miterlimit="10" cx="664.9" cy="141.5" r="3.1"/>
	
		<path fill="#FFFFFF" stroke="#4F4130" stroke-width="3.5962" stroke-linecap="round" stroke-linejoin="round" stroke-miterlimit="10" d="
		M671.2,152.8v-22.4c0-2.3,1.8-4.1,4.1-4.1h37.9c2.3,0,4.1,1.8,4.1,4.1v22.4c0,2.3-1.8,4.1-4.1,4.1h-37.9
		C673.1,156.9,671.2,155,671.2,152.8z"/>
</g>
</svg>
