<?xml version="1.0" encoding="utf-8"?>
<!-- Generator: Adobe Illustrator 17.1.0, SVG Export Plug-In . SVG Version: 6.00 Build 0)  -->
<!DOCTYPE svg PUBLIC "-//W3C//DTD SVG 1.1//EN" "http://www.w3.org/Graphics/SVG/1.1/DTD/svg11.dtd">
<svg version="1.1" id="Layer_1" xmlns="http://www.w3.org/2000/svg" xmlns:xlink="http://www.w3.org/1999/xlink" x="0px" y="0px"
	 viewBox="0 0 84 22" enable-background="new 0 0 84 22" xml:space="preserve">
<g>
	<path d="M8,12.3c-0.1-0.1-0.1-0.1-0.1-0.2c-1.5-4-2.9-8-4.4-11.9C3.4,0.1,3.3,0,3.2,0C2.1,0,1.1,0,0,0c0,7.3,0,14.5,0,21.8
		c0,0,0,0.1,0,0.1c0,0,0.1,0,0.1,0c0,0,0,0,0.1,0c0.6-0.1,1.2-0.2,1.8-0.2c0.5-0.1,1-0.1,1.6-0.2c0-4,0-7.9,0-11.8
		c0.1,0.1,0.1,0.1,0.1,0.2c1.3,3.6,2.6,7.3,3.9,10.9C7.6,21,7.7,21,7.9,21c0.7-0.1,1.3-0.2,2-0.2c0.5-0.1,1-0.1,1.6-0.2
		c0-6.9,0-13.7,0-20.6C10.3,0,9.2,0,8,0C8,4.1,8,8.2,8,12.3z"/>
	<path d="M79.5,10.7c-0.1-0.2-0.1-0.4,0-0.6c1.5-3.3,2.9-6.6,4.4-9.9c0-0.1,0-0.1,0.1-0.2c-0.1,0-0.2,0-0.3,0c-1.1,0-2.2,0-3.4,0
		c-0.2,0-0.3,0-0.4,0.2c-0.8,1.7-1.5,3.5-2.3,5.2c0,0.1-0.1,0.2-0.2,0.3c0-0.1-0.1-0.1-0.1-0.2c-0.7-1.8-1.4-3.6-2.1-5.4
		C75.3,0.1,75.2,0,75,0c-1,0-1.9,0-2.9,0c-0.2,0-0.5,0-0.7,0c0,0.1,0.1,0.1,0.1,0.2c1.3,3.3,2.6,6.6,3.9,9.9c0.1,0.1,0.1,0.3,0,0.4
		c-1.3,2.9-2.6,5.8-3.8,8.6c-0.2,0.4-0.4,0.8-0.6,1.3c1.3,0.1,2.5,0.3,3.7,0.4c0.9-1.9,1.7-3.9,2.6-5.9c0,0.1,0.1,0.1,0.1,0.2
		c0.8,2,1.6,4.1,2.4,6.1c0,0.1,0.1,0.2,0.2,0.2c0.8,0.1,1.7,0.2,2.5,0.3c0.4,0.1,0.9,0.1,1.3,0.2c0,0,0,0,0,0c0-0.1,0-0.2-0.1-0.2
		C82.5,18.1,81,14.4,79.5,10.7z"/>
	<path d="M14.9,20.3c3.3-0.2,6.5-0.5,9.8-0.7c0-1.1,0-2.2,0-3.4c-2.1,0.1-4.2,0.3-6.3,0.4c0-1.7,0-3.4,0-5.1c1.6,0,3.2,0,4.8,0
		c0-0.1,0-0.2,0-0.2c0-1,0-2,0-2.9c0-0.2,0-0.3-0.3-0.2c-1.4,0-2.9,0-4.3,0c-0.1,0-0.2,0-0.2,0c0-1.6,0-3.1,0-4.6c2.1,0,4.2,0,6.3,0
		c0-1.1,0-2.3,0-3.4c-3.3,0-6.5,0-9.8,0C14.9,6.8,14.9,13.5,14.9,20.3z"/>
	<path d="M40.2,19.1c1.2,0,2.3,0,3.5,0c0-2.6,0-5.2,0-7.8c1.6,0,3.2,0,4.8,0c0-1.1,0-2.3,0-3.4c-1.6,0-3.2,0-4.8,0c0-1.5,0-3,0-4.4
		c2.1,0,4.2,0,6.3,0c0-1.1,0-2.3,0-3.4c-3.3,0-6.6,0-9.8,0C40.2,6.4,40.2,12.7,40.2,19.1z"/>
	<path d="M27,3.4c1.2,0,2.4,0,3.7,0c0,5.3,0,10.6,0,15.9c1.2,0,2.4-0.1,3.5-0.1c0-5.3,0-10.5,0-15.8c1.2,0,2.5,0,3.7,0
		c0-1.1,0-2.3,0-3.4C34.3,0,30.7,0,27,0C27,1.2,27,2.3,27,3.4z"/>
	<path d="M56.2,16c-0.4,0-0.3,0-0.3-0.3c0-5.1,0-10.3,0-15.4c0-0.1,0-0.2,0-0.3c-1.2,0-2.4,0-3.5,0c0,0.1,0,0.1,0,0.2
		c0,6.3,0,12.6,0,18.9c0,0.2,0.1,0.2,0.2,0.2c0.6,0,1.3,0,1.9,0.1c2.3,0.1,4.6,0.2,6.9,0.4c0.2,0,0.4,0,0.6,0c0-1.1,0-2.3,0-3.4
		c0,0-0.1,0-0.1,0C60,16.2,58.1,16.1,56.2,16z"/>
	<path d="M64.9,19.9c1.2,0.1,2.3,0.2,3.5,0.3c0-6.7,0-13.5,0-20.2c-1.2,0-2.3,0-3.5,0C64.9,6.7,64.9,13.3,64.9,19.9z"/>
</g>
</svg>
