<?xml version="1.0" encoding="utf-8"?>
<!-- Generator: Adobe Illustrator 17.1.0, SVG Export Plug-In . SVG Version: 6.00 Build 0)  -->
<!DOCTYPE svg PUBLIC "-//W3C//DTD SVG 1.1//EN" "http://www.w3.org/Graphics/SVG/1.1/DTD/svg11.dtd">
<svg version="1.1" id="Layer_1" xmlns="http://www.w3.org/2000/svg" xmlns:xlink="http://www.w3.org/1999/xlink" x="0px" y="0px"
	 viewBox="0 0 80 14" enable-background="new 0 0 80 14" xml:space="preserve">
<g>
	<path d="M3.1,4.2l2.4,6.3l2.3-6.3h3l-3.9,9.6H4L0,4.2H3.1z"/>
	<path d="M15.7,14c-3.1,0-5-2.2-5-5c0-2.9,1.9-5,5-5c3.1,0,5,2.2,5,5C20.7,11.8,18.8,14,15.7,14z M15.7,6.1c-1.5,0-2.2,1.3-2.2,2.9
		c0,1.5,0.7,2.8,2.2,2.8c1.5,0,2.2-1.3,2.2-2.8C17.9,7.4,17.2,6.1,15.7,6.1z"/>
	<path d="M31.4,0.2v13.3c-1.1,0.2-2.5,0.4-4.1,0.4c-3.3,0-5.4-1.8-5.4-5.1c0-2.8,1.9-5,4.8-5c0.8,0,1.6,0.2,2.1,0.4v-4H31.4z
		 M28.7,6.6c-0.4-0.2-1.1-0.4-1.9-0.4c-1.4,0-2.2,1.2-2.2,2.8c0,1.9,1.2,2.9,2.7,2.9c0.5,0,1,0,1.4-0.1V6.6z"/>
	<path d="M32.6,9.2c0-3,2.2-5.3,5.4-5.3c1.6,0,3.2,0.4,4.1,0.8v9.1h-2.3l-0.2-0.8C39,13.6,38.3,14,37,14C34.5,14,32.6,12.1,32.6,9.2
		z M39.5,6.4c-0.3-0.1-0.9-0.2-1.5-0.2c-1.3,0-2.6,1-2.6,2.9c0,1.9,1,2.7,2.2,2.7c0.9,0,1.6-0.5,1.9-1V6.4z"/>
	<path d="M47.2,0c0.7,0,1.6,0.1,2,0.2v2.3c-0.4-0.1-1.1-0.1-1.5-0.1c-0.6,0-0.9,0.1-1.1,0.3c-0.2,0.2-0.2,0.4-0.2,0.9v0.6h2.4v2.3
		h-2.4v7.3h-2.6V3.4c0-1.1,0.4-2,1-2.5C45.3,0.3,46.2,0,47.2,0z"/>
	<path d="M54.1,14c-3.1,0-5-2.2-5-5c0-2.9,1.9-5,5-5c3.1,0,5,2.2,5,5C59,11.8,57.1,14,54.1,14z M54.1,6.1c-1.5,0-2.2,1.3-2.2,2.9
		c0,1.5,0.7,2.8,2.2,2.8c1.5,0,2.2-1.3,2.2-2.8C56.3,7.4,55.5,6.1,54.1,6.1z"/>
	<path d="M67,8.5c0-1.4-0.7-2.2-2.2-2.2c-0.7,0-1.5,0.1-1.9,0.2v7.2h-2.6V4.7c1.2-0.4,2.9-0.8,4.6-0.8c3,0,4.8,1.5,4.8,4v5.8H67V8.5
		z"/>
	<path d="M70.9,8.9c0-3.1,1.9-5,4.7-5c2.8,0,4.4,2.2,4.4,4.9c0,0.4,0,0.9-0.1,1.1h-6.4c0.1,1.4,1,2.1,2.7,2.1c1.5,0,2.7-0.3,3.3-0.5
		v1.8c-0.9,0.4-2,0.8-3.5,0.8C72.8,14,70.9,12.2,70.9,8.9z M77.6,7.9c-0.1-1-0.8-1.8-2-1.8c-1.2,0-1.9,0.7-2,1.8H77.6z"/>
</g>
</svg>
