<?xml version="1.0" encoding="utf-8"?>
<!-- Generator: Adobe Illustrator 17.1.0, SVG Export Plug-In . SVG Version: 6.00 Build 0)  -->
<!DOCTYPE svg PUBLIC "-//W3C//DTD SVG 1.1//EN" "http://www.w3.org/Graphics/SVG/1.1/DTD/svg11.dtd">
<svg version="1.1" id="Layer_1" xmlns="http://www.w3.org/2000/svg" xmlns:xlink="http://www.w3.org/1999/xlink" x="0px" y="0px"
	 viewBox="0 0 56 36" enable-background="new 0 0 56 36" xml:space="preserve">
<g>
	<path fill-rule="evenodd" clip-rule="evenodd" d="M15.9,23.4h2.3l-2.3-3.7L14,16.7l-8.2,4.7l1.2,2H15.9L15.9,23.4L15.9,23.4z"/>
	<path fill-rule="evenodd" clip-rule="evenodd" d="M37,23.4h4.2h6.9l-6.9-11.1L33.6,0l-3.2,1.8l-5,2.9l5,8.1L37,23.4L37,23.4
		L37,23.4z"/>
	<path fill-rule="evenodd" clip-rule="evenodd" d="M33.2,27.1c-0.8-0.5-1.7-0.8-2.7-0.8c0,0,0,0,0,0c-2.7,0-5,2.2-5,4.8
		c0,2.7,2.2,4.8,5,4.8c0,0,0,0,0,0c1,0,1.9-0.3,2.7-0.8l0,0v0.5h2.3v-4.6v-7.7h-2.3V27.1L33.2,27.1L33.2,27.1z M33.2,31.7
		c-0.2,1.2-1.4,2.2-2.7,2.2c0,0,0,0,0,0c-1.5,0-2.7-1.2-2.7-2.7c0-1.5,1.2-2.6,2.7-2.7c0,0,0,0,0,0c1.3,0,2.5,0.9,2.7,2.1l0,0V31.7
		L33.2,31.7L33.2,31.7z"/>
	<path fill-rule="evenodd" clip-rule="evenodd" d="M44,27.1c-0.8-0.5-1.7-0.8-2.7-0.8c0,0,0,0,0,0c-2.7,0-5,2.2-5,4.8
		c0,2.7,2.2,4.8,5,4.8c0,0,0,0,0,0c1,0,1.9-0.3,2.7-0.8l0,0v0.5h2.3v-4.6v-4.6H44V27.1L44,27.1L44,27.1z M44,31.7
		c-0.2,1.2-1.4,2.2-2.7,2.2c0,0,0,0,0,0c-1.5,0-2.7-1.2-2.7-2.7c0-1.5,1.2-2.6,2.7-2.7c0,0,0,0,0,0c1.3,0,2.5,0.9,2.7,2.1l0,0V31.7
		L44,31.7L44,31.7z"/>
	<path fill-rule="evenodd" clip-rule="evenodd" d="M54.4,30.6c-0.1,0-0.2-0.1-0.3-0.1c-0.5-0.2-1.3-0.4-2.5-0.6
		c-1-0.2-1.5-0.5-1.5-0.9c0-0.3,0.1-0.5,0.3-0.6c0.2-0.2,0.7-0.3,1.3-0.3c0.6,0,1.1,0.1,1.3,0.4c0.2,0.2,0.3,0.4,0.4,0.8l0,0h0.8
		h1.6l0,0c0-1.2-0.5-2-1.4-2.5c-0.1,0-0.1-0.1-0.2-0.1c-0.7-0.3-1.6-0.5-2.7-0.5c-1.3,0-2.4,0.3-3,1c-0.5,0.6-0.8,1.2-0.8,2
		c0,1,0.5,1.7,1.5,2.2c0.4,0.2,1.3,0.4,2.8,0.7c1,0.2,1.5,0.5,1.5,0.9c0,0.2-0.1,0.4-0.3,0.6c-0.3,0.2-0.7,0.3-1.3,0.3
		c-0.8,0-1.3-0.1-1.6-0.4c-0.3-0.2-0.5-0.6-0.5-1l0,0h-2.6l0,0c0,1.1,0.5,2,1.5,2.5c0.8,0.4,1.8,0.7,3.1,0.7c0.9,0,1.6-0.1,2.3-0.4
		c0.1-0.1,0.3-0.1,0.4-0.2c1-0.5,1.5-1.4,1.5-2.6C56,31.8,55.5,31,54.4,30.6L54.4,30.6L54.4,30.6L54.4,30.6z"/>
	<path fill-rule="evenodd" clip-rule="evenodd" d="M7.7,27.1C6.9,26.6,6,26.3,5,26.3c0,0,0,0,0,0c-2.7,0-5,2.2-5,4.8
		C0,33.8,2.2,36,5,36c0,0,0,0,0,0c1,0,1.9-0.3,2.7-0.8l0,0v0.5H10v-4.6v-4.6H7.7V27.1L7.7,27.1L7.7,27.1z M7.7,31.7
		c-0.2,1.2-1.4,2.2-2.7,2.2c0,0,0,0,0,0c-1.5,0-2.7-1.2-2.7-2.7c0-1.5,1.2-2.6,2.7-2.7c0,0,0,0,0,0c1.3,0,2.5,0.9,2.7,2.1l0,0V31.7
		L7.7,31.7L7.7,31.7z"/>
	<path fill-rule="evenodd" clip-rule="evenodd" d="M22.1,25.6h2.5v-2.1h-2.5V25.6L22.1,25.6L22.1,25.6z"/>
	<path fill-rule="evenodd" clip-rule="evenodd" d="M22.1,35.7h2.5v-9.4h-2.5V35.7L22.1,35.7L22.1,35.7z"/>
	<path fill-rule="evenodd" clip-rule="evenodd" d="M18.6,27.1c-0.8-0.5-1.7-0.8-2.7-0.8c0,0,0,0,0,0c-2.7,0-5,2.2-5,4.8
		c0,2.7,2.2,4.8,5,4.8c0,0,0,0,0,0c1,0,1.9-0.3,2.7-0.8l0,0v0.5h2.3v-4.6v-7.7h-2.3V27.1L18.6,27.1L18.6,27.1z M18.6,31.7
		c-0.2,1.2-1.4,2.2-2.7,2.2c0,0,0,0,0,0c-1.5,0-2.7-1.2-2.7-2.7c0-1.5,1.2-2.6,2.7-2.7c0,0,0,0,0,0c1.3,0,2.5,0.9,2.7,2.1l0,0V31.7
		L18.6,31.7L18.6,31.7z"/>
	<path fill-rule="evenodd" clip-rule="evenodd" d="M33.2,23.4L30.4,19L23.8,8.3l-7.9,4.6l-0.3,0.2l0.3,0.4l6.2,9.9h8.4H33.2
		L33.2,23.4L33.2,23.4z"/>
</g>
</svg>
