<?xml version="1.0" encoding="utf-8"?>
<!-- Generator: Adobe Illustrator 17.1.0, SVG Export Plug-In . SVG Version: 6.00 Build 0)  -->
<!DOCTYPE svg PUBLIC "-//W3C//DTD SVG 1.1//EN" "http://www.w3.org/Graphics/SVG/1.1/DTD/svg11.dtd">
<svg version="1.1" id="Layer_1" xmlns="http://www.w3.org/2000/svg" xmlns:xlink="http://www.w3.org/1999/xlink" x="0px" y="0px"
	 viewBox="0 0 420 280" enable-background="new 0 0 420 280" xml:space="preserve">
<path fill="none" d="M74.3,64L91.4,6H77l-10.4,42L55.2,6h-10l-11.4,42L23.3,6H9L26.2,64h13.6l10.4-39.9L60.7,64H74.3z"/>
<path fill="none" d="M139.9,64V53.2h-29.7V40h29.1V29.1h-29.1V16.9h29.7V6H97.4V64H139.9z"/>
<path fill="none" d="M237.9,64V6h-18l-14.6,35.1L190.8,6h-17.9V64h12.8V23.4L202.6,64h5.6l16.9-40.7V64H237.9z"/>
<path fill="none" d="M305.8,64L282.6,6h-16L243.4,64H258l3.8-9.8h25.7l3.7,9.8H305.8z M284,43.3h-18.7l9.4-25L284,43.3z"/>
<path fill="none" d="M362.7,64l-25.5-30.8L361.1,6h-15.7l-21.2,25.9V6h-12.8V64h12.8V46.2l4.7-5.4L347,64H362.7z"/>
<path fill="none" d="M411,64V53.2h-29.7V40h29.1V29.1h-29.1V16.9H411V6h-42.5V64H411z"/>
<path fill="none" d="M50.5,133.7V86.5h17.5V75.6H20.1v10.9h17.5v47.2H50.5z"/>
<path fill="none" d="M130.1,133.7V75.6h-12.9v22.8H88.9V75.6H76.1v58.1h12.8v-24.4h28.3v24.4H130.1z"/>
<path fill="none" d="M184.4,133.7v-10.9h-29.7v-13.1h29.1V98.8h-29.1V86.5h29.7V75.6h-42.5v58.1H184.4z"/>
<path fill="none" d="M276.8,133.7l17.1-58.1h-14.4l-10.4,42l-11.3-42h-10l-11.4,42l-10.5-42h-14.3l17.2,58.1h13.6l10.4-39.9
	l10.5,39.9H276.8z"/>
<path fill="none" d="M342.4,133.7v-10.9h-29.7v-13.1h29.1V98.8h-29.1V86.5h29.7V75.6H300v58.1H342.4z"/>
<path fill="none" d="M385,133.7c11.4,0,17.5-7,17.5-15.7c0-7.3-5.1-13.3-11.5-14.3c5.7-1.1,10.3-6,10.3-13.3
	c0-7.7-5.8-14.8-17.3-14.8h-31.6v58.1H385z M381.2,98.9h-16V86.2h16c4.3,0,7,2.7,7,6.4C388.2,96.3,385.5,98.9,381.2,98.9z
	 M381.6,123h-16.5v-13.5h16.5c5,0,7.7,3.1,7.7,6.8C389.4,120.5,386.5,123,381.6,123z"/>
<path fill="none" d="M73.5,203.3l-25-58.1h-3.4l-25,58.1h3.3l6.7-15.6h33.5l6.7,15.6H73.5z M62.4,185.1H31.1l15.7-36.6L62.4,185.1z"
	/>
<path fill="none" d="M129.6,203.3c10.5,0,17.2-5.7,17.2-15.7c0-6.7-5.4-13.3-11.8-14.3c5.3-1,10.6-6,10.6-13.3
	c0-9.6-6.7-14.8-16.4-14.8h-22.6v58.1H129.6z M129.3,172.2h-19.7v-24.3h19.7c8.8,0,13.2,5.6,13.2,12.2
	C142.5,166.8,138.1,172.2,129.3,172.2z M129.6,200.7h-20.1v-25.9h20.1c9.4,0,14,6.4,14,13C143.6,195.7,138.4,200.7,129.6,200.7z"/>
<path fill="none" d="M197.4,203.3v-2.6h-33.8v-25.9h33.2v-2.6h-33.2v-24.3h33.8v-2.6h-36.7v58.1H197.4z"/>
<path fill="none" d="M229.5,203.3v-55.5h20.3v-2.6h-43.5v2.6h20.2v55.5H229.5z"/>
<path fill="none" d="M279.8,203.3v-55.5h20.3v-2.6h-43.5v2.6h20.2v55.5H279.8z"/>
<path fill="none" d="M348.1,203.3v-2.6h-33.8v-25.9h33.2v-2.6h-33.2v-24.3h33.8v-2.6h-36.7v58.1H348.1z"/>
<path fill="none" d="M400.9,203.3l-18.5-25.1c9.7,0,17.7-5.9,17.7-16.5c0-10.6-8-16.5-17.7-16.5h-20.7v58.1h2.9v-25.1h14.4
	l18.3,25.1H400.9z M382.3,175.6h-17.8v-27.8h17.8c8.8,0,14.6,5.8,14.6,13.8C396.9,169.7,391.1,175.6,382.3,175.6z"/>
<path fill="none" d="M93.5,273v-25.2h17.9c11,0,17.5-7.6,17.5-16.5c0-8.9-6.4-16.5-17.5-16.5H90.6V273H93.5z M111.3,245.2H93.5
	v-27.7h17.8c8.8,0,14.5,5.8,14.5,13.8S120.1,245.2,111.3,245.2z"/>
<path fill="none" d="M173.5,273v-2.6h-30.1v-55.5h-2.9V273H173.5z"/>
<path fill="none" d="M232.8,273l-25-58.1h-3.4l-25,58.1h3.3l6.7-15.6h33.5l6.7,15.6H232.8z M221.7,254.8h-31.3l15.7-36.6
	L221.7,254.8z"/>
<path fill="none" d="M266.9,274c8.5,0,15.3-3,21-9.2l-2.3-1.8c-4.2,5.1-11.2,8.4-18.6,8.4c-15,0-26.8-11.2-26.8-27.4
	c0-16.4,11.8-27.4,26.8-27.4c7.5,0,14.4,3.3,18.6,8.4l2.2-1.9c-5.3-5.9-12.4-9.1-20.9-9.1c-16.6,0-30,12.2-30,30
	C236.9,261.8,250.3,274,266.9,274z"/>
<path fill="none" d="M335.7,273v-2.6h-33.8v-25.9h33.2v-2.6h-33.2v-24.3h33.8v-2.6H299V273H335.7z"/>
</svg>
