<?xml version="1.0" encoding="utf-8"?>
<!-- Generator: Adobe Illustrator 18.0.0, SVG Export Plug-In . SVG Version: 6.00 Build 0)  -->
<!DOCTYPE svg PUBLIC "-//W3C//DTD SVG 1.1//EN" "http://www.w3.org/Graphics/SVG/1.1/DTD/svg11.dtd">
<svg version="1.1" id="Layer_1" xmlns="http://www.w3.org/2000/svg" xmlns:xlink="http://www.w3.org/1999/xlink" x="0px" y="0px"
	 viewBox="0 0 18 18" enable-background="new 0 0 18 18" xml:space="preserve">
<path d="M15.894,5.56c-0.689-1.182-1.625-2.118-2.807-2.808c-1.183-0.689-2.473-1.034-3.873-1.034c-1.399,0-2.69,0.345-3.872,1.034
	S3.225,4.378,2.534,5.56C1.845,6.741,1.5,8.032,1.5,9.432c0,1.681,0.49,3.192,1.472,4.535c0.98,1.343,2.248,2.271,3.802,2.787
	c0.181,0.034,0.314,0.011,0.401-0.07c0.087-0.08,0.131-0.181,0.131-0.301c0-0.021-0.002-0.201-0.005-0.543
	c-0.004-0.341-0.005-0.639-0.005-0.894l-0.231,0.04c-0.147,0.027-0.333,0.039-0.558,0.035c-0.224-0.003-0.457-0.026-0.697-0.07
	c-0.241-0.043-0.466-0.144-0.674-0.301c-0.207-0.157-0.354-0.363-0.441-0.618l-0.101-0.231c-0.067-0.153-0.173-0.324-0.316-0.512
	c-0.145-0.188-0.29-0.314-0.437-0.382l-0.07-0.05L3.64,12.736l-0.091-0.141L3.6,12.48c0.054-0.03,0.15-0.045,0.291-0.045
	l0.201,0.029c0.134,0.027,0.3,0.107,0.497,0.241c0.197,0.135,0.359,0.309,0.487,0.522c0.153,0.274,0.34,0.484,0.558,0.628
	c0.217,0.145,0.437,0.216,0.657,0.216c0.222,0,0.412-0.017,0.573-0.05c0.16-0.034,0.311-0.084,0.451-0.151
	c0.061-0.448,0.225-0.793,0.492-1.034c-0.381-0.04-0.725-0.101-1.029-0.181s-0.619-0.211-0.944-0.392
	c-0.324-0.181-0.594-0.405-0.809-0.673c-0.214-0.269-0.39-0.62-0.527-1.055C4.361,10.102,4.292,9.6,4.292,9.03
	c0-0.811,0.265-1.5,0.794-2.069c-0.248-0.609-0.225-1.292,0.07-2.049c0.194-0.061,0.482-0.016,0.864,0.135
	c0.381,0.151,0.661,0.28,0.838,0.387c0.178,0.107,0.32,0.198,0.428,0.271c0.622-0.174,1.266-0.261,1.928-0.261
	c0.663,0,1.307,0.087,1.929,0.261l0.382-0.241c0.262-0.16,0.569-0.308,0.924-0.441c0.355-0.134,0.627-0.171,0.814-0.11
	c0.301,0.757,0.327,1.439,0.08,2.049c0.528,0.569,0.793,1.259,0.793,2.069c0,0.569-0.068,1.073-0.205,1.512
	c-0.138,0.438-0.315,0.79-0.533,1.055c-0.217,0.265-0.488,0.487-0.813,0.668c-0.324,0.181-0.64,0.312-0.944,0.392
	s-0.714,0.141-1.096,0.181C10.893,13.139,11,13.614,11,14.264v2.119c0,0.12,0.108,0.221,0.192,0.301
	c0.083,0.081,0.249,0.104,0.43,0.07c1.554-0.516,2.837-1.444,3.818-2.787c0.98-1.343,1.48-2.854,1.48-4.535
	C16.92,8.032,16.584,6.741,15.894,5.56z" fill="#ffffff"/>
</svg>
