<?xml version="1.0" encoding="utf-8"?>
<!-- Generator: Adobe Illustrator 18.0.0, SVG Export Plug-In . SVG Version: 6.00 Build 0)  -->
<!DOCTYPE svg PUBLIC "-//W3C//DTD SVG 1.1//EN" "http://www.w3.org/Graphics/SVG/1.1/DTD/svg11.dtd">
<svg version="1.1" id="Layer_1" xmlns="http://www.w3.org/2000/svg" xmlns:xlink="http://www.w3.org/1999/xlink" x="0px" y="0px"
	 viewBox="0 0 18 18" enable-background="new 0 0 18 18" xml:space="preserve">
<path d="M13.2,2.7c-1.2-0.7-2.5-1-3.9-1c-1.4,0-2.7,0.3-3.9,1C4.2,3.4,3.3,4.4,2.6,5.5c-0.7,1.2-1,2.5-1,3.9s0.3,2.7,1,3.9
	c0.7,1.2,1.6,2.1,2.8,2.8c1.2,0.7,2.5,1,3.9,1c1.4,0,2.7-0.3,3.9-1s2.1-1.6,2.8-2.8c0.7-1.2,1-2.5,1-3.9s-0.3-2.7-1-3.9
	C15.3,4.4,14.3,3.4,13.2,2.7z M15.8,9.3c-0.1,0-0.2,0-0.3,0c-0.1,0-0.2,0-0.4-0.1c-0.1,0-0.3,0-0.5-0.1c-0.2,0-0.4,0-0.6-0.1
	c-0.2,0-0.4,0-0.6,0c-0.2,0-0.5,0-0.7,0s-0.5,0-0.7,0c-0.3,0-0.5,0-0.7,0.1L11.2,9l-0.1-0.2c-0.1-0.3-0.3-0.6-0.4-1
	c0.5-0.2,0.9-0.4,1.3-0.6c0.4-0.2,0.8-0.5,1-0.7c0.3-0.2,0.5-0.4,0.7-0.6s0.4-0.4,0.4-0.4l0.2-0.2l0,0C15.4,6.4,15.9,7.8,15.8,9.3
	L15.8,9.3z M13.5,4.6c-0.1,0.1-0.2,0.2-0.4,0.4c-0.2,0.2-0.4,0.4-0.7,0.6c-0.2,0.2-0.6,0.4-1,0.6s-0.8,0.4-1.3,0.6
	C9.4,5.4,8.6,4.2,7.7,3c0.5-0.1,1-0.2,1.6-0.2c1.7,0,3.1,0.5,4.3,1.6L13.5,4.6z M7.7,3L7.7,3L7.7,3z M14.8,13
	c-0.5,0.8-1.1,1.4-1.9,1.9c-0.3-1.5-0.7-3.1-1.3-4.7c1.3-0.2,2.7-0.1,4.1,0.3C15.6,11.4,15.3,12.2,14.8,13z M2.8,8.1
	c0.2-1,0.6-1.9,1.3-2.7c0.6-0.8,1.4-1.4,2.4-1.9c0.8,1.1,1.6,2.4,2.5,3.8C6.9,7.8,4.9,8.1,2.8,8.1z M9.9,9.4l-0.1,0L9.4,9.6
	c-0.3,0.1-0.6,0.3-1,0.5c-0.4,0.2-0.8,0.5-1.3,0.8c-0.5,0.3-0.9,0.7-1.4,1.3c-0.5,0.5-0.9,1.1-1.2,1.7c-0.5-0.6-1-1.3-1.2-2
	C2.8,11,2.7,10.2,2.7,9.4c0-0.1,0-0.2,0-0.2c2.4,0,4.7-0.3,6.8-0.9C9.7,8.7,9.9,9.1,10,9.4L9.9,9.4z M9.3,16c-1.6,0-3-0.5-4.2-1.5
	l0.2,0.1c0.2-0.5,0.6-1,1-1.5c0.5-0.5,0.9-0.9,1.3-1.2s0.9-0.6,1.4-0.8c0.5-0.3,0.8-0.4,1-0.5c0.2-0.1,0.3-0.1,0.4-0.2l0,0h0
	c0.7,1.7,1.1,3.4,1.4,5C11,15.8,10.2,16,9.3,16z" fill="#ffffff"/>
</svg>
