<?xml version="1.0" encoding="utf-8"?>
<!-- Generator: Adobe Illustrator 17.1.0, SVG Export Plug-In . SVG Version: 6.00 Build 0)  -->
<!DOCTYPE svg PUBLIC "-//W3C//DTD SVG 1.1//EN" "http://www.w3.org/Graphics/SVG/1.1/DTD/svg11.dtd">
<svg version="1.1" id="Layer_1" xmlns="http://www.w3.org/2000/svg" xmlns:xlink="http://www.w3.org/1999/xlink" x="0px" y="0px"
	 viewBox="0 0 36 28" enable-background="new 0 0 36 28" xml:space="preserve">
<g>
	<path d="M0,28c0-2.9,0.5-6.5,1.4-10.8c0.8-3.8,1.8-7.1,3-9.9C6.4,2.4,8.5,0,10.7,0c1.1,0.2,2,0.8,3,1.8c2.2,2.3,3.7,6.4,4.5,12.1
		c0-0.1,0.2-1.3,0.8-3.6C20.6,3.4,22.8,0,25.5,0c2.5,0,4.7,2.4,6.6,7.1c1.1,2.8,2,6.1,2.8,9.9C35.6,21.2,36,24.8,36,28h-3.6
		c0-10.2-1.3-17.8-3.9-22.9c-1-2-2-3.1-3-3.1c-1.2,0-2.3,2-3.3,6.1c-1.1,4.6-1.7,10.6-1.8,18.1l-4.2,0.1c0-9.9-1-17-3.1-21.5
		C12.3,2.9,11.5,2,10.7,2C9.5,2,8.3,3.8,7.1,7.4c-2,5.8-3,12.7-3.1,20.5L0,28z"/>
</g>
</svg>
