<?xml version="1.0" encoding="utf-8"?>
<!-- Generator: Adobe Illustrator 17.1.0, SVG Export Plug-In . SVG Version: 6.00 Build 0)  -->
<!DOCTYPE svg PUBLIC "-//W3C//DTD SVG 1.1//EN" "http://www.w3.org/Graphics/SVG/1.1/DTD/svg11.dtd">
<svg version="1.1" id="Layer_1" xmlns="http://www.w3.org/2000/svg" xmlns:xlink="http://www.w3.org/1999/xlink" x="0px" y="0px"
	 viewBox="0 0 86 12" enable-background="new 0 0 86 12" xml:space="preserve">
<g>
	<path fill-rule="evenodd" clip-rule="evenodd" d="M47.2,5.6c0,0-0.8-0.5-1.4-0.7c0,0-1.6-0.7-1.9-1c0,0-0.6-0.6-0.3-1.2
		c0,0,0.2-0.4,0.8-0.4c0,0,0.9,0,0.9,0.7v0.9h3.1l0-1.4c0,0,0.2-2.3-3.6-2.4c0,0-3-0.2-3.9,1.4c0,0-0.3,0.3-0.3,1.6v0.9
		c0,0,0,1,0.5,1.7c0,0,0.3,0.4,1.1,0.9c0,0,1.5,0.8,2.4,1.2c0,0,0.9,0.5,0.8,1.3c0,0-0.1,0.8-1,0.8c0,0-0.8,0-0.8-0.8V8h-3.3v1.4
		c0,0-0.1,2.6,4.1,2.6c0,0,4,0.1,4.2-2.7V8.2C48.6,8.2,48.7,6.5,47.2,5.6L47.2,5.6z"/>
	<path fill-rule="evenodd" clip-rule="evenodd" d="M31.4,0.4l-1,6.2h-0.2l-1-6.1H24l-0.3,11.1h3l0-8.4h0.2l1.6,8.4h3.2l1.6-8.4h0.2
		l0.1,8.4h3.1L36.5,0.4H31.4L31.4,0.4z"/>
	<path fill-rule="evenodd" clip-rule="evenodd" d="M13.3,0.5l-2,11.1h3.3L15.7,3H16l1.2,8.6h3.3l-2-11.1H13.3L13.3,0.5z"/>
	<path fill-rule="evenodd" clip-rule="evenodd" d="M82,5.4v1.6h0.8v1.8c0,0.9-0.8,0.9-0.8,0.9c-0.9,0-0.9-0.8-0.9-0.8V2.8
		c0-0.6,0.8-0.7,0.8-0.7c0.8,0,0.8,0.7,0.8,0.7v0.9h3.1C86,2,85.6,1.5,85.6,1.5C84.9-0.1,82,0,82,0c-4.4,0-4,3.3-4,3.3v5.9
		c0.1,3.1,4.5,2.7,4.6,2.7c2-0.2,2.5-0.8,2.5-0.8c0.5-0.4,0.7-0.9,0.7-0.9C86,9.9,86,8.9,86,8.9V5.4H82L82,5.4z"/>
	<path fill-rule="evenodd" clip-rule="evenodd" d="M71.8,7.2h-0.1l-3.1-6.8h-3.7v11.2h3l-0.2-6.8h0.1l3.2,6.8h3.6V0.4h-3.1L71.8,7.2
		L71.8,7.2z"/>
	<path fill-rule="evenodd" clip-rule="evenodd" d="M57.4,8.8c0,0,0,0.9-0.8,0.9c0,0-0.9,0-0.9-0.9l0-8.4h-3.3v8.4
		c0,0-0.3,3.2,4.3,3.2c0,0,4.1,0,4.1-3V0.4h-3.3V8.8L57.4,8.8z"/>
	<path fill-rule="evenodd" clip-rule="evenodd" d="M6.9,5.6c0,0-0.8-0.5-1.4-0.7c0,0-1.6-0.7-1.9-1c0,0-0.6-0.6-0.3-1.2
		c0,0,0.2-0.4,0.8-0.4c0,0,0.9,0,0.9,0.7v0.9h3.1l0-1.4c0,0,0.2-2.3-3.6-2.4c0,0-0.3,0-0.7,0c0,0-2.3,0.1-3.2,1.3c0,0,0,0,0,0
		c0,0-0.3,0.3-0.3,1.6v0.9c0,0,0,1,0.5,1.7c0,0,0.3,0.4,1.1,0.9c0,0,1.5,0.8,2.4,1.2c0,0,0.9,0.5,0.8,1.3c0,0-0.1,0.8-1,0.8
		c0,0-0.8,0-0.8-0.8V8H0v1.4c0,0-0.1,2.6,4.1,2.6c0,0,4,0.1,4.2-2.7V8.2C8.3,8.2,8.5,6.5,6.9,5.6L6.9,5.6z"/>
</g>
</svg>
