<?xml version="1.0" encoding="utf-8"?>
<!-- Generator: Adobe Illustrator 17.1.0, SVG Export Plug-In . SVG Version: 6.00 Build 0)  -->
<!DOCTYPE svg PUBLIC "-//W3C//DTD SVG 1.1//EN" "http://www.w3.org/Graphics/SVG/1.1/DTD/svg11.dtd">
<svg version="1.1" id="Layer_1" xmlns="http://www.w3.org/2000/svg" xmlns:xlink="http://www.w3.org/1999/xlink" x="0px" y="0px"
	 viewBox="0 0 34 38" enable-background="new 0 0 34 38" xml:space="preserve">
<g>
	<g>
		<path fill-rule="evenodd" clip-rule="evenodd" d="M26,8.2c-2.4-1.7-5.2-2.7-8-3.5V33c1.2-1,2.5-2.2,3.7-3.4
			c2.5-2.7,4.9-5.5,5.9-8.8c0.4-1.5,0.2-3.2-1.1-4.2c1.1-0.9,2.2-1.9,2.3-3.3C29.3,11.1,27.8,9.5,26,8.2z M24,23.1
			c-0.9,1.5-2.1,2.9-3.5,4.2l0-8.1c1-0.7,1.9-1.2,3.1-1.4c0.5,0,0.9,0.2,1.2,0.5C25.9,20,24.7,21.7,24,23.1z M26.4,12.6
			c-0.2,1.3-1.7,2-2.7,2.6c-1,0.5-2.1,0.9-3.2,1.3V8.2c1.7,0.5,3.2,1.3,4.6,2.3C25.8,11,26.7,11.7,26.4,12.6z M13.5,20.9
			c-0.1,0.4,0.2,1.1-0.3,1.3c-0.1,0-0.2,0-0.3-0.1c-1-3.6-1.4-7.5-1.6-11.5l-0.1-3.4L9,8.8v0.9c0.1,3.6,0.4,7.2,1.1,10.6l-0.9,1
			c-0.3-0.5-0.6-0.9-0.8-1.4c-1.1-2.9-1.6-6.1-1.7-9.4l-2,1.4c0.2,5,1.2,9.7,4.3,13.5c0.6-0.7,1.2-1.4,1.8-2
			c0.3,1.4,0.8,2.7,1.3,3.9c0.9,2,1.9,4,3.7,5.5V4.6l-2.4,1.2V20.9z M34,8.3l-3.5-0.8l-0.6-2.3l-3.6-0.8l-0.7-2.5L16.9,0L8.6,1.9
			L7.8,4.4L4.2,5.2C4,6,3.8,6.7,3.6,7.5L0,8.3c-0.3,7.2,1.8,13.6,5.5,19.2c2.7,4.1,6.8,8.3,11.4,10.5c3.1-1.4,5.8-3.7,8.2-6.4
			C31.1,25,34.3,17.3,34,8.3z M23.6,30.1c-1.9,2.1-4.1,4.2-6.6,5.4c-2.3-1.1-4.4-3.1-6.2-5C5.9,25,2.7,19,2.2,11.9
			c-0.1-0.6-0.1-1.1-0.1-1.8l3-0.7l0.7-2.4l3.7-0.8l0-0.1l0.7-2.4l6.7-1.5l6.9,1.5l0.7,2.5l3.7,0.9l0.6,2.4l3,0.7
			C31.8,17.9,28.6,24.4,23.6,30.1z"/>
	</g>
</g>
</svg>
