<?xml version="1.0" encoding="utf-8"?>
<!-- Generator: Adobe Illustrator 17.1.0, SVG Export Plug-In . SVG Version: 6.00 Build 0)  -->
<!DOCTYPE svg PUBLIC "-//W3C//DTD SVG 1.1//EN" "http://www.w3.org/Graphics/SVG/1.1/DTD/svg11.dtd">
<svg version="1.1" id="Layer_1" xmlns="http://www.w3.org/2000/svg" xmlns:xlink="http://www.w3.org/1999/xlink" x="0px" y="0px"
	 viewBox="0 0 80 28" enable-background="new 0 0 80 28" xml:space="preserve">
<g id="layer1" transform="translate(4636.4128,-2865.2086)">
	<path id="path4423" d="M-4624,2878.8h3.4v4.9c-1.1,0.4-2.4,0.5-3.8,0.5c-5.7,0-9.1-5-9.1-9.9c0-4.8,3-8.1,7.3-8.1
		c2.7,0,4.2,0.9,5.6,2.2v1.6l2.6-2.7c-1.7-1.1-4.1-2.2-7.5-2.2c-7.5,0-11,5.5-11,10c0,6.4,4.6,10.3,10.3,10.3c2.8,0,5.3-0.4,8.1-1.2
		v-5.1c0-0.3,0.1-0.4,0.3-0.6l0.9-0.9h-6.1L-4624,2878.8z"/>
	<path id="path4425" d="M-4608.6,2872.1c-4.3,0-7,3.2-7,6.7c0,3,2.2,6.5,6.5,6.5c4.2,0,6.8-3.2,6.8-6.7
		C-4602.3,2875.3-4604.8,2872.1-4608.6,2872.1L-4608.6,2872.1z M-4609.3,2873c3.1,0,4.4,4.1,4.4,7c0,4.3-3.2,4.4-3.5,4.4
		c-1.4,0-2.5-0.9-3.2-2.1c-0.7-1.1-1.3-3.1-1.3-5c0-2,0.6-2.9,1.6-3.6C-4610.6,2873.1-4609.8,2873-4609.3,2873L-4609.3,2873z"/>
	<path id="path4429" d="M-4580.3,2872.1c-3.8,0-5.8,2.4-5.8,5.2c0,2.1,1.5,4.4,4.5,4.4h0.8c0,0-0.2,0.5-0.2,1c0,0.7,0.3,1.1,0.8,1.8
		c-5.2,0.3-7.2,2.5-7.2,4.7c0,2,1.9,4,5.8,4c4.7,0,7.1-2.7,7.1-5.3c0-1.8-0.9-2.8-3.2-4.6c-0.7-0.5-0.8-0.9-0.8-1.3
		c0-0.6,0.3-0.9,0.5-1.1c0.2-0.2,0.6-0.5,0.7-0.6c0.8-0.7,1.8-1.6,1.8-3.6c0-1.3-0.5-2.5-1.8-3.6h1.5l1.1-1.2H-4580.3
		L-4580.3,2872.1z M-4581.4,2873c0.7,0,1.3,0.2,1.9,0.8c0.7,0.6,1.7,2.3,1.7,4.3c0,2.2-1.7,2.8-2.6,2.8c-0.4,0-1-0.1-1.4-0.4
		c-1-0.7-2-2.4-2-4.6C-4583.8,2874-4582.7,2873-4581.4,2873z M-4579.9,2885.3c0.3,0,0.5,0,0.5,0s0.7,0.5,1.2,0.9
		c1.1,0.9,1.8,1.6,1.8,2.8c0,1.7-1.5,3-4,3c-2.7,0-4.8-1.3-4.8-3.4C-4585.2,2886.9-4583.8,2885.4-4579.9,2885.3L-4579.9,2885.3z"/>
	<path id="path4433" d="M-4573.9,2884.9h5.2l0.8-0.8l-1.5-0.2c-0.4-0.1-0.6-0.4-0.6-0.7v-16c0-0.3,0.1-0.5,0.2-0.6l0.9-1h-4.4
		l-1.2,1.2h1.7v16.6c0,0.2-0.1,0.4-0.2,0.6L-4573.9,2884.9z"/>
	<path id="path4435" d="M-4561.7,2872.1c-2.9,0-6,2.3-6,6.3c0,3.3,2.2,6.8,6.3,6.8c1,0,1.9-0.1,2.7-0.5c0.9-0.4,1.7-1.1,2.3-1.9
		c-1.1,0.6-2,1-3.3,1c-2.3,0-4.6-1.7-5.3-4.9l8.2-3.4C-4557.3,2873.8-4558.6,2872.1-4561.7,2872.1L-4561.7,2872.1z M-4562.2,2873
		c1.6,0,2.7,1.3,2.7,2.3c0,0.3-0.2,0.5-0.6,0.7l-5,2.1c0,0-0.1-0.6-0.1-1.4C-4565.4,2873.8-4563.3,2873-4562.2,2873L-4562.2,2873z"
		/>
	<path id="path4439" d="M-4593.9,2872.1c-4.3,0-7,3.2-7,6.7c0,3,2.2,6.5,6.5,6.5c4.2,0,6.8-3.2,6.8-6.7
		C-4587.6,2875.3-4590.2,2872.1-4593.9,2872.1L-4593.9,2872.1z M-4594.7,2873c3.1,0,4.4,4.1,4.4,7c0,4.3-3.2,4.4-3.5,4.4
		c-1.4,0-2.5-0.9-3.2-2.1c-0.7-1.1-1.3-3.1-1.3-5c0-2,0.6-2.9,1.6-3.6C-4595.9,2873.1-4595.2,2873-4594.7,2873L-4594.7,2873z"/>
</g>
</svg>
