<?xml version="1.0" encoding="utf-8"?>
<!-- Generator: Adobe Illustrator 17.1.0, SVG Export Plug-In . SVG Version: 6.00 Build 0)  -->
<!DOCTYPE svg PUBLIC "-//W3C//DTD SVG 1.1//EN" "http://www.w3.org/Graphics/SVG/1.1/DTD/svg11.dtd">
<svg version="1.1" id="Layer_1" xmlns="http://www.w3.org/2000/svg" xmlns:xlink="http://www.w3.org/1999/xlink" x="0px" y="0px"
	 viewBox="0 0 100 18" enable-background="new 0 0 100 18" xml:space="preserve">
<g>
	<path fill-rule="evenodd" clip-rule="evenodd" d="M89.7,7.2l3.1-3.4l0,0c0.2-0.3,0.3-0.4,0.3-0.6c0-0.3-0.2-0.4-0.9-0.4l0,0h-0.8
		V0.7h8.5v2.2h-1.1l0,0c-1.3,0-1.5,0.2-3.3,2.5l0,0l-4.9,5.5v3.4l0,0c0,0.9,0.4,1.2,1.6,1.2l0,0h1.9v2.1H82.1v-2.1H84l0,0
		c1.2,0,1.6-0.3,1.6-1.2l0,0v-3.4l-5.8-6.6l0,0c-1-1.2-0.8-1.4-3.5-1.4l0,0V0.7h10.8v2.2h-0.8l0,0c-0.8,0-1.1,0.2-1.1,0.5
		c0,0.3,0.2,0.5,0.4,0.7l0,0l2.9,3.3l0,0C88.9,7.6,89.3,7.7,89.7,7.2L89.7,7.2L89.7,7.2L89.7,7.2z"/>
	<path fill-rule="evenodd" clip-rule="evenodd" d="M17.3,0.7h2.6v6h-2.4l0,0c-0.2-1.2-0.9-1.7-1.6-2.3c-1.2-1.1-3.8-2.1-6-2.1
		C7,2.3,4.6,3.2,4.6,4.5c0,3.7,16.3,0.8,16.3,7.8c0,3.7-3.5,5.7-9.7,5.7c-2.2,0-5.4-0.7-7.4-1.7c-0.6-0.4-0.9,0.3-1,1.2l0,0H0.1
		v-6.3h2.4l0,0c0.5,1.6,1.3,1.9,1.9,2.5c1.2,1.1,4,1.9,6.5,1.9c3.9,0,5.2-0.9,5.2-2.2c0-1.3-1.3-1.6-5.5-2.2l0,0L7,10.6l0,0
		c-4-0.6-7-1.6-7-4.9c0-3.5,3.7-5.6,9.6-5.6c2.5,0,4.6,0.3,6.6,1.5C16.7,2,17.3,2,17.3,0.7L17.3,0.7L17.3,0.7L17.3,0.7z"/>
	<path fill-rule="evenodd" clip-rule="evenodd" d="M68.1,10.8l0.1-6.7l0,0c0-0.9-0.4-1.2-1.7-1.2l0,0h-1.5V0.8h9.5v2.1h-1.2l0,0
		c-1.3,0-1.7,0.3-1.7,1.2l0,0v13.5l-3.7,0L55.7,5.8v8.5l0,0c0,0.9,0.4,1.2,1.7,1.2l0,0h1.7v2.1h-9.9v-2.1h1.6l0,0
		c1.3,0,1.7-0.3,1.7-1.2l0,0V4.1l0,0c0-0.9-0.4-1.2-1.7-1.2l0,0h-1.6V0.8h8.5L68.1,10.8L68.1,10.8L68.1,10.8z"/>
	<path fill-rule="evenodd" clip-rule="evenodd" d="M36.2,0c-7.6,0-12.3,3.5-12.3,9c0,5.4,4.7,8.9,12.1,8.9c7.9,0,12.5-3.4,12.5-9.2
		C48.5,3.5,43.5,0,36.2,0L36.2,0L36.2,0L36.2,0z M36.1,15.7c-4.2,0-6.6-2.5-6.6-6.8c0-4.2,2.5-6.7,6.8-6.7c4.1,0,6.5,2.5,6.5,6.9
		C42.8,13.3,40.4,15.7,36.1,15.7L36.1,15.7L36.1,15.7L36.1,15.7z"/>
</g>
</svg>
