<?xml version="1.0" encoding="utf-8"?>
<!-- Generator: Adobe Illustrator 17.1.0, SVG Export Plug-In . SVG Version: 6.00 Build 0)  -->
<!DOCTYPE svg PUBLIC "-//W3C//DTD SVG 1.1//EN" "http://www.w3.org/Graphics/SVG/1.1/DTD/svg11.dtd">
<svg version="1.1" id="Layer_1" xmlns="http://www.w3.org/2000/svg" xmlns:xlink="http://www.w3.org/1999/xlink" x="0px" y="0px"
	 viewBox="0 0 68 28" enable-background="new 0 0 68 28" xml:space="preserve">
<g>
	<path d="M34,2.4c-6.5,0-11.8,5.2-11.8,11.6c0,6.4,5.3,11.6,11.8,11.6c6.5,0,11.8-5.2,11.8-11.6C45.9,7.6,40.6,2.4,34,2.4z M34,24.7
		c-6.1,0-11-4.8-11-10.7c0-5.9,4.9-10.7,11-10.7c6.1,0,11,4.8,11,10.7C45,19.9,40.1,24.7,34,24.7z"/>
	<path d="M68,7.1H46.5C44,2.9,39.4,0,34,0c-5.3,0-10,2.9-12.5,7.1h-0.9H0h0c0,0,0.6,0.9,1.8,2.3h0C2.4,10,3,10.8,3.8,11.6h0
		c0.7,0.8,1.5,1.6,2.4,2.5h0c0.7,0.7,1.5,1.5,2.3,2.2h0c0.9,0.8,1.8,1.6,2.8,2.5h0c0.9,0.7,1.8,1.5,2.8,2.2h0
		c1.1,0.8,2.3,1.6,3.5,2.4h0h3.8h1.9C26,26.2,29.8,28,34,28c4.2,0,8-1.8,10.7-4.7h5.6h0C61.1,16.5,68,7.1,68,7.1L68,7.1z M4.3,11.6
		c-0.8-0.8-1.4-1.6-2-2.2h18.2c-0.3,0.7-0.5,1.4-0.6,2.2H4.3z M9,16.3c-0.8-0.7-1.6-1.5-2.3-2.2h13c0,0.8,0.1,1.5,0.2,2.2H9z
		 M14.8,21c-1-0.7-1.9-1.4-2.9-2.2h8.7c0.3,0.8,0.6,1.5,1,2.2H14.8z M34,26.1c-6.8,0-12.4-5.4-12.4-12.1c0-6.7,5.5-12.1,12.4-12.1
		c6.8,0,12.4,5.4,12.4,12.1C46.4,20.7,40.9,26.1,34,26.1z M53.2,21h-6.8c0.4-0.7,0.8-1.4,1-2.2h8.6C55.2,19.5,54.2,20.3,53.2,21z
		 M59,16.3H48.2c0.1-0.7,0.2-1.5,0.2-2.2h13C60.6,14.8,59.8,15.6,59,16.3z M63.7,11.6H48.2c-0.1-0.8-0.3-1.5-0.6-2.2h18.1
		C65.1,10,64.5,10.8,63.7,11.6z"/>
	<rect x="32.5" y="11" width="1.5" height="6"/>
	<path d="M29.7,11h-0.2L27.8,15L26.2,11h-1.7v6h1.3c0,0,0-2.4,0-3.6l1.5,3.6h0.9l1.5-3.5V17h1.5v-6H29.7L29.7,11z"/>
	<polygon points="39.4,14.7 39.4,14.7 36.5,11 35.4,11 35.4,17 36.6,17 36.6,13.4 39.5,17 40.7,17 40.7,11 39.4,11 	"/>
	<rect x="42" y="11" width="1.5" height="6"/>
</g>
</svg>
