<?xml version="1.0" encoding="utf-8"?>
<!-- Generator: Adobe Illustrator 17.1.0, SVG Export Plug-In . SVG Version: 6.00 Build 0)  -->
<!DOCTYPE svg PUBLIC "-//W3C//DTD SVG 1.1//EN" "http://www.w3.org/Graphics/SVG/1.1/DTD/svg11.dtd">
<svg version="1.1" id="Layer_1" xmlns="http://www.w3.org/2000/svg" xmlns:xlink="http://www.w3.org/1999/xlink" x="0px" y="0px"
	 viewBox="0 0 60 24" enable-background="new 0 0 60 24" xml:space="preserve">
<g>
	<path d="M52.4,0.1c-3.6,0-6,1.3-7.7,3.1c-0.3-0.5-0.5-0.8-0.8-1.1C42.5,0.7,40.3,0,37.4,0c-2.9,0-5.3,0.8-6.9,2.1
		C29.6,0.8,27.5,0,25,0c-3.2,0-6.8,0.4-8.9,3.5c-0.1-1.1-0.2-1.7-0.8-2.3c-0.8-0.8-2.2-1-3.5-1C9.4,0.1,7.6,1.1,6.3,3
		C4.5,5.7-0.1,14.7,0,19c0.1,2.8,2.1,4.8,5.8,4.9c2.9,0.1,5.2-0.6,6.6-2c1.3,1.3,3.3,2,5.6,2c2.6,0,5.3-0.7,6.9-2.3
		c1.3,1.5,3.4,2.3,6.1,2.3c3.5,0,6.6-1.5,8.6-3.8c1.1,2.7,3.9,3.8,6.9,3.8c6.7,0,9.6-4.2,12-10.7c0.5-1.5,1.3-4,1.4-6
		C60.2,3.7,58.6,0.1,52.4,0.1z M8,16.6c3.5-0.5,4.3,0.6,4.2,1.6C11.9,21.4,8.7,22.1,6,22c-2,0-3.8-0.9-3.8-3C2,15.4,6.2,6.9,8.1,4
		c0.9-1.3,2-2,3.7-2c1.7,0,2.1,0.8,2,1.7C13.8,6.2,9.4,13.7,8,16.6z M19.2,13.7c-0.2,0.6-0.7,1.7-1,3c1.1-0.3,2-0.4,3.4-0.4
		c1.7,0,2.7,0.7,2.7,1.9c0,3-3.7,3.9-6.2,3.9c-2.8,0-5.3-1.4-5.3-4.2c0-3.3,1.9-8.2,3.8-11.5c2.2-4,4.5-4.6,8.5-4.6
		c1.7,0,3.7,0.7,3.7,2.2c0,2.1-1.9,2.8-3.8,2.9C24.2,7,23,7,22.2,7c0,0-0.6,0.9-1.3,2.4c3.5-0.5,5,0.3,4.4,2.1
		C24.6,14,22.2,14.2,19.2,13.7z M36.6,5.9c-1,0-1.6,0.5-2,1.1c-1,1.3-3.2,6.5-3.6,8.7c-0.2,1.5,0.5,1.8,1.2,1.8
		c1.2,0,2.6-1.2,3.1-3.1c0,0-2.3-0.1-1.7-1.9c0.6-1.8,1.8-2.2,3.8-2.3c3.9-0.1,3.5,2.5,3.2,3.8c-1,4.5-4.5,8.1-9.5,8.1
		c-3.4,0-5.5-1.7-5.5-4.9c0-2.3,1.2-5.8,2.2-7.9c2.1-4.4,4.3-7.5,9.8-7.5c3.3,0,6,1.1,5.6,3.9c-0.3,2.1-1.4,3.3-3.5,3.4
		c-0.6,0-3,0-2.2-2.1C37.7,6.5,37.8,5.9,36.6,5.9z M57.6,9.7c-0.6,2.6-1.9,5.8-3.3,8.1c-2.3,3.8-5.2,4.3-7.7,4.3
		c-2.5,0-5.3-0.9-5.3-4.3c0-2.5,1.2-6,2.2-8.3C45.2,5.3,47,1.9,52.7,2C59.3,2,58.1,7.3,57.6,9.7z M52.9,7.1c-0.1,1.6-2.7,8-3.6,9.4
		c-0.4,0.6-0.8,1.1-1.7,1.1c-0.7,0-1-0.5-1-1c-0.1-1.4,2.9-8.7,3.9-9.8C50.9,6.1,51.4,6,52,6C52.8,6,52.9,6.6,52.9,7.1z"/>
</g>
</svg>
