<?xml version="1.0" encoding="utf-8"?>
<!-- Generator: Adobe Illustrator 17.1.0, SVG Export Plug-In . SVG Version: 6.00 Build 0)  -->
<!DOCTYPE svg PUBLIC "-//W3C//DTD SVG 1.1//EN" "http://www.w3.org/Graphics/SVG/1.1/DTD/svg11.dtd">
<svg version="1.1" id="Layer_1" xmlns="http://www.w3.org/2000/svg" xmlns:xlink="http://www.w3.org/1999/xlink" x="0px" y="0px"
	 viewBox="0 0 76 30" enable-background="new 0 0 76 30" xml:space="preserve">
<g>
	<path fill-rule="evenodd" clip-rule="evenodd" d="M27.1,11.7c0,1.1-0.9,2-2.1,2c-0.5,0-1-0.5-1-1c0-0.5,0.3-0.5,0.3-0.8
		c0-0.2-0.2-0.5-0.5-0.5c-0.4,0-0.8,0.3-0.8,0.7v5.2c0,0.1,0.1,0.2,0.2,0.2l0.5,0.2c0.1,0,0.2,0.1,0.2,0.2v0.4
		c0,0.1-0.1,0.2-0.2,0.2h-3.4c-0.1,0-0.2-0.1-0.2-0.2V16c-1,1-2.9,2.8-3.9,2.8c-1.1,0-1-1.2-1.8-1.2c-0.7,0-0.8,1.2-2.8,1.2
		c-2.2,0-4-2-4-4.5c0-2.5,1.8-4.5,4-4.5c1.8,0,2.2,1,2.7,1c0.3,0,0.4-0.2,0.5-0.5c0-0.1,0.1-0.2,0.2-0.2h2.8c0.1,0,0.2,0.1,0.2,0.2
		v0.4c0,0.1-0.1,0.1-0.2,0.2l-0.5,0.2c-0.1,0-0.2,0.1-0.2,0.2v4.6c0,0.3,0.3,0.6,0.6,0.6c0.6,0,1.8-1,2.5-1.6v-3.3
		c0-0.2-0.2-0.3-0.3-0.3c-0.2,0-0.2,0.2-0.5,0.2c-0.3,0-0.4-0.2-0.4-0.4c0-0.4,0.7-1.1,1.7-1.1c1.8,0,1.5,1.3,2.2,1.3
		c0.6,0,0.7-1.3,2.3-1.3C26.2,9.7,27.1,10.6,27.1,11.7L27.1,11.7z M14.1,12.9c0-0.6-0.8-1.1-1.5-1.1c-1.4,0-2.3,1-2.3,2.5
		c0,1.5,0.9,2.6,2.3,2.6c0.7,0,1.5-0.6,1.5-1.1V12.9L14.1,12.9z"/>
	<path fill-rule="evenodd" clip-rule="evenodd" d="M28,15.7c0,2.2,1.7,2.9,2.9,2.9h6c1.3,0,2.6-1,2.6-2.5c0-2.3-3.7-2.1-3.7-3.5
		c0-0.5,0.5-0.7,1.2-0.7c0.5,0,1.2,0.2,1.6,0.5c0.1,0.1,0.2,0,0.3-0.1l0.9-2c0-0.1,0-0.2-0.2-0.2h-4.3c-1.2,0-2.2,1-2.2,2.2
		c0,2.4,3.2,2,3.2,3.6c0,0.6-0.5,1.2-1.2,1.2c-1.4,0-2-0.9-2.1-1.5c0-0.1-0.1-0.2-0.2-0.1l-0.6,0.2c-0.1,0-0.1,0.2-0.1,0.3
		c0.1,0.1,0.2,0.2,0.2,0.4c0,0.4-0.3,0.7-0.7,0.7c-0.4,0-0.7-0.3-0.7-0.7v-12c0-0.1-0.1-0.2-0.2-0.2h-3.4c-0.1,0-0.2,0.1-0.2,0.2
		v0.4c0,0.1,0.1,0.2,0.2,0.2l0.5,0.2c0.1,0,0.2,0.1,0.2,0.2V15.7L28,15.7z"/>
	<path fill-rule="evenodd" clip-rule="evenodd" d="M76,10.2v0.4c0,0.1-0.1,0.1-0.2,0.2l-0.5,0.2c-0.1,0-0.2,0.1-0.2,0.2v8.8
		c0,2.1-1.9,3.9-4,3.9c-1.5,0-2.8-0.7-3.5-1.8c-0.9,1.6-3.8,4.9-12.3,4.9c-4.7,0-12.6-2.3-16.8-2.3c-5.7,0-9.4,1.5-13.3,5.3
		c-0.1,0.1-0.2,0.1-0.3,0l-7.3-3.9c-0.1,0-0.1-0.2,0-0.3c4.8-4,11.8-6,16.7-6c9.6,0,16.3,4.6,24.2,4.6c6.7,0,8.6-3.2,8.6-4.3
		c0-0.1,0.1-0.2,0.2-0.2H68c0.1,0,0.2,0.1,0.2,0.2c0,1.1,0.9,1.9,2.1,1.9c1.2,0,2-0.9,2-2.1v-1.7c0-0.2-0.1-0.3-0.3-0.3
		c-0.3,0-0.6,0.8-2.3,0.8c-2.2,0-4-2-4-4.5c0-2.5,1.8-4.5,4-4.5c1.8,0,2.2,1,2.7,1c0.3,0,0.4-0.2,0.5-0.5c0-0.1,0.1-0.2,0.2-0.2h2.8
		C75.9,10,76,10.1,76,10.2L76,10.2L76,10.2z M72.2,12.9c0-0.6-0.8-1.1-1.5-1.1c-1.4,0-2.3,1-2.3,2.5c0,1.5,0.9,2.6,2.3,2.6
		c0.7,0,1.5-0.6,1.5-1.1V12.9L72.2,12.9z"/>
	<path fill-rule="evenodd" clip-rule="evenodd" d="M66.4,9.5c0,1.8-1.1,2.7-2.1,2.7c-1.1,0-1-0.7-1.7-0.7c-0.4,0-0.8,0.3-0.8,0.7
		v5.2c0,0.1,0.1,0.2,0.2,0.2l0.5,0.2c0.1,0,0.2,0.1,0.2,0.2v0.4c0,0.1-0.1,0.2-0.2,0.2h-3.4c-0.1,0-0.2-0.1-0.2-0.2v-6.1
		c0-0.5-0.3-0.7-0.7-0.7c-0.4,0-0.9,0.3-1.4,0.7c0,1.9-1.8,3.3-4.5,3.3c0,0.4,0.8,1.7,2.5,1.7c1,0,1.7-0.3,2.2-1
		c0.2-0.3,0.8-0.2,0.5,0.4c-0.3,0.6-1.4,2.1-3.8,2.1c-2.2,0-4.1-1.5-4.6-3.6c-0.5-0.2-1.1-0.4-1.5-0.7v1.6c0,1.4-1,2.4-2.5,2.4h-1.4
		c-2.1,0-3.4-1.1-3.4-2.9V5.2c0-0.1-0.1-0.1-0.2-0.2l-0.5-0.2c-0.1,0-0.2-0.1-0.2-0.2V4.3c0-0.1,0.1-0.2,0.2-0.2h3.4
		c0.1,0,0.2,0.1,0.2,0.2v11.6c0,0.8,0.8,1.2,1.5,1.2c0.7,0,1.4-0.2,1.4-1.1v-2.3L45.1,13c-0.2-0.1-0.3-0.2-0.3-0.4v-2.4
		c0-0.1,0.1-0.2,0.2-0.2h2.5c0.1,0,0.2,0.1,0.2,0.2v3.2c0.4,0.2,0.9,0.5,1.4,0.7c0.1-2.5,2.1-4.4,4.7-4.4c1.4,0,2.3,0.7,2.7,1.5
		c0.8-0.6,2.1-1.5,3.2-1.5c1.2,0,1.2,0.9,1.7,0.9c0.2,0,0.4-0.2,0.4-0.4c0-0.2-0.1-0.4-0.1-0.6c0-0.4,0.4-0.8,0.9-0.8
		c0.8,0,1.3,0.9,2.1,0.9c0.3,0,0.7-0.3,0.7-0.8c0-0.4-0.5-1.1-1-1.5c-0.3-0.3,0-0.8,0.5-0.5C65.9,7.5,66.4,8.5,66.4,9.5L66.4,9.5z
		 M55.1,12.3c0-0.2-0.1-0.9-0.9-0.9c-1,0-2,1.1-2,3.1C54.1,14.5,55.1,13,55.1,12.3L55.1,12.3z"/>
	<path fill-rule="evenodd" clip-rule="evenodd" d="M62.5,1.7c-0.2,0-0.4-0.2-0.4-0.4V0.5c0-0.3-0.2-0.5-0.5-0.5
		c-0.1,0-0.2,0-0.3,0.1c-0.3,0.3-0.8,0.3-1.2,0.2c-0.4-0.1-0.8,0-1,0.3c-0.2,0.3-0.1,0.8,0.2,1c0.4,0.3,0.5,0.7,0.5,1.1
		c0,0.1,0,0.2,0.1,0.3c0.1,0.2,0.5,0.3,0.7,0.2l0.7-0.4c0.2-0.1,0.4,0,0.5,0.1c0.1,0.2,0,0.4-0.1,0.5L60.8,4
		c-0.3,0.1-0.3,0.5-0.2,0.7c0.1,0.1,0.2,0.2,0.3,0.2c0.4,0.2,0.7,0.5,0.8,1c0.1,0.4,0.4,0.7,0.8,0.7c0.4,0,0.7-0.3,0.8-0.7
		c0.1-0.4,0.4-0.8,0.8-1c0.1,0,0.2-0.1,0.3-0.2c0.1-0.2,0.1-0.6-0.2-0.7l-0.7-0.4c-0.2-0.1-0.3-0.3-0.1-0.5c0.1-0.2,0.4-0.3,0.5-0.1
		l0.7,0.4c0.3,0.1,0.6,0.1,0.7-0.2c0.1-0.1,0.1-0.2,0.1-0.3c-0.1-0.4,0.1-0.9,0.5-1.1c0.3-0.2,0.4-0.7,0.2-1c-0.2-0.3-0.6-0.5-1-0.3
		c-0.4,0.2-0.9,0.1-1.2-0.2C63.7,0,63.5,0,63.4,0c-0.3,0-0.5,0.2-0.5,0.5v0.8C62.9,1.5,62.7,1.7,62.5,1.7L62.5,1.7z"/>
	<path fill-rule="evenodd" clip-rule="evenodd" d="M20.6,20.3c-2.2,2.1-5.2,3.5-8.5,3.5C5.6,23.8,0,18.5,0,11.8
		C0,7.2,2.3,3.2,5.8,0.2C5.9,0.1,6,0,6.2,0h15.1c0.1,0,0.2,0.1,0.1,0.3l-5,6.5c-0.1,0.1-0.2,0.1-0.3,0c-0.9-0.9-2.6-1.5-4.1-1.5
		c-4.1,0-7.4,4-7.4,8c0,4.8,4.2,8.8,9.1,8.8c2.3,0,4.7-0.9,6.2-2.3C20.5,19.2,21.1,19.8,20.6,20.3L20.6,20.3z"/>
</g>
</svg>
