<?xml version="1.0" encoding="utf-8"?>
<!-- Generator: Adobe Illustrator 17.1.0, SVG Export Plug-In . SVG Version: 6.00 Build 0)  -->
<!DOCTYPE svg PUBLIC "-//W3C//DTD SVG 1.1//EN" "http://www.w3.org/Graphics/SVG/1.1/DTD/svg11.dtd">
<svg version="1.1" id="Layer_1" xmlns="http://www.w3.org/2000/svg" xmlns:xlink="http://www.w3.org/1999/xlink" x="0px" y="0px"
	 viewBox="0 0 80 12" enable-background="new 0 0 80 12" xml:space="preserve">
<g>
	<polygon fill-rule="evenodd" clip-rule="evenodd" points="19.9,0.5 12.8,0.5 12.8,2.1 14.7,2.1 11.4,8.9 7.8,2.1 10.4,2.1 
		10.4,0.5 0,0.5 0,2.1 2.4,2.1 7.1,11.7 12.9,11.7 17.5,2.1 19.9,2.1 	"/>
	<polygon fill-rule="evenodd" clip-rule="evenodd" points="66.2,0.5 59,0.5 59,2.1 60.9,2.1 57.6,8.9 54,2.1 56.6,2.1 56.6,0.5 
		46.2,0.5 46.2,2.1 48.6,2.1 53.3,11.7 59.1,11.7 63.8,2.1 66.2,2.1 	"/>
	<path fill-rule="evenodd" clip-rule="evenodd" d="M44.1,9.9c-0.8,0-2.5,0-2.5,0V2.1l2.4,0l0-1.6h-9.5v1.6h2.4l0,7.8h-2.5v1.7l2.5,0
		h12V6.5c0,0-0.3,0-1.6,0C47.2,9.2,45,9.9,44.1,9.9z"/>
	<path fill-rule="evenodd" clip-rule="evenodd" d="M26.4,0.2c-4.1,0-7.4,2.6-7.4,5.9c0,3.3,3.3,5.9,7.4,5.9s7.4-2.6,7.4-5.9
		C33.8,2.8,30.5,0.2,26.4,0.2z M26.3,10.3c-1.4,0-2.6-1.9-2.6-4.2c0-2.3,1.2-4.2,2.6-4.2c1.4,0,2.6,1.9,2.6,4.2
		C28.9,8.4,27.7,10.3,26.3,10.3z"/>
	<path fill-rule="evenodd" clip-rule="evenodd" d="M72.6,0c-4.1,0-7.4,2.7-7.4,6c0,3.3,3.3,6,7.4,6c4.1,0,7.4-2.7,7.4-6
		C80,2.7,76.7,0,72.6,0z M72.5,10.2c-1.4,0-2.6-1.9-2.6-4.3c0-2.4,1.2-4.3,2.6-4.3c1.4,0,2.6,1.9,2.6,4.3
		C75.1,8.3,74,10.2,72.5,10.2z"/>
</g>
</svg>
