<?xml version="1.0" encoding="utf-8"?>
<!-- Generator: Adobe Illustrator 17.1.0, SVG Export Plug-In . SVG Version: 6.00 Build 0)  -->
<!DOCTYPE svg PUBLIC "-//W3C//DTD SVG 1.1//EN" "http://www.w3.org/Graphics/SVG/1.1/DTD/svg11.dtd">
<svg version="1.1" id="Layer_1" xmlns="http://www.w3.org/2000/svg" xmlns:xlink="http://www.w3.org/1999/xlink" x="0px" y="0px"
	 viewBox="0 0 29.4 6.2" enable-background="new 0 0 29.4 6.2" xml:space="preserve">
<g>
	<path fill-rule="evenodd" clip-rule="evenodd" d="M6.2,3c-1.2,0-2,0.7-2,1.6c0,0.9,0.8,1.6,2,1.6c1.2,0,2-0.7,2-1.6
		C8.2,3.7,7.4,3,6.2,3z M6.2,5.5c-0.7,0-1.2-0.4-1.2-0.9c0-0.6,0.5-0.9,1.2-0.9c0.7,0,1.2,0.4,1.2,0.9C7.4,5.2,6.9,5.5,6.2,5.5z"/>
	<path fill-rule="evenodd" clip-rule="evenodd" d="M9.3,3.1H8.5v3h0.8V4.5c0-0.3,0-0.6,0.4-0.7c0.1,0,0.3-0.1,0.4-0.1h0.1V3
		c0,0-0.5,0-0.9,0.3C9.3,3.3,9.3,3.1,9.3,3.1z"/>
	<path fill-rule="evenodd" clip-rule="evenodd" d="M13.5,3.3C13.1,3.1,12.7,3,12.3,3c-1.2,0-2,0.6-2,1.6c0,0.9,0.8,1.6,2,1.6
		c0.5,0,0.9-0.1,1.2-0.3c0,0.1,0,0.2,0,0.2h0.8V2h-0.8C13.5,2,13.5,3.2,13.5,3.3z M12.3,5.5c-0.7,0-1.2-0.4-1.2-0.9
		c0-0.6,0.5-0.9,1.2-0.9c0.7,0,1.2,0.4,1.2,0.9C13.4,5.2,13,5.5,12.3,5.5z"/>
	<path fill-rule="evenodd" clip-rule="evenodd" d="M20.8,3c-1.2,0-2,0.7-2,1.6c0,1,0.8,1.6,2,1.6c0.5,0,0.9-0.1,1.2-0.3
		c0,0.1,0,0.2,0,0.2h0.8V4.6C22.8,3.7,22,3,20.8,3z M20.8,5.5c-0.7,0-1.2-0.4-1.2-0.9c0-0.5,0.5-0.9,1.2-0.9c0.7,0,1.2,0.4,1.2,0.9
		C22,5.2,21.5,5.5,20.8,5.5z"/>
	<path fill-rule="evenodd" clip-rule="evenodd" d="M16.6,3c-1.1,0-2,0.7-2,1.6c0,0.8,0.8,1.6,2,1.6c0.4,0,0.8-0.1,1.1-0.3
		c0.4-0.2,0.7-0.5,0.8-1l-0.9,0.2c-0.2,0.2-0.5,0.4-1,0.4c-0.4,0-0.7-0.1-0.9-0.4c0,0,2.9-0.6,2.9-0.6C18.5,4,18.1,3,16.6,3z
		 M15.4,4.5c0-0.5,0.5-0.8,1.1-0.9c0.5,0,0.8,0.2,1,0.4C17.5,4.1,15.5,4.5,15.4,4.5z"/>
	<path fill-rule="evenodd" clip-rule="evenodd" d="M3.1,4.9L0.8,2.4H0c0,0.1,0,3.7,0,3.7h0.8V3.6l2.4,2.5l0.8,0V2.4H3.1V4.9z"/>
	<path fill-rule="evenodd" clip-rule="evenodd" d="M28,0.6c-0.3-0.7-2.1-0.8-4.6-0.2c0.4,0.4,0.7,1,0.9,1.7c0.3,1.1,0.1,2.1-0.3,2.6
		C26.1,4.1,28.4,1.8,28,0.6z"/>
	<path fill-rule="evenodd" clip-rule="evenodd" d="M28.2,0c0.1,0.1,0.1,0.2,0.1,0.3c0.1,0.4,0.1,0.8-0.2,1.4c-0.5,1-1.8,2.2-3.1,2.9
		c0.2-0.1,0.4-0.1,0.7-0.1C27,4.2,28,4.3,28.5,4.5c0.4-0.5,0.7-1.3,0.9-2.2C29.6,1.1,29,0.1,28.2,0z"/>
</g>
</svg>
