<?xml version="1.0" encoding="utf-8"?>
<!-- Generator: Adobe Illustrator 18.0.0, SVG Export Plug-In . SVG Version: 6.00 Build 0)  -->
<!DOCTYPE svg PUBLIC "-//W3C//DTD SVG 1.1//EN" "http://www.w3.org/Graphics/SVG/1.1/DTD/svg11.dtd">
<svg version="1.1" id="Layer_1" xmlns="http://www.w3.org/2000/svg" xmlns:xlink="http://www.w3.org/1999/xlink" x="0px" y="0px"
	 viewBox="0 0 220 202.6" enable-background="new 0 0 220 202.6" xml:space="preserve">
<g>
	<path fill="#999999" d="M125.1,114.6h-7.8l-1.9,5.7h-4.1l7.8-22.1h4.2l7.8,22.1H127L125.1,114.6z M121.2,102c0,0-0.5,2.2-0.9,3.4
		l-2,5.9h5.8l-2-5.9C121.8,104.2,121.3,102,121.2,102L121.2,102z"/>
	<path fill="#999999" d="M137.1,98.2h7.1c2.4,0,3.5,0.2,4.5,0.6c2.2,1,3.6,3.1,3.6,6c0,2.7-1.4,5.1-3.7,6.1v0.1c0,0,0.3,0.3,0.8,1.1
		l4.6,8.3h-4.5L145,112h-3.9v8.3h-4V98.2z M144.7,108.5c2.1,0,3.5-1.3,3.5-3.5c0-2.1-0.9-3.4-4-3.4h-3.1v6.9L144.7,108.5z"/>
	<path fill="#999999" d="M160.7,98.2h7.5c6.8,0,11.3,4.1,11.3,11c0,7-4.5,11.1-11.3,11.1h-7.5V98.2z M168.1,116.8
		c4.5,0,7.4-2.6,7.4-7.6c0-4.9-2.9-7.6-7.4-7.6h-3.3v15.2H168.1z"/>
	<path fill="#999999" d="M186.8,114.6c0,0,2.4,2.3,5.5,2.3c1.7,0,3.2-0.9,3.2-2.7c0-4-10.4-3.3-10.4-10.1c0-3.7,3.2-6.4,7.4-6.4
		c4.4,0,6.6,2.4,6.6,2.4l-1.7,3.3c0,0-2.1-1.9-4.9-1.9c-1.9,0-3.3,1.1-3.3,2.7c0,3.9,10.4,3,10.4,10c0,3.5-2.7,6.5-7.3,6.5
		c-4.9,0-7.6-3-7.6-3L186.8,114.6z"/>
	<path fill="#999999" d="M79.8,98.2l-3.6,15.3c-0.3,1.2-0.4,2.3-0.4,2.3h-0.1c0,0-0.1-1.1-0.4-2.3l-3.9-15.3h-3.5l-4,15.3
		c-0.3,1.3-0.4,2.3-0.4,2.3h-0.1c0,0-0.1-1.1-0.4-2.3L60.4,102l-2,8.4l2.5,9.9h4.6l3.4-13.1c0.4-1.4,0.6-2.9,0.6-2.9h0.1
		c0,0,0.2,1.5,0.6,2.9l3.4,13.1h4.6l5.7-22.1L79.8,98.2z"/>
	<path fill="#999999" d="M104.7,98.2l-3.6,15.3c-0.3,1.2-0.4,2.3-0.4,2.3h-0.1c0,0-0.1-1.1-0.4-2.3l-3.9-15.3h-3.5l-4,15.3
		c-0.3,1.3-0.4,2.3-0.4,2.3h-0.1c0,0-0.1-1.1-0.4-2.3L85.4,102l-2,8.4l2.5,10h4.6l3.4-13.1c0.4-1.4,0.6-2.9,0.6-2.9h0.1
		c0,0,0.2,1.5,0.6,2.9l3.4,13.1h4.6l5.7-22.1H104.7z"/>
	<path fill="#999999" d="M22.4,114.6h-7.8l-1.9,5.7H8.6l7.8-22.1h4.2l7.8,22.1h-4.1L22.4,114.6z M18.5,102c0,0-0.5,2.2-0.9,3.4
		l-2,5.9h5.8l-2-5.9C19,104.2,18.5,102,18.5,102L18.5,102z"/>
	<path fill="#999999" d="M50.3,113.5c0.3,1.3,0.4,2.3,0.4,2.3h0.1c0,0,0.1-1.1,0.4-2.3l3.6-15.3h4.1l-5.7,22.1h-4.6l-3.4-13.1
		c-0.4-1.4-0.6-2.9-0.6-2.9h-0.1c0,0-0.2,1.5-0.6,2.9l-3.4,13.1H36l-5.5-22.1h4.1l3.5,15.3c0.3,1.2,0.4,2.3,0.4,2.3h0.1
		c0,0,0.1-1.1,0.4-2.3l4-15.3h3.5L50.3,113.5z"/>
	<path fill="#999999" d="M208.2,105.4c2.1,0,3.8,1.7,3.8,3.9c0,2.2-1.7,3.9-3.8,3.9c-2.1,0-3.8-1.7-3.8-3.9
		C204.4,107.1,206.1,105.4,208.2,105.4z M208.2,112.6c1.9,0,3.3-1.5,3.3-3.4c0-1.9-1.4-3.4-3.3-3.4c-1.8,0-3.3,1.5-3.3,3.4
		C204.9,111.2,206.4,112.6,208.2,112.6z M207,107.1h1.4c0.7,0,1.2,0.5,1.2,1.2c0,0.6-0.4,1-0.8,1.1v0c0,0,0,0.1,0.1,0.2l0.8,1.6
		h-0.5l-0.9-1.8h-0.9v1.8H207L207,107.1z M208.3,109.2c0.5,0,0.8-0.3,0.8-0.8c0-0.5-0.3-0.8-0.8-0.8h-0.9v1.7H208.3z"/>
</g>
</svg>
