<?xml version="1.0" encoding="utf-8"?>
<!-- Generator: Adobe Illustrator 18.0.0, SVG Export Plug-In . SVG Version: 6.00 Build 0)  -->
<!DOCTYPE svg PUBLIC "-//W3C//DTD SVG 1.1//EN" "http://www.w3.org/Graphics/SVG/1.1/DTD/svg11.dtd">
<svg version="1.1" id="Layer_1" xmlns="http://www.w3.org/2000/svg" xmlns:xlink="http://www.w3.org/1999/xlink" x="0px" y="0px"
	 viewBox="0 0 180 165.8" enable-background="new 0 0 180 165.8" xml:space="preserve">
<g id="_x33_1lxDj_1_" fill="#ffffff">
	<g>
		<path d="M87.9,142.2c7.8-0.3,15.4,2.4,18.1,6.5c-1.2,0.2-2.3,0.6-3.4,0.6c-5.7,0.2-10.8-1.4-15-5.4c-1-1-1.3-2-0.7-3.3
			c2.4-5.9,6.7-9.7,12.8-11.5c0.4-0.1,0.8-0.1,1.5-0.1C99,135.8,94.3,139.6,87.9,142.2z"/>
		<path d="M61.8,148.5c5.1-5,11.2-6.5,17.9-6.4c-6-2.5-10.8-6.3-12.9-13.2c1,0.2,1.8,0.3,2.5,0.5c5.6,2,9.6,5.7,11.8,11.3
			c0.4,0.9,0.4,1.8-0.2,2.6C77.5,148,67.5,150.8,61.8,148.5z"/>
		<path d="M136.6,127.1c-0.4,0.5-0.6,0.8-0.9,1c-5.2,4-11,5-17.4,3.5c-1.7-0.4-2.6-1.3-2.6-3.2c0-6.3,2.2-11.5,7.1-15.5
			c0.2-0.2,0.5-0.2,0.9-0.5c0.6,6.5-1.4,12-5.8,17C124,126.3,130,125,136.6,127.1z"/>
		<path d="M44.7,112.3c1.2,1.3,2.6,2.5,3.7,4c2.7,3.7,4.1,7.9,3.7,12.6c-0.1,1.4-0.8,2.1-2,2.5c-4.4,1.5-8.7,1.1-13-0.5
			c-2.1-0.8-4-1.9-5.7-3.5c3.2-2.4,11.8-1.5,18.7,2.1c-4.5-5-6.5-10.5-5.9-16.8C44.4,112.5,44.5,112.4,44.7,112.3z"/>
		<path d="M21.2,51.7c3.8,2.6,6.1,9.7,5.7,16.9C30.3,61,35.3,56.1,40,56c-0.1,0.5-0.1,1.1-0.3,1.6c-1.8,5.7-5.5,9.8-11.1,12.2
			c-1.5,0.6-2.7,0.4-3.7-0.8C20.8,63.8,19.6,58.2,21.2,51.7z"/>
		<path d="M146.5,51.5c1.4,3.7,1.1,7.2,0.1,10.5c-0.8,2.7-2,5.2-4.1,7.2c-0.8,0.7-1.6,1-2.6,0.6c-6.2-2.3-10.1-6.7-12-13
			c-0.1-0.3,0-0.6,0-1.2c6.6,1.7,10.1,6.4,12.9,12.3C140.9,61.9,142,56.3,146.5,51.5z"/>
		<path d="M63.9,138c-5-3.5-7.9-8.3-8.3-14.4c0.1-0.1,0.2-0.2,0.3-0.4c1.2,0.9,2.6,1.6,3.7,2.6c3,2.8,4.9,6.3,5.6,10.5
			c0.2,1.6-0.1,2.8-1.7,3.7c-5.6,3-11.3,3.4-17.2,1c-0.4-0.2-0.8-0.4-1.5-0.8C51,136.3,57.3,136.5,63.9,138z"/>
		<path d="M31,35.8c2.7,5.6,2.1,10.9,0.4,16.6c4.1-4.5,8.6-7.3,14.5-7.3c0.1,0.1,0.2,0.2,0.3,0.4c-0.5,0.8-1,1.7-1.6,2.4
			c-3.3,3.7-7.3,6-12.3,6.4c-1.5,0.1-2.5-0.4-3.1-1.9c-2-5.1-1.8-10.1,0.7-15C30.1,37,30.5,36.6,31,35.8z"/>
		<path d="M136.5,52.4c-2-7.7-1.9-13,0.5-16.4c1.3,1.4,1.9,3,2.4,4.7c1.1,4.1,1,8.1-0.8,12.1c-0.5,1-1.1,1.4-2.2,1.5
			c-5,0.4-12.4-3.9-14.5-8.5c-0.1-0.1-0.1-0.3-0.1-0.6C127.9,45,132.4,47.9,136.5,52.4z"/>
		<path d="M67.4,32c-2.1,1.5-4.1,2-6.3,2.3c-3.3,0.5-6.7,0.5-9.9-0.6c-2.3-0.8-2.8-1.3-2.5-3.7c0.5-5.8,3.2-10.3,8.3-13.3
			c0.3,5.8-2.4,10.4-6.4,14.7C56.4,29.1,61.9,28.8,67.4,32z"/>
		<path d="M111.2,16.4c1.3,1.2,2.7,2.2,3.8,3.5c2.6,3.1,4.1,6.7,4.2,10.8c0,1.4-0.6,2.2-1.8,2.7c-3.5,1.4-7.1,1.5-10.8,0.9
			c-2.1-0.3-4.1-0.8-6.1-2.3c5.6-3.2,11.1-2.9,16.8-0.6c-3.9-4.3-6.7-8.9-6.6-14.6C110.8,16.6,111,16.5,111.2,16.4z"/>
		<path d="M125.3,24.1c1.9,2,2.7,4.1,3.3,6.3c0.7,3,0.7,5.9-0.1,8.8c-0.5,1.7-1.4,2.8-3.3,3c-5.6,0.6-10.7-0.6-15.3-4
			c-0.1-0.1-0.2-0.3-0.5-0.6c6.3-2.1,11.9-0.7,17.1,3C124.1,35.3,123.2,30,125.3,24.1z"/>
		<path d="M39.4,118.8c-1.5,0.1-3,0.5-4.4,0.3c-5.9-0.9-10.7-3.7-14.3-8.5c-0.3-0.4-0.5-0.8-0.7-1.2c-0.1-0.2-0.1-0.3-0.3-0.9
			c1.8,0.2,3.4,0.2,5,0.6c4.9,1.2,9.2,3.7,12.8,7.4c0.3,0.3,0.7,0.6,1,0.9C38.8,117.9,39.1,118.4,39.4,118.8z"/>
		<path d="M129.4,117.6c2.7-2.8,5.6-5.1,9.1-6.7c3-1.4,6.1-2.5,9.9-2c-0.6,0.9-1,1.8-1.6,2.5c-3.9,4.7-9,7.5-15.1,8
			c-1,0.1-2-0.4-3-0.6C128.9,118.4,129.1,118,129.4,117.6z"/>
		<path d="M103.8,138.2c4.8-1.5,9.6-1.6,14.5-0.2c1.6,0.5,3.1,1.3,4.6,2c0,0.1,0,0.3-0.1,0.4c-0.4,0.2-0.7,0.5-1.1,0.6
			c-6,2.4-11.9,2.1-17.5-1.2c-0.4-0.2-0.6-0.9-0.9-1.3C103.4,138.4,103.6,138.3,103.8,138.2z"/>
		<path d="M129.4,117.6c-0.2,0.4-0.5,0.8-0.7,1.2c-0.4-0.3-0.9-0.6-1.1-1c-1.9-4-2-8.3-1.1-12.6c0.1-0.3,0.6-0.6,0.9-0.7
			c0.5-0.1,1.1,0,1.6,0c3.6,0.1,3.2-0.6,3.1,3.2C132.1,111.2,130.9,114.5,129.4,117.6z"/>
		<path d="M39.4,118.8c-0.3-0.5-0.6-1-0.9-1.5c-1.9-3.6-2.8-7.5-2.7-11.6c0-1.1,0.4-1.5,1.4-1.4c1.1,0.1,2.2,0,3.3,0.1
			c0.4,0,1,0.5,1,0.8c0.8,4.2,0.8,8.4-1.1,12.3C40.2,118,39.7,118.4,39.4,118.8z"/>
		<path d="M103.8,138.2c-0.2,0.1-0.4,0.2-0.6,0.3c-0.2-0.2-0.5-0.3-0.5-0.5c-0.4-5.2,4.5-12.9,9.2-14.4
			C113.3,127.1,109.3,134.1,103.8,138.2z"/>
		<path d="M41.3,40.8c4.3-3.4,9.2-4.8,14.7-3.9c0.5,0.1,1,0.3,1.4,0.4c0.3,0.1,0.6,0.3,1,0.5c-0.4,0.3-0.6,0.6-0.9,0.8
			c-4.7,3.2-9.8,4.4-15.4,3.5c-0.5-0.1-0.9-0.5-1.4-0.7C40.9,41.2,41.1,41,41.3,40.8z"/>
		<path d="M41.3,40.8c-0.2,0.2-0.4,0.4-0.5,0.6c-0.2-0.1-0.5-0.2-0.6-0.4c-2.5-4.1-1.3-13.1,2.3-16.6c1,1.4,1.2,3,1.3,4.6
			c0.2,3.8-0.4,7.5-2.2,11C41.4,40.2,41.4,40.5,41.3,40.8z"/>
		<path d="M70.7,16.4c-0.1,4.2-6.8,9.6-11.4,9.1C59.4,21.2,65.4,16.4,70.7,16.4z"/>
		<path d="M108.7,25.5c-4.3,0.7-11.1-4.5-11.5-8.9C101.4,15.6,108.1,20.8,108.7,25.5z"/>
		<path d="M132.4,68.5c2.5,1.5,4.1,3.2,5.7,5.5c-1.9,0-3.4,0-4.9,0c-0.3,0-0.7-0.5-0.7-0.7C132.4,71.8,132.4,70.4,132.4,68.5z"/>
		<path d="M29.8,74c1.7-2.3,3.2-4.1,5.7-5.4c0,1.8,0,3.3,0,4.7c0,0.2-0.5,0.7-0.8,0.7C33.2,74.1,31.7,74,29.8,74z"/>
		<path d="M151.1,74c-1.6,0-3,0-4.5,0c-0.1-0.1-0.2-0.2-0.3-0.3c1.4-1.4,2.9-2.8,4.3-4.1c0.1,0.1,0.3,0.2,0.4,0.2
			C151.1,71.1,151.1,72.4,151.1,74z"/>
		<path d="M17.2,69.5c1.4,1.4,2.9,2.8,4.3,4.1c-0.1,0.1-0.2,0.2-0.2,0.3c-1.4,0-2.9,0-4.5,0c0-1.4,0-2.8,0-4.2
			C16.9,69.7,17.1,69.6,17.2,69.5z"/>
	</g>
</g>
<g fill="#ffffff">
	<path d="M102.2,94.6h-6.1l-1.5,4.5h-3.3l6.1-17.4h3.3l6.1,17.4h-3.3L102.2,94.6z M99.1,84.7c0,0-0.4,1.7-0.7,2.7L96.8,92h4.6
		l-1.5-4.7C99.5,86.4,99.2,84.7,99.1,84.7L99.1,84.7z"/>
	<path d="M111.6,81.7h5.6c1.9,0,2.7,0.1,3.5,0.5c1.7,0.8,2.8,2.5,2.8,4.8c0,2.1-1.1,4-2.9,4.8v0c0,0,0.2,0.2,0.6,0.9l3.6,6.5h-3.5
		l-3.5-6.5h-3v6.5h-3.2V81.7z M117.6,89.8c1.7,0,2.7-1,2.7-2.7c0-1.7-0.7-2.7-3.2-2.7h-2.4v5.4L117.6,89.8z"/>
	<g>
		<path d="M130.2,81.7h5.9c5.4,0,8.9,3.2,8.9,8.7c0,5.5-3.5,8.7-8.9,8.7h-5.9V81.7z M135.9,96.4c3.5,0,5.8-2.1,5.8-6
			c0-3.9-2.3-6-5.8-6h-2.6v12H135.9z"/>
		<path d="M150.7,94.6c0,0,1.9,1.8,4.3,1.8c1.3,0,2.5-0.7,2.5-2.1c0-3.1-8.2-2.6-8.2-7.9c0-2.9,2.5-5.1,5.8-5.1
			c3.4,0,5.2,1.9,5.2,1.9l-1.4,2.6c0,0-1.7-1.5-3.9-1.5c-1.5,0-2.6,0.9-2.6,2.1c0,3.1,8.2,2.3,8.2,7.9c0,2.8-2.1,5.1-5.7,5.1
			c-3.9,0-6-2.4-6-2.4L150.7,94.6z"/>
	</g>
	<path d="M65.5,81.7l-2.9,12c-0.2,1-0.3,1.8-0.3,1.8h0c0,0,0-0.8-0.3-1.8l-3.1-12h-2.7l-3.1,12c-0.3,1-0.3,1.8-0.3,1.8h0
		c0,0-0.1-0.9-0.3-1.8l-2.1-9l-1.5,6.6l2,7.8h3.7L57,88.8c0.3-1.1,0.4-2.3,0.4-2.3h0c0,0,0.1,1.2,0.4,2.3l2.7,10.3h3.7l4.5-17.4
		L65.5,81.7z"/>
	<path d="M85.1,81.7l-2.9,12c-0.2,1-0.3,1.8-0.3,1.8h-0.1c0,0,0-0.8-0.3-1.8l-3.1-12h-2.7l-3.1,12c-0.3,1-0.3,1.8-0.3,1.8h0
		c0,0-0.1-0.9-0.3-1.8l-2.1-9.1l-1.5,6.6l2,7.8H74l2.7-10.3c0.3-1.1,0.4-2.3,0.4-2.3h0c0,0,0.1,1.1,0.4,2.3l2.7,10.3h3.6l4.5-17.4
		H85.1z"/>
	<path d="M20.3,94.6h-6.1l-1.5,4.5H9.5l6.1-17.4h3.3l6.1,17.4h-3.3L20.3,94.6z M17.3,84.7c0,0-0.4,1.7-0.7,2.7L15,92h4.6L18,87.4
		C17.7,86.4,17.3,84.7,17.3,84.7L17.3,84.7z"/>
	<path d="M42.3,93.7c0.3,1,0.3,1.8,0.3,1.8h0.1c0,0,0.1-0.9,0.3-1.8l2.9-12h3.3l-4.5,17.4H41l-2.7-10.3c-0.3-1.1-0.4-2.3-0.4-2.3h0
		c0,0-0.1,1.2-0.4,2.3l-2.7,10.3H31l-4.4-17.4h3.3l2.7,12c0.2,1,0.3,1.8,0.3,1.8h0c0,0,0-0.8,0.3-1.8l3.1-12h2.7L42.3,93.7z"/>
</g>
</svg>
