<?xml version="1.0" encoding="utf-8"?>
<!-- Generator: Adobe Illustrator 18.0.0, SVG Export Plug-In . SVG Version: 6.00 Build 0)  -->
<!DOCTYPE svg PUBLIC "-//W3C//DTD SVG 1.1//EN" "http://www.w3.org/Graphics/SVG/1.1/DTD/svg11.dtd">
<svg version="1.1" id="Layer_1" xmlns="http://www.w3.org/2000/svg" xmlns:xlink="http://www.w3.org/1999/xlink" x="0px" y="0px"
	 viewBox="0 0 220 202.6" enable-background="new 0 0 220 202.6" xml:space="preserve">
<g>
	<path fill="#999999" d="M66.2,100.1c-0.8,3.4-3.8,5.7-7.4,5.7c-4.6,0-7.7-3.6-7.7-7.6c0-3.7,2.9-7.5,7.6-7.5c4.6,0,7,3.5,7.4,5.8
		h-3.9c-0.4-1.1-1.5-2.5-3.5-2.5c-2.5,0-3.9,2.2-3.9,4.3c0,2.2,1.5,4.3,3.9,4.3c2.3,0,3.3-2,3.5-2.5H66.2z"/>
	<path fill="#999999" d="M70.5,103.4l-0.8,2.1h-4l5.9-14.6h2.9l5.8,14.6h-4l-0.7-2.1H70.5z M71.5,100.4h3.1l-1.5-5h0h0L71.5,100.4z"
		/>
	<polygon fill="#999999" points="81.3,90.9 84.5,90.9 90.2,100.1 90.2,100.1 90,90.9 93.6,90.9 93.6,105.5 90.4,105.5 84.8,96.6 
		84.8,96.7 84.9,105.5 81.3,105.5 	"/>
	<polygon fill="#999999" points="95.8,90.9 99,90.9 104.6,100.1 104.7,100.1 104.5,90.9 108.1,90.9 108.1,105.5 104.8,105.5 
		99.3,96.6 99.2,96.7 99.3,105.5 95.8,105.5 	"/>
	<polygon fill="#999999" points="110.2,90.9 118.3,90.9 118.3,94.2 113.8,94.2 113.8,96.5 118.2,96.5 118.2,99.7 113.8,99.7 
		113.8,102.2 118.3,102.2 118.3,105.5 110.2,105.5 	"/>
	<path fill="#999999" d="M125.9,95.2c-0.1-0.5-0.2-1.4-1.3-1.4c-0.7,0-1.3,0.5-1.3,1.1c0,0.9,0.4,1,3,2.2c2.7,1.2,3.4,2.5,3.4,4.2
		c0,2.1-1.2,4.5-5.1,4.5c-4.2,0-5.3-2.8-5.3-4.6v-0.5h3.7c0,1.7,1,2,1.5,2c0.9,0,1.4-0.7,1.4-1.4c0-1-0.6-1.2-2.9-2.1
		c-1-0.4-3.6-1.4-3.6-4.2c0-2.7,2.7-4.3,5.1-4.3c1.4,0,3,0.5,3.9,1.7c0.9,1.1,0.9,2,1,2.9H125.9z"/>
	<polygon fill="#999999" points="51.2,106.7 56.8,106.7 56.8,123.8 63.3,123.8 63.3,128.8 51.2,128.8 	"/>
	<rect x="64.9" y="106.7" fill="#999999" width="5.6" height="22.1"/>
	<path fill="#999999" d="M84.6,106.3c6.8,0,11.7,5.3,11.7,11.4c0,6.1-4.8,11.4-11.7,11.4c-6.9,0-11.6-5.5-11.6-11.2
		c0-1.5,0.2-3.1,0.9-4.7C75,110.4,78.5,106.3,84.6,106.3z M84.7,124.2c4,0,5.9-3.6,5.9-6.5c0-2.9-1.9-6.5-6-6.5c-3.9,0-6,3.3-6,6.4
		C78.6,121.1,80.9,124.2,84.7,124.2z"/>
	<polygon fill="#999999" points="98.7,106.7 103.6,106.7 112.1,120.6 112.2,120.5 111.9,106.7 117.3,106.7 117.3,128.8 112.4,128.8 
		104,115.4 104,115.4 104.1,128.8 98.7,128.8 	"/>
	<path fill="#999999" d="M129.4,113.2c-0.1-0.7-0.3-2.1-2-2.1c-1,0-1.9,0.7-1.9,1.7c0,1.3,0.6,1.6,4.6,3.4c4.1,1.8,5.2,3.8,5.2,6.3
		c0,3.2-1.8,6.8-7.7,6.8c-6.4,0-8-4.2-8-7v-0.7h5.6c0,2.6,1.6,3,2.3,3c1.3,0,2.1-1.1,2.1-2.1c0-1.5-0.9-1.8-4.3-3.2
		c-1.5-0.6-5.4-2.2-5.4-6.3c0-4.1,4-6.5,7.7-6.5c2.2,0,4.5,0.8,6,2.5c1.3,1.6,1.4,3.1,1.5,4.4H129.4z"/>
	<path fill="#999999" d="M147.5,103.3c0,0.3,0.3,0,0.5-0.3c0.3-0.4,1.3-2,2.9-4.8c1.6-2.8,2.6-5.2,2.5-5.3c-0.1-0.1-0.3,0.2-0.6,0.4
		c-0.3,0.2-0.8,0.7-1.2,1.3c-0.4,0.6-0.8,0.5-1.4,0.6c-0.6,0.1-1.6,1.2-2.2,1.7c-0.6,0.5-1.4,0.9-2.1,1.1c-0.8,0.1-0.9-0.2-1.3-0.2
		c-0.3,0.1-0.3,0.6-0.2,1c0.1,0.4,0,0.6,0,1.2c-0.1,0.7,0.4,1.3,0.8,1.7c0.4,0.4,0.3,1,0.5,1.2c0.3,0.2,0.4-1.2,0.4-2
		c0-0.8-0.2-1.7-0.2-1.8c0-0.1,0.7-0.3,1-0.5c0.3-0.2,1.1-0.8,1.5-1c0.4-0.2,0.4-0.1,0.3,0.2c-0.1,0.2-0.3,0.6-0.7,0.9
		c-0.4,0.4-1.5,0.7-1.7,0.7c-0.2,0-0.2,0.2,0,0.4c0.2,0.2,0.8,0.2,1.3,0.1c0.5-0.1,0.4,0.5,0.4,1.2C148,101.7,147.6,103,147.5,103.3
		z M135.4,104.7c0.4,0.3,1.3,1.9,1.2,1.6c-0.1-0.2,0.3-1.7-0.6-3.4c-1-1.8-1.3-2.4-1.7-4.2c-0.4-1.8-1.2-3.2,0.1-4.3
		c1.3-1.1,2.3-2.7,2.7-4.3c0.4-1.7,1.8-3,3.3-4.8c1.5-1.8,1.8-2.1,1.8-2.1c-0.4,0.5-1.1,2.4-1.4,3.5c-0.3,1-2,3.3-2.7,4.5
		c-0.7,1.2-2.4,3.5-2.6,5.7c-0.1,2.2,1.6,4.7,1.9,5.7c0.3,0.9-0.4,3.6,0.3,5.5c0.6,1.9,2.4,3.7,2.8,3.9c0.3,0.2,0.3,0,0.1-0.1
		c-0.1-0.1-0.3-0.3-0.8-1.2c-0.4-0.9-0.2-1.9,0.1-3.3c0.3-1.4,0.5-2.5,0.3-3.9c-0.1-1.4-1.2-3.7-1.6-5.2c-0.3-1.4,0.5-2.8,2-5.3
		c1.4-2.4,1.6-4.5,1.8-6c0.2-1.5,1-3.7,3.3-4.6c1.3-0.5,5,0.2,6.9,1.4c1.4,0.9,2,1.7,2.2,2.7c0.2,1.1-0.5,1.9-0.9,3
		c-0.4,1.1-0.7,2.4-0.2,2.3c0.4,0,5.4-4.2,6.5-5.4c0.5-0.6,1.3-2.1,0.2-3.5c-0.9-1.2-7.3-1.7-8.5-3.4c-1.1-1.5-3.9-1.4-4.8-0.9
		c-0.8,0.5-2.5,1.9-4.1,2.5c-1.7,0.6-3.4,0.8-5.6,2c-2.2,1.1-2.1,2.5-2.4,3.4c-0.2,1-0.4,3.6-2.2,6.3c-1.8,2.8-0.8,4.7,0.1,7.5
		C133.6,103,134.9,104.4,135.4,104.7z M160.6,123.2c-3.8,4.9-10.2,4.7-14.6,6.4c-5.1,2-8.6,5.6-9.5,6.5c-1.6,1.6-3.5,1.2-4.6,1.1
		c-1.1-0.1-2.1-0.6-2.5-0.7c-0.4-0.1-1.5,0-1.5,0s0-0.5,0.4-0.7c0.4-0.2,1.1-0.3,2.5-0.6c1.3-0.3,2.4-1,2.9-1.3
		c0.5-0.3,0.2-0.5-0.2-0.4c-0.3,0.1-1.4,0.5-3.3,0.8c-1.9,0.3-2.5,0.1-3.2,0.6c-0.7,0.5-0.6,1.7-0.7,2.1c-0.2,0.3-0.3,0.4-0.5,0.2
		c-0.2-0.2-0.3-1-0.2-1.7c0.2-0.7,1.3-1.3,2.3-1.5c1-0.2,3.2-0.4,5.6-1.6c7-3.7,10.1-6.5,16.3-11.3c6.6-5.1,12.5-7.9,17.1-10.1
		c2.8-1.4,11.3-2.4,11.3-2.4s-1.2-0.8-2.5-1c-0.7-0.1-1.5-0.1-2.2-0.1c1.1-0.6,4.1-2.9,4.5-5.8c0.6-3.9-4.6-7.1-4.7-10.7
		c-0.2-8.3-8.5-9.4-8.1-9.2c1.6,1,3.2,2.8,3.5,3.9c0.5,1.9-1.1,4.1-3.5,4.9c-1.2,0.4-7.5,1.8-8.4,2.6c-0.9,0.9,0.9,5.4-0.2,7.2
		c-1.1,1.8-7.5,4.9-8.2,5.8c-0.8,0.9-1.6,0.6-1.8,0.6c-0.3,0-0.1,0.3,0.7,0.5c0.8,0.2,2.1-0.3,2.9-0.7c0.8-0.4,1.9,0.5,1.8,1.1
		c-0.1,0.6-0.8,0.8-2.2,1.7c-1.1,0.7-4.4-1.3-4.6-2c-0.3-0.7,0.7-0.4,1.3-1.2c0.6-0.7-0.4-0.8-0.8-0.7c-0.4,0.1-0.6-0.1-1-0.2
		c-0.4-0.1-0.9,0-1.1,0.3c-0.2,0.3,0,0.5-0.9,0.6c-0.9,0.1-0.5-1-0.3-2.1c0.2-1.2,0.9-4.2,0.8-4.6c-0.1-0.4-0.2-0.2-0.5-0.6
		c-0.3-0.4-0.3-1-0.4-2.1c0-1.1,0.1-3.1,0.1-3.1s-0.7,1-1,2.7c-0.3,1.7,0.9,2.7,0.9,3c0,0.3,0,0.9-0.6,4c-0.5,3.1,0.1,3.7,0.8,4.2
		c0.7,0.5,3.7,2.1,3.7,2.1l-0.1,1.4c0,0-1.5,0.5-2.9,1.4c-1.4,0.9-1.9,2.5-2,3.1c-0.1,0.5,0.2,0.5,0.2,0.5s0.3-0.3,1.4-1.2
		c1.1-0.9,3.5-1.3,3.8-1.3c0.3,0,0.3,0.1-0.1,0.3c-0.4,0.3-1.4,1-3.5,2.6c-2.1,1.6-2.4,3.6-2.4,4c0,0.4,0.3,0.1,0.3,0.1
		s0.3-0.7,1-1.3c0.7-0.7,2.4-1.1,4.2-1.4c1.8-0.3,2.1-0.8,2.7-1.6c0.6-0.8,2.1-2.4,2.4-2.6c0.3-0.2,0.4-0.1,0.2,0.1
		c-0.2,0.1-0.3,0.2-1.3,1.3c-1,1-1.1,2.3-1.1,2.3s0.5-0.7,1.7-1.6c1.2-0.8,4-1.8,4.8-2c0.7-0.2,0.7-0.1,0.6,0
		c-0.1,0.1-0.2,0.1-1.1,0.6c-0.8,0.4-3.7,2.2-7.6,5c-3.9,2.9-7.1,6.3-10.3,8.6c-3.1,2.3-5.5,3.4-6.7,3.6c-1.2,0.2-2.7-0.5-4.5-0.6
		c-1.8-0.1-3,1.2-3.2,1.4c-0.2,0.3-0.2,0.5,0,0.5c0.2,0,0.5-0.3,0.7-0.3c0.3,0,0.2,0.2,0.2,0.2s-0.1,0.1-0.6,0.3
		c-0.5,0.3-1.3,1-1.7,2.2c-0.4,1.1,0.5,2.9,0.5,2.9s0.6,0,1.3,0.3c0.8,0.3,1.3,0.5,1.7,0.8c0.4,0.2,0.8,0.3,1.5,0.1
		c0.8-0.2,2.4-0.2,3.5-0.2c1.1,0.1,5.4,1.1,8.1-0.7c8.6-7.5,17.6-6.9,20.8-8c6.6-2.4,5.5-11.3,17.2-10
		C175.5,118.8,166.4,115.9,160.6,123.2z M172.1,106.3c2.6-2.6,3-5.3,3.1-6.4c0.5,2.4-0.9,6-2,7.6c-1,0-1.9,0.2-2.7,0.3
		C171.1,107.4,171.5,106.9,172.1,106.3z M170.8,98.1c2,3.5-0.8,7.5-1.4,8.1c-0.5,0.5-1.5,1-2.2,1.4c1.2-1.1,2.4-2.6,2.7-4.2
		c0.3-1.7-0.2-3.4-1.1-5.3c-0.2-0.4-3.3-5-3.6-5.2C165.7,92.9,169.7,95.7,170.8,98.1z M161.1,94.3c-0.1-0.3,3.3,6.2,2.6,9.1
		c-1.1,4.6-5.2,7.7-5.2,7.7s2-3.7,2.2-4.4C161.1,106,163,99.2,161.1,94.3z M153.6,107.2c1.3-0.8,5.1-6.7,5.2-6.4
		c0.1,0.3,0.3,2-0.1,3.1C158.2,105.5,153.6,107.2,153.6,107.2z M123.6,135.7c-0.2,0.5-0.9-0.3-0.7-0.9c0.1-0.2,0.9-2.1,2.8-1.7
		C126.2,133.2,124.3,134,123.6,135.7z M158.6,80.2c3.8,1.2,4.7,4.5,3.3,6.1c-0.7,0.8-1.6,1.3-3.5,2.5c-1.9,1.2-2.7,1.8-3.3,2.3
		c-0.6,0.5-1,1.1,0.4,0.8c0.1,0,8.2-1.8,9.3-2.3c1.8-0.9,2.3-1.6,2.5-2.7c0.3-1.2-1.5-3.2-2.4-4.1c-1.7-2-5.8-4-6-4.1
		c-2.1-0.7-4.6-0.1-6.7,0c-0.2,0-0.1,0.4,0,0.4C154.1,80.2,156.3,79.6,158.6,80.2z M151.3,87.8c0.5,0.7,0,2.8,0.6,2.8
		c0.5-0.1,2.3-3.6,1.7-4.8c-0.6-1.2-4.9-2.6-5.6-2.7c-2.9-0.2-3.7,2.1-4.1,4c-0.1,0.8-2.9,6.8-2.8,6.6l5.7-6.4
		C147.8,86.4,150.6,86.9,151.3,87.8z"/>
</g>
</svg>
