<?xml version="1.0" encoding="utf-8"?>
<!-- Generator: Adobe Illustrator 18.0.0, SVG Export Plug-In . SVG Version: 6.00 Build 0)  -->
<!DOCTYPE svg PUBLIC "-//W3C//DTD SVG 1.1//EN" "http://www.w3.org/Graphics/SVG/1.1/DTD/svg11.dtd">
<svg version="1.1" id="Layer_1" xmlns="http://www.w3.org/2000/svg" xmlns:xlink="http://www.w3.org/1999/xlink" x="0px" y="0px"
	 viewBox="0 0 220 202.6" enable-background="new 0 0 220 202.6" xml:space="preserve">
<g>
	<path fill="#999999" d="M131.7,90.4h-6.4v22.8h6.4V90.4z M118.4,111.8H94.2V90.4h-6.4v22.8h30.5L118.4,111.8L118.4,111.8z
		 M78.4,104.5l-6.3-0.1c-1.5,4.7-7.5,7.6-16.1,7.6c-10.5,0-16.5-3.7-16.5-10.2c0-7,8.6-10.2,16.5-10.2c6.7,0,14.3,2.4,16.1,7.7
		l6.3-0.1c-1.9-5.6-10.5-9.1-22.4-9.1c-13.9,0-22.9,4.6-22.9,11.6c0,9.6,12.4,11.6,22.9,11.6C61.9,113.5,75.8,112.6,78.4,104.5
		 M164.1,91.6c-8,0-16.5,3.2-16.5,10.2c0,6.5,6,10.2,16.5,10.2c10,0,16.5-4,16.5-10.2C180.6,94.8,172,91.6,164.1,91.6 M164.1,113.5
		c-10.4,0-22.9-2-22.9-11.6c0-7.1,9-11.6,22.9-11.6c13.9,0,22.9,4.6,22.9,11.6C186.9,112.3,171,113.5,164.1,113.5"/>
	<path fill="#999999" d="M178,122.6c-0.4-0.8-1.1-1.2-2-1.2c-1.1,0-2.2,0.8-2.2,2c0,1.1,0.8,1.6,1.7,2.1l0.5,0.2
		c0.7,0.4,1.4,0.7,1.4,1.6c0,0.9-0.7,1.6-1.6,1.6s-1.5-0.7-1.6-1.5l-0.8,0.2c0.2,1.2,1.2,2.1,2.4,2.1c1.3,0,2.4-1.1,2.4-2.5
		c0-1.3-0.8-1.8-1.8-2.2l-0.5-0.2c-0.5-0.2-1.2-0.6-1.2-1.2c0-0.7,0.6-1.2,1.3-1.2s1,0.3,1.3,0.8L178,122.6z M148.2,128.7v-6.3h0.6
		c0.9,0,1.7,0.1,2.4,0.8c0.7,0.6,1,1.5,1,2.4c0,0.9-0.3,1.7-1,2.3c-0.7,0.7-1.5,0.8-2.4,0.8L148.2,128.7L148.2,128.7z M147.4,129.5
		h1.5c1.2,0,2.1-0.1,3-1c0.8-0.8,1.3-1.8,1.3-3s-0.4-2.3-1.3-3c-0.9-0.8-1.9-1-3-1h-1.5V129.5z M123.2,126h0.2l2.3,3.5h1.1l-2.5-3.6
		c1.2-0.1,1.9-1,1.9-2.2c0-1.8-1.4-2.2-2.8-2.2h-1.1v8h0.8L123.2,126L123.2,126z M123.2,122.3h0.2c1,0,2,0.1,2,1.5
		c0,1.2-1,1.4-1.9,1.4h-0.3L123.2,122.3L123.2,122.3z M99.7,126.4h-2.6l1.3-3.2L99.7,126.4z M100.1,127.2l0.9,2.3h1l-3.5-8.3
		l-3.6,8.3h1l0.9-2.3H100.1z M66.2,121.5h-0.9l3,8.4l2.5-6.4l2.5,6.4l3-8.4h-0.9l-2,6l-2.5-6.4l-2.5,6.4L66.2,121.5z M44.4,126.4
		h-2.6l1.3-3.2L44.4,126.4z M44.7,127.2l0.9,2.3h1l-3.5-8.3l-3.6,8.3h1l0.9-2.3H44.7z"/>
</g>
</svg>
