<?xml version="1.0" encoding="utf-8"?>
<!-- Generator: Adobe Illustrator 18.0.0, SVG Export Plug-In . SVG Version: 6.00 Build 0)  -->
<!DOCTYPE svg PUBLIC "-//W3C//DTD SVG 1.1//EN" "http://www.w3.org/Graphics/SVG/1.1/DTD/svg11.dtd">
<svg version="1.1" id="Layer_1" xmlns="http://www.w3.org/2000/svg" xmlns:xlink="http://www.w3.org/1999/xlink" x="0px" y="0px"
	 viewBox="0 0 220 202.6" enable-background="new 0 0 220 202.6" xml:space="preserve">
<g>
	<path fill="#999999" d="M153.5,121.2c0.5,0,0.8,0,0.9,0C154.1,121.2,153.8,121.3,153.5,121.2z"/>
	<rect x="136" y="111.1" fill="#999999" width="15.6" height="4.6"/>
	<path fill="#999999" d="M62.9,118.7c0,1.5,1.2,2.7,2.7,2.7c1.5,0,2.7-1.2,2.7-2.7v-7.5h13c1.5,0,2.7-1.2,2.7-2.7s-1.2-2.7-2.7-2.7
		h-13v-5h16.1l9.6,18.9c0.1,0.2,0.2,0.3,0.3,0.5c0.5,0.9,1.4,1.4,2.4,1.4c0.4,0,0.8-0.1,1.2-0.3c0.1,0,0.2-0.1,0.3-0.2
		c0.6-0.4,1.1-1,1.4-1.8l8-15.1l7.9,15.5c0.1,0.2,0.2,0.3,0.3,0.5c0.1,0.2,0.2,0.3,0.3,0.4c0.5,0.6,1.3,0.9,2,0.9
		c0.4,0,0.8-0.1,1.2-0.3c0.8-0.4,1.3-1.1,1.5-1.9l10-18.5h21v5h-18.2c-1.5,0-2.7,1.2-2.7,2.6h0v10.2c0,1.5,1.2,2.7,2.7,2.7
		c0,0,16.1,0,20.1,0c0.3,0.1,0.6,0,0.9,0c1.5,0,2.7-1.2,2.7-2.7v-7.4h7.5c1.5,0,2.7-1.2,2.7-2.7s-1.2-2.7-2.7-2.7h-7.5v-7.8
		c0-1-0.6-1.9-1.4-2.4c-0.4-0.2-0.8-0.3-1.3-0.3h-25.2c-0.7,0-1.3,0.2-1.7,0.6c-0.4,0.2-0.7,0.5-0.9,0.9l-8.6,15.9l-7.6-15.3
		c-0.3-0.7-0.6-0.9-1.1-1.3c-0.5-0.5-1.2-0.7-1.8-0.7c-0.4,0-0.8,0.1-1.2,0.3c-0.1,0-0.1,0.1-0.2,0.1c-0.7,0.4-1.2,1.1-1.3,1.9v0
		l-8.1,15.1l-8.1-15.8c-0.3-0.6-0.8-1.1-1.3-1.3c-0.4-0.2-0.8-0.3-1.2-0.3H65.6c-0.5,0-0.9,0.1-1.3,0.3c-0.4,0.2-0.8,0.6-1,1
		c-0.3,0.4-0.4,0.9-0.4,1.4v7.8h-7.5c-1.5,0-2.7,1.2-2.7,2.7s1.2,2.7,2.7,2.7h7.5V118.7z M164.6,100.1c4.6,0,8.3,3.7,8.3,8.3
		s-3.7,8.3-8.3,8.3h-1.9v1.9c0,4.6-3.7,8.2-8.3,8.2l-20.9,0c-3.5,0-6.5-2.1-7.7-5.2c-0.8,1.9-2.2,3.6-4.1,4.5
		c-1.1,0.5-2.4,0.8-3.6,0.8c-2.9,0-5.6-1.5-7.1-4c-0.2-0.3-0.4-0.7-0.6-1.1l-2.9-5.8l-2.4,5.3c-0.9,2.1-2.7,3.8-4.7,4.7
		c-1.1,0.5-2.4,0.8-3.6,0.8c-2.9,0-5.6-1.5-7.1-4c-0.2-0.3-0.4-0.7-0.6-1.1l-3.3-6.4c-1.3,0.8-2.8,1.2-4.4,1.2H74v1.9
		c0,4.6-3.7,8.3-8.3,8.3c-4.6,0-8.3-3.7-8.3-8.3v-1.9h-1.9c-4.6,0-8.3-3.7-8.3-8.3s3.7-8.3,8.3-8.3h1.9v-2.2c0-3.1,1.7-5.9,4.4-7.3
		c1.2-0.7,2.6-1,4-1H86c1.2,0,2.5,0.3,3.6,0.8c1.7,0.8,3.1,2.2,4,3.9l3.2,6.3l2.6-4.9c1-2.3,2.2-4.2,4.4-5.2
		c1.1-0.5,2.4-0.8,3.6-0.8c2,0,3.9,0.7,5.4,2c1.2,1,5.2,8.9,5.2,8.9l3.5-6.5l0-0.1l0-0.1c0.6-1.1,1.4-2,2.4-2.7
		c1.4-1.1,3.2-1.7,5.1-1.7h25.2c1.4,0,2.8,0.4,4,1c2.7,1.5,4.4,4.3,4.4,7.3v2.2H164.6z"/>
	<path fill="#999999" d="M106.1,95.6c-0.7,0.4-1,1.1-1.3,1.9C104.9,96.7,105.4,96,106.1,95.6z"/>
</g>
</svg>
