<?xml version="1.0" encoding="utf-8"?>
<!-- Generator: Adobe Illustrator 18.0.0, SVG Export Plug-In . SVG Version: 6.00 Build 0)  -->
<!DOCTYPE svg PUBLIC "-//W3C//DTD SVG 1.1//EN" "http://www.w3.org/Graphics/SVG/1.1/DTD/svg11.dtd">
<svg version="1.1" id="Layer_1" xmlns="http://www.w3.org/2000/svg" xmlns:xlink="http://www.w3.org/1999/xlink" x="0px" y="0px"
	 viewBox="0 0 162.9 150" enable-background="new 0 0 162.9 150" xml:space="preserve">
<g fill="#ffffff">
	<rect x="96.7" y="80.4" width="8" height="3"/>
	<path d="M112.5,74.4h-0.8v-1.4c0-1.7-1.1-3.3-2.6-4.1c-0.7-0.4-1.6-0.5-2.4-0.5H92.3c-1,0-2.1,0.3-2.9,0.9c-0.6,0.4-1,0.9-1.4,1.5
		l0,0l0,0l-2,3.7c0,0-2.3-4.5-3-5.1c-0.9-0.8-2-1.2-3.1-1.2c-0.7,0-1.4,0.2-2.1,0.5c-1.2,0.6-1.9,1.7-2.5,3l-1.5,2.8L72.1,71
		c-0.5-1-1.3-1.7-2.2-2.1c-0.6-0.3-1.4-0.4-2.1-0.4H56.2c-0.8,0-1.4,0.1-2.1,0.5c-1.5,0.8-2.3,2.4-2.3,4.1v1.4h-1.4
		c-2.6,0-4.7,1.9-4.7,4.5c0,2.6,2.1,4.5,4.7,4.5h1.4v1.5c0,2.6,1.9,4.7,4.5,4.7c2.6,0,4.5-2.1,4.5-4.7v-1.5h4.4
		c0.9,0,1.8-0.1,2.5-0.5l1.9,3.7c0.1,0.2,0.2,0.5,0.3,0.6c0.9,1.4,2.4,2.3,4,2.3c0.7,0,1.4-0.1,2.1-0.5c1.2-0.6,2.2-1.5,2.7-2.7
		l1.3-3l1.7,3.3c0.1,0.2,0.2,0.4,0.3,0.6c0.9,1.4,2.4,2.3,4.1,2.3c0.7,0,1.4-0.2,2-0.5c1.1-0.5,1.9-1.5,2.4-2.6
		c0.7,1.7,2.4,2.9,4.4,2.9h11.9c2.6,0,5-1.9,5-4.5v-1.5h0.8c2.6,0,4.8-1.9,4.8-4.5C117.3,76.3,115.2,74.4,112.5,74.4z M112.5,80.4
		h-3.8v4.4c0,0.9-1.1,1.6-2,1.6c0,0-0.2,0-0.5,0c-1,0-3.3,0-5.6,0c-3,0-5.9,0-5.9,0c-0.9,0-1.1-0.8-1.1-1.6v-5.4h-0.5
		c0-1,0.7-2,1.5-2h9.9v-3H93.2l-5.7,10.6c-0.1,0.5-0.4,0.9-0.9,1.2c-0.2,0.1-0.4,0.2-0.7,0.2c-0.4,0-0.8-0.1-1.1-0.4l-0.1-0.2
		l-0.1-0.2l-0.1-0.3L80,76.6l-4.5,8.6c-0.1,0.3-0.3,0.7-0.6,0.9c-0.1,0.1-0.2,0.1-0.3,0.2c-0.2,0.1-0.5,0.2-0.7,0.2
		c-0.5,0-1.1-0.3-1.3-0.8c-0.1-0.1-0.1-0.3-0.2-0.4l-5.5-10.8h-9.2v3h7.4c0.9,0,1.6,0.6,1.6,1.5s-0.7,1.5-1.6,1.5h-7.4v4.5
		c0,0.9-0.6,1.5-1.5,1.5s-1.5-0.7-1.5-1.5v-4.5h-4.4c-0.9,0-1.6-0.6-1.6-1.5s0.7-1.5,1.6-1.5h4.4v-4.4c0-0.6,0.3-1.1,0.8-1.4
		c0.2-0.1,0.4-0.2,0.7-0.2h11.6c0.2,0,0.5,0.1,0.7,0.2c0.3,0.1,0.6,0.4,0.8,0.8l4.6,9l4.6-8.6l0,0c0.2-0.4,0.3-0.8,0.7-1l0.2-0.1
		c0.2-0.1,0.5-0.2,0.7-0.2c0.4,0,0.8,0.2,1,0.4l0.1,0.1c0.2,0.2,0.3,0.3,0.5,0.7l4.3,8.8l4.9-9c0.1-0.2,0.3-0.4,0.5-0.6
		c0.3-0.2,0.6-0.4,1-0.4h14.4c0.3,0,0.7,0.1,1,0.2c0.5,0.3,1,0.8,1,1.4v4.4h3.8c0.9,0,1.6,0.6,1.6,1.5S113.4,80.4,112.5,80.4z"/>
	<polygon points="135.7,57.4 135.7,57.4 135.7,57.4 	"/>
	<polygon points="135.7,92.6 135.7,92.6 135.7,92.6 	"/>
	<path d="M149,68.5c-1.3-1.9-2.9-3.7-4.4-5.4c-1.1-1.2-2.2-2.4-3.1-3.6c-0.9-1.2-1.5-2.3-1.9-3.3l0,0l0,0c-0.3-1-0.5-2.3-0.5-3.7
		c0-1.6,0.2-3.4,0.4-5.1c0.2-1.8,0.3-3.7,0.3-5.5c0-2.7-0.1-5.4-2.1-7.6v0c-1-1.9-3.3-3.1-5.4-3.9c-2.1-0.8-4.4-1.3-6.6-1.8
		c-1.6-0.3-3.2-0.7-4.6-1.1c-1.4-0.4-2.7-1-3.7-1.7c-0.9-0.7-1.8-1.7-2.6-2.9c-0.8-1.2-1.7-2.6-2.5-4.1c-1.2-2-2.3-4-3.8-5.8
		c-1.5-1.8-3.2-3.3-5.4-4c-0.9-0.3-1.9-0.4-3-0.4c-3.4,0-6.8,1.5-9.9,2.9c-1.5,0.7-3.1,1.4-4.5,1.8c-1.5,0.5-2.9,0.8-4.1,0.8
		c-1.2,0-2.6-0.3-4.1-0.8c-1.5-0.5-3-1.2-4.6-1.8c-3.2-1.4-6.5-2.9-9.9-2.9c-1,0-2,0.1-3,0.4c-2.2,0.7-4,2.2-5.4,4
		c-1.5,1.8-2.6,3.8-3.8,5.8c-0.9,1.5-1.7,2.9-2.5,4.1c-0.8,1.2-1.7,2.2-2.7,2.9c-0.9,0.7-2.2,1.2-3.7,1.7c-1.4,0.4-3.1,0.8-4.7,1.1
		c-2.2,0.5-4.6,1-6.7,1.8c-2.1,0.8-4.1,2-5.5,3.9c-1.6,2.2-2,4.9-2,7.6c0,1.8,0.2,3.7,0.4,5.5c0.2,1.8,0.4,3.5,0.4,5.1
		c0,1.4-0.1,2.7-0.5,3.7c-0.3,1.1-1,2.2-1.9,3.3c-0.9,1.2-2,2.3-3.1,3.6c-1.6,1.7-3.2,3.5-4.4,5.4c-1.3,1.9-2.2,4.1-2.2,6.5
		c0,2.4,0.9,4.5,2.2,6.5c1.3,1.9,2.9,3.7,4.4,5.4c1.1,1.2,2.2,2.4,3.1,3.6c0.9,1.2,1.5,2.3,1.9,3.3c0.3,1,0.5,2.3,0.5,3.7
		c0,1.6-0.2,3.4-0.4,5.1c-0.2,1.8-0.4,3.7-0.4,5.5c0,2.7,0.4,5.4,2,7.6c1.4,1.9,3.3,3.1,5.4,3.9c2.1,0.8,4.4,1.3,6.7,1.8
		c1.6,0.3,3.2,0.7,4.7,1.1c1.4,0.4,2.7,1,3.7,1.7c0.9,0.7,1.8,1.7,2.7,2.9c0.8,1.2,1.7,2.6,2.5,4.1c1.2,2,2.3,4,3.8,5.8
		c1.5,1.8,3.1,3.3,5.4,4c0.9,0.3,1.9,0.4,2.9,0.4v0h0.1c3.4,0,6.8-1.5,9.9-2.9c1.5-0.7,3.1-1.3,4.6-1.8c1.5-0.5,2.9-0.8,4.1-0.8
		c1.2,0,2.6,0.3,4.1,0.8c1.5,0.5,3,1.2,4.6,1.9c3.2,1.4,6.6,2.9,9.9,2.9c1,0,2-0.1,2.9-0.4c2.2-0.7,4-2.2,5.4-4
		c1.5-1.8,2.6-3.8,3.8-5.8c0.9-1.5,1.7-2.9,2.5-4.1c0.8-1.2,1.7-2.2,2.7-2.9c0.9-0.7,2.2-1.2,3.7-1.7c1.4-0.4,3.1-0.8,4.7-1.1
		c2.2-0.5,4.6-1,6.7-1.8c2.1-0.8,4.1-2,5.4-3.9c1.6-2.2,2-4.9,2-7.6c0-1.8-0.2-3.7-0.4-5.5c-0.2-1.8-0.3-3.5-0.3-5.1
		c0-1.4,0.5-2.7,0.5-3.7v0c0-1.1,1-2.2,1.9-3.3c0.9-1.2,1.9-2.3,3.1-3.6c1.6-1.7,3.2-3.5,4.4-5.4c1.3-1.9,2.1-4.1,2.1-6.5
		C151.2,72.6,150.3,70.5,149,68.5z M135.4,103.1c0.2,1.8,0.4,3.6,0.4,5.1c0,2.1-0.3,3.9-1.2,5.1c-0.8,1.1-2.1,1.9-3.8,2.5
		c-1.7,0.6-3.7,1.1-5.8,1.5c-3.4,0.7-7.1,1.5-9.9,3.5c-2.8,2-4.6,5.2-6.3,8.2c-1,1.8-2.1,3.6-3.2,5c-1.1,1.4-2.4,2.5-3.7,2.9
		c-0.5,0.2-1,0.2-1.7,0.2c-2.3,0-5.2-1.2-8.3-2.6c-3.3-1.4-6.8-3-10.3-3c-3.6,0-7.1,1.6-10.3,3c-3.1,1.4-6,2.6-8.3,2.6h0h0
		c-0.6,0-1.2-0.1-1.7-0.3c-1.3-0.4-2.5-1.5-3.7-2.9c-1.1-1.4-2.2-3.2-3.2-5.1c-1.7-3-3.6-6.2-6.3-8.2c-2.8-2-6.5-2.8-9.9-3.5
		c-2.1-0.5-4.2-0.9-5.8-1.5c-1.7-0.6-3-1.4-3.8-2.5c-0.9-1.2-1.3-3-1.2-5.1c0-1.6,0.2-3.3,0.4-5.1c0.2-1.8,0.4-3.7,0.4-5.6
		c0-1.7-0.2-3.4-0.7-5c-1-3.2-3.5-5.9-5.8-8.4c-1.4-1.6-2.8-3.1-3.9-4.7c-1-1.5-1.7-3-1.7-4.5c0-1.4,0.6-2.9,1.7-4.5
		c1-1.5,2.4-3.1,3.9-4.7c2.3-2.6,4.8-5.2,5.8-8.4c0.5-1.6,0.7-3.3,0.7-5c0-1.9-0.2-3.7-0.4-5.6c-0.2-1.8-0.4-3.6-0.4-5.1
		c0-2.1,0.3-3.9,1.2-5.1c0.8-1.1,2.1-1.9,3.8-2.5c1.7-0.6,3.7-1.1,5.8-1.5c3.4-0.7,7.1-1.5,9.9-3.5c2.8-2,4.6-5.2,6.3-8.2
		c1-1.8,2.1-3.6,3.2-5c1.1-1.4,2.4-2.5,3.7-2.9c0.5-0.2,1-0.2,1.7-0.2c2.3,0,5.2,1.2,8.3,2.6c3.3,1.4,6.8,3,10.3,3
		c3.6,0,7-1.6,10.3-3c3.1-1.4,6-2.6,8.3-2.6c0.6,0,1.2,0.1,1.7,0.2c1.3,0.4,2.5,1.5,3.7,2.9c1.1,1.4,2.2,3.2,3.2,5
		c1.7,3,3.6,6.2,6.3,8.2c2.8,2,6.5,2.8,9.9,3.5c2.1,0.5,4.2,0.9,5.8,1.5c1.7,0.6,3,1.4,3.8,2.5c0.9,1.2,1.3,3,1.2,5.1
		c0,1.6-0.2,3.3-0.4,5.1c-0.2,1.8-0.4,3.7-0.4,5.6c0,1.7,0.2,3.4,0.7,5c1,3.2,3.5,5.9,5.8,8.4c1.4,1.6,2.8,3.1,3.9,4.7
		c1,1.5,1.7,3,1.7,4.5c0,1.4-0.6,2.9-1.7,4.5c-1,1.5-2.4,3.1-3.9,4.7c-2.3,2.6-4.8,5.2-5.8,8.4c-0.5,1.6-0.7,3.3-0.7,5
		C135,99.4,135.2,101.3,135.4,103.1z"/>
</g>
</svg>
