<?xml version="1.0" encoding="utf-8"?>
<!-- Generator: Adobe Illustrator 18.0.0, SVG Export Plug-In . SVG Version: 6.00 Build 0)  -->
<!DOCTYPE svg PUBLIC "-//W3C//DTD SVG 1.1//EN" "http://www.w3.org/Graphics/SVG/1.1/DTD/svg11.dtd">
<svg version="1.1" id="Layer_1" xmlns="http://www.w3.org/2000/svg" xmlns:xlink="http://www.w3.org/1999/xlink" x="0px" y="0px"
	 viewBox="0 0 220 202.6" enable-background="new 0 0 220 202.6" xml:space="preserve">
<g>
	<path fill="#999999" d="M150.8,140.5c-0.5,0-0.7-0.2-0.7-0.7c0-1.2,0-1.2,1.2-1.2c2,0,4,0,6,0c0.5,0,0.6,0.2,0.6,0.6
		c0,1.2,0,1.2-1.2,1.3c-0.5,0-1,0-1.6,0c0,0.3,0,0.5,0,0.7c0,1.9,0,3.7,0,5.6c0,0.7,0,0.8-0.7,0.8c-1.2,0-1.4,0.3-1.4-1.4
		c0-1.7,0-3.4,0-5.2c0-0.4-0.1-0.6-0.5-0.5C152,140.5,151.4,140.4,150.8,140.5z"/>
	<path fill="#999999" d="M146,142.1c0.4,0,0.6,0.1,0.6,0.6c0,1.3,0,1.3-1.2,1.3c-1,0-1.9,0-3,0c0,0.5,0,0.9,0,1.3
		c0,0.1,0.3,0.3,0.5,0.3c1.4,0,2.9,0,4.3,0c0.5,0,0.7,0.2,0.7,0.7c0,1.5,0,1.2-1.2,1.2c-1.9,0-3.7,0-5.6,0c-0.5,0-0.7-0.2-0.7-0.7
		c0-2.5,0-5.1,0-7.6c0-0.5,0.2-0.7,0.7-0.7c2,0,4.1,0,6.1,0c0.5,0,0.7,0.2,0.7,0.7c0,1.4,0,1.2-1.2,1.2c-1.4,0-2.8,0-4.2,0
		c0,0.6,0,1.1,0,1.6c0.3,0,0.7,0,1,0C144.3,142.1,145.2,142.1,146,142.1z"/>
	<path fill="#999999" d="M130.5,143.4c0.1,1.3,1.2,2.3,2.5,2.4c0.7,0,1.4,0,2-0.1c0.5,0,0.7-0.3,0.6-0.8c0-0.2,0-0.5,0-0.8
		c-0.8,0-1.5,0-2.2,0c-0.5,0-0.7-0.2-0.7-0.6c0-1,0-1.1,1-1.1c1,0,2,0,3,0c0.5,0,0.7,0.1,0.7,0.7c0,1,0,2,0,3c0,0.2-0.2,0.6-0.4,0.7
		c-2.2,1.1-4.4,1.4-6.6,0.1c-1.5-0.8-2.2-2.3-2.1-3.9c0-1.7,0.9-3.1,2.5-3.9c2-0.9,3.9-0.8,5.8,0.3c0.5,0.3,0.5,1.3-0.1,1.6
		c-0.1,0.1-0.4,0-0.6-0.1c-1.1-0.6-2.3-1-3.6-0.6C131.2,140.6,130.3,141.9,130.5,143.4z"/>
	<path fill="#999999" d="M106,62.3c2.9-0.7,5.9-0.7,8.8,0.2c3.7,1.3,6.6,3.6,9.2,6.4c3.9,4.1,6.9,8.9,8.8,14.3
		c1.1,3.1,1.9,6.4,2.5,9.6c0.6,3.2,1.1,6.5,1,9.5c0,4.9-0.7,9.5-2.4,13.8c-1.2,3.1-2.9,5.9-4.9,8.6c-2.7,3.4-6.2,5.6-10.4,6.8
		c-4.4,1.3-8.9,1.6-13.4,0.9c-5.4-0.8-9.9-3.4-13.5-7.5c-3.2-3.7-5.3-7.9-6.4-12.6c-1.2-5.1-1.5-10.4-0.9-15.6
		c0.5-5.1,1.6-10,3.6-14.7c2.4-5.8,5.5-11,10.2-15.3C100.4,64.7,102.9,63.1,106,62.3z"/>
	<path fill="#999999" d="M118.8,143.2c0.1,1.5,1.2,2.6,2.6,2.7c0.5,0,1.1,0,1.6,0c0.8-0.1,0.9-0.2,0.9-1c0-0.2,0-0.4,0-0.7
		c-0.8,0-1.5,0-2.2,0c-0.5,0-0.7-0.2-0.6-0.7c0-0.8,0.1-1,0.7-1c1.2,0,2.4,0,3.6,0c0.4,0,0.6,0.2,0.6,0.6c0,1.1,0,2.1,0,3.2
		c0,0.2-0.2,0.5-0.4,0.7c-1.8,1.1-5.2,1.4-7.2-0.3c-1.4-1.2-1.8-2.8-1.4-4.5c0.3-1.6,1.4-2.7,3-3.2c1.8-0.6,3.5-0.5,5.2,0.5
		c0.6,0.3,0.6,1.3,0,1.6c-0.1,0.1-0.4,0-0.6-0.1c-1.1-0.6-2.3-1-3.5-0.6C119.6,140.6,118.7,141.9,118.8,143.2z"/>
	<path fill="#999999" d="M113.2,139.5c-0.6,0-1.1-0.5-1.1-1.1c0-0.6,0.5-1.2,1.1-1.2c0.6,0,1.1,0.5,1.1,1.1
		C114.3,139,113.8,139.5,113.2,139.5z"/>
	<path fill="#999999" d="M107.2,139.5c-0.5,0-1.2-0.6-1.2-1.1c0-0.6,0.5-1.2,1.1-1.2c0.6,0,1.2,0.5,1.2,1.1
		C108.4,139,107.8,139.5,107.2,139.5z"/>
	<path fill="#999999" d="M106.5,147.5c-0.2,0-0.5,0-0.7,0c-0.6,0-0.7-0.2-0.4-0.7c1-2,1.9-4,2.9-6c0.3-0.6,0.5-1.1,0.8-1.7
		c0.2-0.4,0.4-0.5,0.8-0.5c0.9-0.1,1.4,0.2,1.8,1c1.1,2.4,2.2,4.8,3.3,7.1c0.4,0.7,0.3,0.8-0.5,0.8c-0.1,0-0.2,0-0.4,0
		c-0.7,0.2-1-0.2-1.3-0.9c-0.6-1.4-0.6-1.4-2.2-1.4c-0.6,0-1.2,0-1.8,0c-0.4,0-0.6,0.1-0.8,0.5c-0.2,0.4-0.4,0.8-0.6,1.2
		C107.3,147.3,107,147.6,106.5,147.5z M109,143.4c0.8,0,1.5,0,2.3,0c-0.4-0.9-0.8-1.7-1.2-2.6C109.8,141.8,109.4,142.6,109,143.4z"
		/>
	<path fill="#999999" d="M95.5,147.5c-0.5,0-0.5-0.3-0.5-0.7c0-1.3,0-2.5,0-3.8c0-1.2,0-2.5,0-3.7c0-0.5,0.2-0.7,0.7-0.7
		c1.1,0,2.2,0,3.3,0c2,0.1,3.9,1.1,4.4,3.3c0.6,2.5-0.7,5-3.2,5.4C98.6,147.5,97.1,147.4,95.5,147.5z M101.5,143.5
		c0.2-1.1-0.4-2.3-1.4-2.8c-1-0.5-2.1-0.5-3.2-0.4c0,1.7,0,3.3,0,5c0,0.3,0.2,0.4,0.4,0.4c0.7,0,1.3,0,2-0.1
		C100.4,145.5,101.3,144.6,101.5,143.5z"/>
	<path fill="#999999" d="M86.2,138.6c1.6,0,1.5-0.2,1.5,1.4c0,1.6,0,3.2,0,4.9c0,0.2,0,0.4,0,0.7c1.4,0,2.6,0,3.9,0
		c0.9,0,0.9,0,0.9,0.9c0,0.2,0,0.4,0,0.5c0,0.4-0.2,0.5-0.5,0.5c-1.9,0-3.8,0-5.7,0c-0.4,0-0.6-0.2-0.6-0.6c0-2.6,0-5.2,0-7.7
		C85.6,138.7,85.8,138.6,86.2,138.6z"/>
	<path fill="#999999" d="M74.1,139.1c0-0.4,0.2-0.6,0.6-0.6c1.6,0,1.4-0.2,1.4,1.3c0,1.2,0,2.5,0,3.7c0,0.4,0.1,0.9,0.2,1.2
		c0.1,0.3,0.4,0.5,0.7,0.7c0.7,0.3,1.5,0.2,2.2,0c0.5-0.2,0.9-0.8,0.9-1.6c0-1.5,0-3,0-4.6c0-0.8,0-0.8,0.8-0.8
		c1.3,0,1.2-0.1,1.2,1.2c0,1.3,0,2.6,0,3.9c0.1,2.3-1.3,3.9-3.7,3.9c-0.9,0-1.8,0-2.6-0.5c-1.1-0.6-1.7-1.6-1.8-2.8
		c-0.1-0.9,0-1.7,0-2.6h0C74.1,140.9,74.1,140,74.1,139.1z"/>
	<path fill="#999999" d="M64.1,143.5c0.1,1.2,1.2,2.3,2.5,2.3c0.7,0,1.4-0.1,2-0.1c0.4,0,0.6-0.3,0.5-0.7c0-0.3,0-0.5,0-0.9
		c-0.8,0-1.5,0-2.3,0c-0.4,0-0.6-0.2-0.6-0.6c0-0.2,0-0.4,0-0.6c0-0.3,0.2-0.5,0.5-0.5c1.3,0,2.5,0,3.8,0c0.4,0,0.5,0.2,0.5,0.6
		c0,1.1,0,2.1,0,3.2c0,0.2-0.2,0.5-0.4,0.7c-1.4,0.8-3,1-4.6,0.8c-1.5-0.2-2.7-0.8-3.4-2.1c-1.3-2.3-0.7-5.6,2.3-6.6
		c1.8-0.6,3.6-0.6,5.2,0.5c0.2,0.1,0.5,0.4,0.4,0.6c-0.1,0.4-0.3,0.7-0.5,1.1c0,0.1-0.4,0-0.6-0.1c-1.1-0.6-2.3-1-3.5-0.6
		C64.7,140.6,63.9,141.9,64.1,143.5z"/>
</g>
</svg>
