<?xml version="1.0" encoding="utf-8"?>
<!-- Generator: Adobe Illustrator 18.0.0, SVG Export Plug-In . SVG Version: 6.00 Build 0)  -->
<!DOCTYPE svg PUBLIC "-//W3C//DTD SVG 1.1//EN" "http://www.w3.org/Graphics/SVG/1.1/DTD/svg11.dtd">
<svg version="1.1" id="Layer_1" xmlns="http://www.w3.org/2000/svg" xmlns:xlink="http://www.w3.org/1999/xlink" x="0px" y="0px"
	 viewBox="0 0 220 202.6" enable-background="new 0 0 220 202.6" xml:space="preserve">
<g>
	<path fill="#999999" d="M183,93.1c-2.2,0-4.2,0.5-6.1,1.5c-0.5,0.2-0.9,0.5-1.4,0.7c-4.9,2.7-8.7,6.6-12.1,11
		c-2.3,3-4.1,6.4-5.7,9.8c-0.2,0.4-0.6,0.8-0.9,0.8c-2.4,0.1-4.8,0.3-7.2-0.4c-2.7-0.7-3.8-2.3-2.9-5c0.6-1.7,1.6-3.4,2.6-4.9
		c7-9.7,14.7-18.9,22.8-27.7c1.2-1.2,2.3-2.5,3.7-3.9c-0.7-0.1-1.3-0.4-1.8-0.2c-0.9,0.3-1.9,0.7-2.7,1.3c-1.1,0.8-2.1,1.9-3.1,2.9
		c-7,7-13.4,14.6-19.2,22.6c-0.2,0.3-0.5,0.6-0.8,1c0-0.4-0.1-0.6-0.1-0.8c-0.1-1.3-0.9-2.3-2.2-2.3c-1,0-2,0-3,0.3
		c-4.8,1.3-9,3.8-12.9,7c-2.5,2.1-5.2,4.1-7.9,6.1c-0.5,0.4-1.3,0.6-2,0.7c-1.1,0.2-1.6-0.4-1.3-1.4c0.3-1,0.7-2.1,1.3-3
		c2.2-3.2,4.3-6.5,6.6-9.6c6-8,12.6-15.4,19.4-22.7c0.5-0.5,0.9-1,1.4-1.5c0-0.1,0-0.2-0.1-0.3c-0.6,0-1.2-0.3-1.7-0.1
		c-1.1,0.5-2.2,1-3,1.8c-6.6,6-12.3,12.9-17.9,19.8c-1.3,1.6-2.4,3.3-3.9,4.6c-1.1,1-2.2,2-3.3,3c-2.5,2.2-5.1,4.4-7.8,6.6
		c-1.4,1.2-3.2,2-4.8,2.9c-0.3,0.2-1,0.1-1.2-0.2c-0.2-0.2-0.3-0.9-0.1-1.3c0.2-0.7,0.6-1.3,1-1.8c1.4-1.9,2.9-3.8,4.3-5.6
		c1.1-1.4,2.3-2.7,3.4-4.1c0.5-0.7,0.4-0.9-0.4-1.1c-1.3-0.3-2.4,0-3.4,0.8c-1.4,1.1-2.8,2.3-4.2,3.4c-3.7,2.9-7.4,5.7-11.2,8.5
		c-0.8,0.6-1.8,1-2.8,1.3c-0.9,0.3-1.5-0.4-1.2-1.3c0.2-0.7,0.5-1.4,1-2c2.4-3.1,4.9-6.2,7.3-9.3c0.3-0.3,0.5-0.7,0.8-1.1
		c-0.3-0.1-0.5-0.2-0.6-0.3c-1.6-0.3-3.1-0.1-4.4,0.8c-0.8,0.5-1.6,1-2.3,1.6c-1.5,1-2.9,2.1-4.3,3.2c-4.3,3.6-8.6,7.2-13.3,10.1
		c-1.1,0.7-2.3,1.4-3.4,2l-0.2-0.2c0.2-0.3,0.4-0.6,0.6-0.9c3.1-4.1,6.2-8.3,9.4-12.4c0.2-0.2,0.4-0.7,0.3-0.8
		c-0.2-0.2-0.5-0.4-0.8-0.4c-1.5-0.2-2.6,0.6-3.6,1.5c-1.9,1.8-3.7,3.7-5.7,5.4c-2.5,2.2-5.2,4.1-8.5,4.9c-4.5,1.1-7.2-1.3-6.6-5.8
		c0.5-4,2.3-7.5,4.5-10.8c0.4-0.5,0.8-0.3,1.2-0.3c2.4,0.4,4.8,0.9,7.2,1c2.2,0.1,4.4-0.2,6.6-0.5c6.6-1,12.6-3.4,17.6-8
		c2.1-2,3.9-4.2,4.6-7.2c0.7-3.3-0.6-5.6-3.9-6.5c-1.9-0.5-3.9-0.5-5.8-0.2c-3.5,0.6-6.8,1.6-10.1,3.1c-0.6,0.3-1,0.2-1.5-0.3
		c-0.8-0.7-1.6-1.4-2.6-1.9c-3.4-1.9-7.2-2.4-11-1.8c-2.8,0.4-5.5,1.4-7.7,3.3c-2.5,2.1-3.8,4.9-3.7,8.1c0.1,3.2,1.6,5.9,4.2,7.8
		c0.8,0.6,0.7,0.9,0.2,1.7c-2.6,3.4-4.6,7.2-5.1,11.5c-0.3,3,0.9,6.5,4.4,7.6c2.7,0.9,5.4,0.8,8-0.1c3-1,5.5-2.7,7.9-4.8
		c0.2-0.2,0.5-0.4,0.8-0.6c0,0.3-0.1,0.5-0.2,0.7c-2.1,2.9-4.2,5.9-6.4,8.8c-0.4,0.5-1,0.9-1.5,1.3c-4.3,2.5-8.6,4.9-12.9,7.4
		c-4.8,2.8-9.4,5.7-13.4,9.6c-1.7,1.7-3.3,3.4-4.1,5.8c-1.1,3.3,1,5.6,4.4,4.9c1.6-0.3,3.1-0.8,4.6-1.5c5.4-2.7,10-6.6,14.1-10.9
		c4.8-5.1,9.1-10.6,13-16.4c0.3-0.5,0.8-0.9,1.3-1.2c4.6-2.5,8.9-5.4,13-8.7c2.9-2.3,5.8-4.7,8.6-7l0.1-0.1c0.2-0.2,0.5-0.3,0.8-0.4
		l0.2,0.2c-0.3,0.3-0.7,0.5-0.9,0.9c-2,2.3-3.9,4.7-5.9,7.1c-0.4,0.5-0.6,1.1-0.8,1.6c-1,2.6,0.7,3.8,3,3.6c2.2-0.2,4.1-1.2,5.9-2.5
		c3.4-2.5,6.6-5,10-7.6c0.3-0.2,0.6-0.4,1-0.7c-0.1,0.4-0.3,0.6-0.5,0.8c-1,1.1-2.1,2.2-3.1,3.4c-1,1.2-1.8,2.5-1.9,4.1
		c-0.1,1.3,0.5,2.1,1.8,2.2c0.8,0.1,1.7,0.1,2.5-0.1c2.4-0.5,4.4-1.9,6.3-3.5c2.9-2.4,5.7-4.9,8.5-7.4c0.3-0.2,0.5-0.4,0.8-0.6
		c0,0.4-0.1,0.6-0.2,0.8c-0.8,1.1-1.7,2.2-2.4,3.4c-0.8,1.5-1.7,3-2.1,4.6c-0.6,1.9,0.9,3.3,2.9,2.9c1.6-0.3,3.2-0.8,4.7-1.5
		c3.1-1.6,5.7-3.9,8.2-6.3c0.2-0.2,0.5-0.4,0.7-0.6l0.2,0.2c-0.2,0.3-0.4,0.5-0.6,0.8c-0.9,1.2-1.6,2.4-1.9,3.9
		c-0.3,1.7,0.6,3.2,2.4,3.4c1.1,0.1,2.3,0,3.4-0.3c3.1-0.9,5.6-2.7,7.9-4.8c0.3-0.3,0.6-0.5,0.9-0.8c0,0.5-0.1,0.8-0.2,1.2
		c-0.1,1-0.4,2.1-0.2,3.1c0.3,2.1,2,3,3.9,3.4c2.8,0.7,5.6,0.7,8.5,0.5c0.7-0.1,1.4,0,2.1,0c-0.4,1.2-0.8,2.4-1.1,3.5
		c-0.3,0.9-0.6,1.8-0.9,2.7l-0.2,0c0-0.6,0-1.3,0-1.9c0.1-0.8-0.4-0.9-1-0.9c-0.6,0-1.2-0.1-1.1,0.8c0.1,1.7,0,3.3,0,5
		c0,0.3-0.1,0.6-0.2,1.1c-0.4-0.5-0.6-0.7-0.9-1c-1.4-1.8-2.7-3.5-4.1-5.3c-0.6-0.8-1.3-0.5-2-0.5c-0.2,0-0.4,0.8-0.4,1.2
		c0,2.9,0,5.8,0,8.7c0,0.9,0.3,1.1,1.1,1.1c0.8,0,1.1-0.2,1.1-1c-0.1-1.6,0-3.2,0-4.9c0-0.3,0.1-0.6,0.1-1c0.1,0,0.2,0,0.3-0.1
		c0.6,0.8,1.2,1.6,1.8,2.4c1,1.3,2,2.6,3,4c0.5,0.7,1.3,0.7,1.9,0.5c0.2-0.1,0.4-0.8,0.4-1.2c0-3.3,0.6-6.4,1.6-9.5
		c0.3-0.9,0.6-1.7,0.9-2.6c0.4-1,0.9-1.4,1.9-1.5c0.7-0.1,1.3-0.2,1.9-0.3c8.3-1.6,15.9-4.9,22.2-10.8c2-1.9,3.7-4,4.4-6.8
		C188.8,95.7,186.8,93.1,183,93.1z M76.4,82.2c1.2,1.6,2.1,3.3,2.5,5.3c0.1,0.2,0.1,0.4,0.2,0.7l0.3,0c-0.1-0.7-0.1-1.5-0.3-2.2
		c-0.5-1.5-1.1-2.9-1.7-4.3c-0.2-0.4-0.4-0.7,0.1-1c3.9-2.1,7.9-3.8,12.4-3.8c1.2,0,2.5,0.3,3.7,0.7c2.1,0.8,2.9,2.9,2,5.1
		c-0.6,1.5-1.5,3-2.6,4.3c-4.8,5.5-11.1,8.7-18.2,10.3c-4.5,1-9,1-13.4-0.1c-0.2-0.1-0.4-0.1-0.6-0.2c-0.1,0-0.1-0.1-0.3-0.2
		c0.3-0.5,0.6-1,0.9-1.4c3.8-5.2,8.6-9.6,13.9-13.3C75.7,81.6,76,81.7,76.4,82.2z M55.1,94.2c-5.4-4.3-5.2-11.2-0.5-15.1
		c5.3-4.4,14.8-4.1,19.7,0.8c0.1,0.1,0.1,0.2,0.1,0.2c-2.4,1.5-4.8,2.9-7.1,4.4c-4,2.6-7.6,5.8-10.8,9.5
		C56,94.6,55.7,94.7,55.1,94.2z M61.7,123.1c-3.9,5.1-7.7,10.3-11.8,15.4c-2.5,3-5.3,5.8-8.8,7.6c-1.4,0.8-2.9,1.3-4.5,1.2
		c-1.4-0.1-2.3-0.9-2.3-2.3c-0.1-1.9,0.8-3.4,1.9-4.8c2.5-3.4,5.6-6.2,9.1-8.4c5.5-3.5,11.2-6.8,16.8-10.1c0.1-0.1,0.3-0.1,0.5-0.2
		l0.1,0.2C62.3,122.1,62,122.7,61.7,123.1z M143.4,107.8c-2.1,2.4-4.6,4.4-7.5,5.7c-0.8,0.4-1.6,0.6-2.4,0.8
		c-1.1-0.2-1.6-0.7-1.3-1.7c0.2-0.6,0.4-1.3,0.8-1.8c2.7-3.8,6-7,9.9-9.6c0.7-0.5,1.5-0.8,2.2-1c0.8-0.3,1.6-0.2,2.1,0.5
		c0.5,0.6,0.4,1.5,0,2.1C146,104.5,144.8,106.3,143.4,107.8z M185.9,98.8c-0.6,2.8-2.1,5-3.9,7c-3.3,3.6-7.4,5.9-11.9,7.8
		c-2.9,1.2-5.9,2.2-9,2.7c-0.7,0.1-1.4,0.2-2.2,0.3c-0.2,0-0.4,0-0.7,0c0.2-0.4,0.2-0.7,0.4-1c3.3-7,7.7-13.2,13.8-17.9
		c1.1-0.8,2.2-1.6,3.3-2.2c1.7-0.9,3.5-1.6,5.6-1.8C184.8,93.4,186.6,95.4,185.9,98.8z"/>
	<path fill="#999999" d="M140.8,130c-1.5,0.1-2.9,0-4.4,0c-0.6,0-0.9-0.2-0.8-0.8c0-0.3,0-0.6,0-0.8c-0.1-0.7,0.3-1,1-0.9
		c1.2,0,2.4,0,3.6,0c0.7,0,0.8-0.4,0.8-0.9c0-0.5,0.1-1.1-0.8-1c-1,0-2,0-3,0c-1.6,0-1.5,0-1.5-1.6c0-0.7,0.3-0.9,0.9-0.9
		c1.4,0,2.9,0,4.3,0c0.9,0,0.8-0.5,0.8-1.1c0-0.6,0-1-0.8-1c-2.2,0-4.4,0-6.6,0c-0.6,0-0.8,0.2-0.8,0.8c0,1.1,0,2.2,0,3.4
		c0,0.4,0,0.9,0,1.3c0,0.9,0,1.8,0,2.7c0,0.7,0,1.4,0,2.1c0,0.6,0.2,0.8,0.8,0.8c2.2,0,4.4,0,6.6,0c0.9,0,0.8-0.5,0.8-1.1
		C141.6,130.5,141.6,130,140.8,130z"/>
	<path fill="#999999" d="M129.4,130c-1.3,0.1-2.6,0-3.9,0c-0.7,0-0.9-0.3-0.9-1c0-2.4,0-4.7,0-7.1c0-0.8-0.3-1.1-1.1-1
		c-0.7,0-1.3,0-1.2,1c0.1,1.5,0,3,0,4.5c0,1.6,0,3.2,0,4.8c0,0.6,0.2,0.9,0.9,0.8c2.1,0,4.1,0,6.2,0c0.8,0,0.8-0.4,0.8-1
		C130.2,130.6,130.3,130,129.4,130z"/>
	<path fill="#999999" d="M117.1,121c-0.6,0-1.2-0.2-1.2,0.8c0,3.2,0,6.3,0,9.5c0,0.9,0.5,0.9,1.1,0.8c0.6,0,1.3,0.3,1.3-0.8
		c0-1.6,0-3.1,0-4.7c0-1.6,0-3.2,0-4.8C118.3,120.9,117.7,121,117.1,121z"/>
	<path fill="#999999" d="M111.2,126.7c-0.2-0.1-0.3-0.2-0.5-0.3c0-0.1,0-0.2,0.1-0.2c1.1-0.8,1.5-1.8,1.1-3.1
		c-0.4-1.2-1.4-1.8-2.6-1.9c-1.8-0.1-3.5-0.1-5.3-0.2c-0.5,0-0.7,0.3-0.7,0.7c0,3.2,0,6.4,0,9.6c0,0.6,0.3,0.8,0.8,0.8c1,0,2,0,3,0
		c1.1-0.1,2.3-0.1,3.4-0.3c1-0.2,1.9-0.9,2-2.1C112.7,128.4,112.4,127.3,111.2,126.7z M105.5,123.1c1.1,0,2.1,0,3.2,0
		c0.6,0,1,0.4,1,1.1c0,0.6-0.3,1.1-0.9,1.2c-1,0.1-1.9,0.1-2.9,0.1c-0.1,0-0.4-0.3-0.4-0.5C105.5,124.5,105.5,123.8,105.5,123.1z
		 M109.5,130c-1.2,0-2.5,0-3.5,0c0-0.9,0-1.6,0-2.5c1,0,2.2,0,3.5,0c0.7,0,1.1,0.5,1.1,1.2C110.6,129.5,110.2,130,109.5,130z"/>
	<path fill="#999999" d="M94,120.9c-3.8,0.1-5.9,2.9-5.9,5.6c0,3.4,2.5,5.8,5.9,5.8c3.2,0,5.8-2.5,5.8-5.8
		C99.8,123.4,97.3,120.8,94,120.9z M94,130.2c-2,0-3.6-1.7-3.5-3.7c0-2.1,1.6-3.6,3.5-3.6c2,0,3.4,1.6,3.4,3.7
		C97.4,128.7,96,130.2,94,130.2z"/>
	<path fill="#999999" d="M84.5,121.1c-0.6-0.4-2.3,0-2.7,0.7c-0.8,1.3-1.6,2.6-2.5,4.1c-0.8-1.3-1.6-2.4-2.2-3.6
		c-0.6-1.2-1.4-1.4-2.6-1.3c-0.5,0.1-0.8,0.2-0.7,0.8c0,3.2,0,6.4,0,9.6c0,1.1,0.8,0.7,1.3,0.8c0.6,0.1,1,0,1-0.8c0-1.7,0-3.5,0-5.2
		c0-0.3,0-0.6,0.1-0.9l0.3-0.1c0.9,1.4,1.9,2.9,2.9,4.4c1.1-1.6,1.8-3.1,2.8-4.5c0.1,0,0,0.1,0,0.1c0,0.3,0,0.6,0,1
		c0,1.8,0.3,3.6,0.2,5.3c0,1,0.8,0.7,1.3,0.7c0.5,0,1.1,0.1,1.1-0.7c0-3.2,0-6.4,0-9.6C84.7,121.5,84.6,121.2,84.5,121.1z"/>
</g>
</svg>
