<?xml version="1.0" encoding="utf-8"?>
<!-- Generator: Adobe Illustrator 18.0.0, SVG Export Plug-In . SVG Version: 6.00 Build 0)  -->
<!DOCTYPE svg PUBLIC "-//W3C//DTD SVG 1.1//EN" "http://www.w3.org/Graphics/SVG/1.1/DTD/svg11.dtd">
<svg version="1.1" id="Layer_1" xmlns="http://www.w3.org/2000/svg" xmlns:xlink="http://www.w3.org/1999/xlink" x="0px" y="0px"
	 viewBox="0 0 220 202.6" enable-background="new 0 0 220 202.6" xml:space="preserve">
<g>
	<path fill="#999999" d="M176.5,103.8c0-0.5,0.6-0.9,0.9-1.4c0.3,0.4,0.8,0.9,0.8,1.3c0.1,4.3,0.1,8.5,0,12.8c0,0.4-0.5,0.8-0.8,1.2
		c-0.3-0.4-0.8-0.9-0.8-1.3c-0.1-2.1,0-4.3,0-6.4C176.4,107.9,176.4,105.9,176.5,103.8z"/>
	<path fill="#999999" d="M147.8,117.7c-0.3-0.5-0.9-1-0.9-1.4c-0.1-4.1-0.1-8.3,0-12.4c0-0.5,0.6-1,0.9-1.5c0.3,0.5,0.9,0.9,0.9,1.4
		c0.1,2.1,0,4.1,0,6.2c0,2.1,0.1,4.1,0,6.2C148.6,116.7,148.1,117.2,147.8,117.7z"/>
	<path fill="#999999" d="M107.6,102.4c0.3,0.4,0.8,0.8,0.8,1.3c0.1,1.4,0,2.8,0,4.2c-0.2,0.2-0.5,0.3-0.7,0.5c-0.4-0.5-1-1-1.1-1.5
		c-0.2-1-0.1-2.1,0-3.1C106.7,103.2,107.3,102.8,107.6,102.4z"/>
	<path fill="#999999" d="M70.8,103.5c0-0.4,0.6-0.8,0.9-1.1c0.3,0.4,0.7,0.7,0.8,1.1c0.1,1.1,0,2.2,0.1,3.3c0.1,1.3-0.6,1.5-1.8,1.2
		C70.8,106.4,70.7,105,70.8,103.5z"/>
	<path fill="#999999" d="M177.4,99.2c-3.6-1.5-5.9,0-5.9,3.9c0,4.8-0.1,9.6,0,14.4c0,3.1,2.5,4.6,5.4,3.6c0.6-0.2,1.3-0.1,1.9-0.1
		c1.3,0,2.7,0,4.2,0c0-8.2,0-16.1,0-24c0-0.4-0.6-1-1-1c-1.2-0.1-2.4-0.1-3.7-0.1c-0.1,1.3-0.1,2.4-0.2,3.5
		C177.8,99.3,177.6,99.3,177.4,99.2z M161.5,99c-0.9,0.3-1.6,0.6-2.8,0.1c-2.8-1.1-3.9-0.1-3.9,3c0,4.3,0,8.5,0,12.8c0,2,0,4,0,6.1
		c1.7,0,3.1,0,4.8,0c0-4.7,0-9.3,0-13.8c0-3.7,0-3.7,3.7-4.5c0-1,0-1.9,0-2.8c0-0.3-0.1-0.6-0.1-1.1C162.6,98.8,162.1,98.8,161.5,99
		z M147.9,98.6c-3.4-0.1-5.7,1.9-5.8,5.1c-0.1,2.1,0,4.3,0,6.4h0c0,2.1-0.1,4.1,0,6.2c0.1,3.3,2.3,5.2,5.8,5.1
		c3.4-0.1,5.5-2,5.5-5.2c0.1-4.1,0.1-8.3,0-12.4C153.4,100.7,151.2,98.7,147.9,98.6z M131.2,99.1c-0.5,3.2-0.9,6.2-1.3,9.1
		c-0.1,0-0.2,0-0.2,0c-0.3-3-0.6-6-1-9.1c-1.5,0-2.9,0-4.6,0c1.2,7.4,2.4,14.6,3.5,21.8c0.4,0.1,0.7,0.1,1,0.1
		c1.9,0.3,2.9-0.2,3-2.4c0.1-2.2,0.7-4.3,1-6.5c0.1,0,0.2,0,0.2,0c0.5,2.9,0.9,5.8,1.4,8.8c1.2,0,2.4,0,3.6,0
		c1.3-7.3,2.6-14.5,3.9-21.9c-1.7,0-3.1,0-4.6,0c-0.3,3.1-0.6,6.1-1,9.1c-0.7-2.6-1-5.3-1.4-7.8c-0.1-0.5-0.9-1.1-1.4-1.3
		C132.8,98.8,132,99,131.2,99.1z M114.2,99.2c-0.2,1.8-0.8,3.7,2,3.6c0,4.4,0,8.6,0,12.8c0,4.5,2.3,6.2,6.8,5.2c0-1.1,0-2.3,0-2.9
		c-0.9-0.9-2-1.5-2-2.1c-0.1-4.3-0.1-8.7-0.1-13c0.9-0.1,1.5-0.3,2.2-0.4c0-1.1,0-2.2,0-3.3c-0.8-0.1-1.5-0.3-2.1-0.4
		c-0.1-1-0.2-1.9-0.2-2.7c-1.6,0-3.1,0-4.5,0c-0.1,1.1-0.1,1.9-0.2,2.8C115.3,99,114.7,99.1,114.2,99.2z M107.7,117.7
		c-0.3-0.4-1-0.7-1-1.1c-0.1-1.8-0.1-3.7-0.1-5.6c2.3,0,4.3,0,6.5,0c0-2.9,0.1-5.5,0-8.2c-0.2-2.5-2.7-4.2-5.7-4.2
		c-3.1,0.1-5.5,1.8-5.5,4.6c-0.1,4.6-0.1,9.2,0,13.8c0.1,2.5,2.2,4.2,5,4.5c2.9,0.2,5.7-1.3,6.1-3.7c0.3-1.5,0-3.1,0-4.7
		c-1.5,0-3,0-4.7,0c0,1.2,0.1,2.4,0,3.5C108.4,116.9,107.9,117.3,107.7,117.7z M96,98.7c-2,0.7-3.9,0.1-5.9,0.3
		c-0.4,0-0.9,0.1-1.3,0.2c0,7.3,0,14.5,0,21.8c1.6,0,3,0,4.6,0c0-0.8,0-1.5,0-2.2c0-4.8,0-9.6,0-14.4c0-0.7,0.6-1.3,0.9-2
		c0.3,0.7,0.8,1.4,0.9,2.1c0.1,4,0,7.9,0,11.9c0,1.5,0,3.1,0,4.6c1.7,0,3.2,0,4.7,0c0-6.4,0-12.7,0-19C99.9,99.8,98,98,96,98.7z
		 M84.4,99.4c-0.3,0.1-0.6,0.2-0.9,0.1C82,99.3,80.6,99,79,98.8c0,7.7,0,14.9,0,22.2c1.6,0,3,0,4.6,0c0-4.8,0-9.4,0-14.1
		c0-3.6,0-3.6,3.7-4.2c0-1.3,0-2.6,0-4.2C86.2,98.8,85.3,99.1,84.4,99.4z M66,116.5c0,2.2,1.2,3.8,3.3,4.5c2.4,0.8,4.6,0.6,6.6-1.1
		c2.2-1.9,1.4-4.5,1.4-6.9c-1.6,0-3,0-4.7,0c0,1.4,0.1,2.5,0,3.7c0,0.4-0.6,0.7-0.9,1.1c-0.3-0.4-0.8-0.7-0.8-1.1
		c-0.1-1.8,0-3.7,0-5.8c2.3,0,4.4,0,6.6,0c0-2.6,0.1-5,0-7.4c-0.1-3-2.5-4.9-5.9-4.8c-3.2,0.1-5.4,2-5.4,4.9
		C66,107.8,66,112.2,66,116.5z M57.5,115.4c0,4.7,2.1,6.3,6.9,5.4c0-1.2,0-2.4,0-3.6c-0.1,0.1-0.3,0.2-0.4,0.3
		c-0.6-0.5-1.6-1.1-1.7-1.6c-0.1-4.4-0.1-8.8-0.1-13.1c0.9-0.2,1.6-0.3,2.3-0.4c0-1.1,0-2.2,0-3.2c-0.8-0.1-1.5-0.2-2.2-0.3
		c-0.1-1-0.1-1.8-0.2-2.8c-1.6,0-3,0-4.5,0c-0.1,1-0.2,1.9-0.2,2.8c-0.6,0.2-1.2,0.3-1.8,0.4c0,1.1,0,2.1,0,3.2
		c0.6,0.1,1.2,0.3,1.9,0.4C57.5,107.1,57.5,111.2,57.5,115.4z M47.9,104.1c0-0.6,0.7-1.2,1-1.7c0.3,0.6,0.8,1.1,0.8,1.7
		c0.1,4.9,0,9.9,0,14.8c0,0.7,0.1,1.4,0.1,2.1c1.6,0,3,0,4.6,0c0-6.6,0.1-13,0-19.5c0-1.8-2.2-3.4-4-2.8c-2,0.8-3.8,0.1-5.7,0.3
		c-0.5,0-1,0.1-1.5,0.2c0,7.3,0,14.5,0,21.7c1.6,0,3,0,4.6,0c0-0.8,0-1.4,0-2C47.9,114,47.8,109,47.9,104.1z M38.5,127.9
		c1.5,0,2.8-1.3,2.6-2.7c-0.2-1.4-1-2.4-2.6-2.3c-1.5,0-2.6,1.1-2.5,2.6C36.2,127,37.2,127.7,38.5,127.9z M36.4,121
		c1.5,0,2.9,0,4.5,0c0.1-0.6,0.1-1.1,0.1-1.5c0-6.2-0.1-12.4,0.1-18.6c0-2.2-1.2-1.8-2.5-1.8c-1.4-0.1-2.4,0-2.4,2
		c0.1,6.1,0,12.2,0.1,18.3C36.2,119.7,36.3,120.3,36.4,121z M187.8,90.7c0,13,0,25.9,0,38.9c-52.5,0-105,0-157.6,0
		c0-13,0-25.9,0-38.9C82.8,90.7,135.3,90.7,187.8,90.7z M169.4,120.9c0-8.4,0-16.6,0-25c-1.5,0-2.9,0-4.5,0c0,8.4,0,16.7,0,25
		C166.5,120.9,168,120.9,169.4,120.9z"/>
</g>
</svg>
