<?xml version="1.0" encoding="utf-8"?>
<!-- Generator: Adobe Illustrator 18.0.0, SVG Export Plug-In . SVG Version: 6.00 Build 0)  -->
<!DOCTYPE svg PUBLIC "-//W3C//DTD SVG 1.1//EN" "http://www.w3.org/Graphics/SVG/1.1/DTD/svg11.dtd">
<svg version="1.1" id="Layer_1" xmlns="http://www.w3.org/2000/svg" xmlns:xlink="http://www.w3.org/1999/xlink" x="0px" y="0px"
	 viewBox="0 0 220 202.6" enable-background="new 0 0 220 202.6" xml:space="preserve">
<g>
	<path fill="#999999" d="M81.2,111.6c0,1.2,0.9,2.1,2.1,2.1h1.5c1.2,0,2.1-0.9,2.1-2.1v-8.8c0-1.2-0.9-2.1-2.1-2.1h-1.5
		c-1.2,0-2.1,1-2.1,2.1V111.6L81.2,111.6z"/>
	<path fill="#999999" d="M135.8,71.1H111c-0.5,0-1.1,0.3-1.4,0.6L83.7,97.5h1c3.3,0,5.5,2.1,5.5,5.3v8.8c0,3.1-2.2,5.3-5.5,5.3h-1.5
		c-3.4,0-5.5-2.1-5.5-5.3v-8.1l-12.3,12.3c-0.3,0.3-0.6,1-0.6,1.4V142c0,0.4,0.3,0.7,0.6,0.8h25.4c0.4-0.1,0.9-0.3,1.1-0.6
		l25.8-25.8h-7.5c-0.2,0-0.3-0.1-0.3-0.3V98.1c0-0.2,0.1-0.3,0.3-0.3h10.5c0.2,0,0.3,0.1,0.3,0.3v2.5c0,0.2-0.1,0.3-0.3,0.3h-7.1
		c-0.2,0-0.3,0.1-0.3,0.3v3.9c0,0.2,0.1,0.3,0.3,0.3h5.8c0.2,0,0.3,0.1,0.3,0.3v2.5c0,0.2-0.1,0.3-0.3,0.3h-5.8
		c-0.2,0-0.3,0.1-0.3,0.3v4.2c0,0.2,0.1,0.3,0.3,0.3h7.1c0,0,0.1,0,0.1,0L136,98.2c0.3-0.3,0.6-1,0.6-1.4V72
		C136.6,71.5,136.3,71.1,135.8,71.1L135.8,71.1z M106,116.2c0,0.2-0.1,0.3-0.3,0.3h-2.5l-0.3-0.1l-6.1-11.9l0.1,11.8
		c0,0.2-0.1,0.3-0.3,0.3H94c-0.2,0-0.3-0.1-0.3-0.3V98.1c0-0.2,0.1-0.3,0.3-0.3h2.5l0.3,0.1l6.1,12l-0.1-11.9c0-0.2,0.1-0.3,0.3-0.3
		h2.7c0.2,0,0.3,0.1,0.3,0.3V116.2L106,116.2z"/>
	<path fill="#999999" d="M61.3,98.8h-1.4c-0.1,0-0.1,0-0.1,0.1v6.3c0,0.1,0,0.1-0.1,0.1h-1.2c-0.1,0-0.1,0-0.1-0.1v-6.3
		c0-0.1,0-0.1-0.1-0.1h-1.4c-0.1,0-0.1,0-0.1-0.1v-1.1c0-0.1,0-0.1,0.1-0.1h4.4c0.1,0,0.1,0,0.1,0.1v1.1
		C61.4,98.8,61.4,98.8,61.3,98.8L61.3,98.8z"/>
	<path fill="#999999" d="M67.7,105.4h-1.2c-0.1,0-0.1,0-0.1-0.1v-3.1c0-0.1,0-0.1-0.1-0.1H64c-0.1,0-0.1,0-0.1,0.1v3.1
		c0,0.1,0,0.1-0.1,0.1h-1.2c-0.1,0-0.1,0-0.1-0.1v-7.6c0-0.1,0-0.1,0.1-0.1h1.2c0.1,0,0.1,0,0.1,0.1v3c0,0.1,0,0.1,0.1,0.1h2.3
		c0.1,0,0.1,0,0.1-0.1v-3c0-0.1,0-0.1,0.1-0.1h1.2c0.1,0,0.1,0,0.1,0.1v7.6C67.8,105.3,67.8,105.4,67.7,105.4L67.7,105.4z"/>
	<path fill="#999999" d="M73.7,105.4h-4.4c-0.1,0-0.1,0-0.1-0.1v-7.6c0-0.1,0-0.1,0.1-0.1h4.4c0.1,0,0.1,0,0.1,0.1v1.1
		c0,0.1,0,0.1-0.1,0.1h-3c-0.1,0-0.1,0-0.1,0.1v1.7c0,0.1,0,0.1,0.1,0.1h2.4c0.1,0,0.1,0,0.1,0.1v1.1c0,0.1,0,0.1-0.1,0.1h-2.4
		c-0.1,0-0.1,0-0.1,0.1v1.8c0,0.1,0,0.1,0.1,0.1h3c0.1,0,0.1,0,0.1,0.1v1.1C73.9,105.3,73.8,105.4,73.7,105.4L73.7,105.4z"/>
	<path fill="#999999" d="M128.4,110.7c0,0.6,0.6,0.8,1.4,1.2c1.3,0.6,2,1.3,2,2.5c0,1.3-0.9,2.2-2.3,2.2H129c-0.7,0-1.2-0.2-1.6-0.6
		c-0.4-0.4-0.6-0.8-0.6-0.9c0,0,0-0.1,0.1-0.1l1.1-0.5c0,0,0,0,0.1,0c0.1,0,0.1,0.1,0.2,0.4c0.1,0.3,0.4,0.4,0.7,0.4h0.5
		c0.5,0,0.9-0.4,0.9-0.9c0-0.6-0.5-0.8-1.3-1.2c-1.4-0.7-2.1-1.2-2.1-2.5c0-1.3,0.9-2.2,2.3-2.2h0.2c0.6,0,1,0.1,1.4,0.4
		c0.5,0.3,0.8,0.9,0.8,1.1c0,0,0,0.1-0.1,0.1l-1.1,0.5c0,0-0.1,0-0.1,0c-0.1,0-0.1-0.1-0.2-0.2c-0.2-0.4-0.4-0.6-0.8-0.6h-0.2
		C128.8,109.8,128.4,110.2,128.4,110.7L128.4,110.7z"/>
	<path fill="#999999" d="M138,116.5h-1.2c-0.1,0-0.1,0-0.1-0.1v-3.1c0-0.1,0-0.1-0.1-0.1h-2.3c-0.1,0-0.1,0-0.1,0.1v3.1
		c0,0.1,0,0.1-0.1,0.1h-1.2c-0.1,0-0.1,0-0.1-0.1v-7.6c0-0.1,0-0.1,0.1-0.1h1.2c0.1,0,0.1,0,0.1,0.1v3c0,0.1,0,0.1,0.1,0.1h2.3
		c0.1,0,0.1,0,0.1-0.1v-3c0-0.1,0-0.1,0.1-0.1h1.2c0.1,0,0.1,0,0.1,0.1v7.6C138.1,116.4,138.1,116.5,138,116.5L138,116.5z"/>
	<path fill="#999999" d="M142.3,116.6h-0.6c-1.4,0-2.3-0.9-2.3-2.2v-3.7c0-1.3,0.9-2.2,2.3-2.2h0.6c1.4,0,2.3,0.9,2.3,2.2v3.7
		C144.6,115.7,143.7,116.6,142.3,116.6L142.3,116.6z M143.1,110.7c0-0.5-0.4-0.9-0.9-0.9h-0.6c-0.5,0-0.9,0.4-0.9,0.9v3.7
		c0,0.5,0.4,0.9,0.9,0.9h0.6c0.5,0,0.9-0.4,0.9-0.9V110.7L143.1,110.7z"/>
	<path fill="#999999" d="M151.7,116.4c0,0.1-0.1,0.1-0.1,0.1h-0.9c-0.1,0-0.1,0-0.1-0.1l-1.3-4.9l-1.2,4.9c0,0.1,0,0.1-0.1,0.1H147
		c-0.1,0-0.1,0-0.1-0.1l-1.6-7.6c0,0,0,0,0-0.1c0-0.1,0.1-0.1,0.1-0.1h1.3c0.1,0,0.1,0,0.1,0.1l0.9,5.1l1.2-5.1c0-0.1,0-0.1,0.1-0.1
		h0.6c0.1,0,0.1,0,0.1,0.1l1.2,5.1l0.9-5.1c0-0.1,0.1-0.1,0.1-0.1h1.3c0.1,0,0.1,0,0.1,0.1c0,0,0,0,0,0.1L151.7,116.4L151.7,116.4z"
		/>
	<path fill="#999999" d="M131.9,122.9h-3c-0.1,0-0.1,0-0.1,0.1v1.7c0,0.1,0,0.1,0.1,0.1h2.4c0.1,0,0.1,0,0.1,0.1v1.1
		c0,0.1,0,0.1-0.1,0.1h-2.4c-0.1,0-0.1,0-0.1,0.1v3.1c0,0.1,0,0.1-0.1,0.1h-1.2c-0.1,0-0.1,0-0.1-0.1v-7.6c0-0.1,0-0.1,0.1-0.1h4.4
		c0.1,0,0.1,0,0.1,0.1v1.1C132,122.9,132,122.9,131.9,122.9L131.9,122.9z"/>
	<path fill="#999999" d="M137.4,129.4H133c-0.1,0-0.1,0-0.1-0.1v-7.6c0-0.1,0-0.1,0.1-0.1h4.4c0.1,0,0.1,0,0.1,0.1v1.1
		c0,0.1,0,0.1-0.1,0.1h-3c-0.1,0-0.1,0-0.1,0.1v1.7c0,0.1,0,0.1,0.1,0.1h2.4c0.1,0,0.1,0,0.1,0.1v1.1c0,0.1,0,0.1-0.1,0.1h-2.4
		c-0.1,0-0.1,0-0.1,0.1v1.8c0,0.1,0,0.1,0.1,0.1h3c0.1,0,0.1,0,0.1,0.1v1.1C137.5,129.4,137.5,129.4,137.4,129.4L137.4,129.4z"/>
	<path fill="#999999" d="M139.9,123.7c0,0.6,0.6,0.8,1.4,1.2c1.3,0.6,2,1.3,2,2.5c0,1.3-0.9,2.2-2.3,2.2h-0.5
		c-0.7,0-1.2-0.2-1.6-0.6c-0.4-0.4-0.6-0.8-0.6-0.9c0,0,0-0.1,0.1-0.1l1.1-0.5c0,0,0,0,0.1,0c0.1,0,0.1,0.1,0.2,0.4
		c0.1,0.3,0.4,0.4,0.7,0.4h0.5c0.5,0,0.9-0.4,0.9-0.9c0-0.6-0.5-0.8-1.3-1.2c-1.4-0.7-2.1-1.2-2.1-2.5c0-1.3,0.9-2.2,2.3-2.2h0.2
		c0.6,0,1,0.1,1.4,0.4c0.5,0.3,0.8,0.9,0.8,1.1c0,0,0,0.1-0.1,0.1l-1.1,0.5c0,0,0,0-0.1,0c-0.1,0-0.1-0.1-0.2-0.2
		c-0.2-0.4-0.4-0.6-0.8-0.6h-0.2C140.3,122.8,139.9,123.2,139.9,123.7L139.9,123.7z"/>
	<path fill="#999999" d="M148.2,122.9h-1.4c-0.1,0-0.1,0-0.1,0.1v6.3c0,0.1,0,0.1-0.1,0.1h-1.2c-0.1,0-0.1,0-0.1-0.1V123
		c0-0.1,0-0.1-0.1-0.1h-1.4c-0.1,0-0.1,0-0.1-0.1v-1.1c0-0.1,0-0.1,0.1-0.1h4.4c0.1,0,0.1,0,0.1,0.1v1.1
		C148.3,122.9,148.3,122.9,148.2,122.9L148.2,122.9z"/>
	<path fill="#999999" d="M150.5,129.4h-1.2c-0.1,0-0.1,0-0.1-0.1v-7.6c0-0.1,0-0.1,0.1-0.1h1.2c0.1,0,0.1,0,0.1,0.1v7.6
		C150.6,129.4,150.6,129.4,150.5,129.4L150.5,129.4z"/>
	<path fill="#999999" d="M154.8,129.4c0,0.1-0.1,0.1-0.1,0.1h-0.9c-0.1,0-0.1,0-0.1-0.1l-2.3-7.6c0,0,0,0,0-0.1c0-0.1,0-0.1,0.1-0.1
		h1.2c0.1,0,0.1,0,0.1,0.1l1.4,5.1l1.4-5.1c0-0.1,0-0.1,0.1-0.1h1.3c0.1,0,0.1,0,0.1,0.1c0,0,0,0,0,0.1L154.8,129.4L154.8,129.4z"/>
	<path fill="#999999" d="M162,129.3c0,0.1,0,0.1-0.1,0.1h-1.3c-0.1,0-0.1,0-0.1-0.1l-0.4-1.3c0-0.1,0-0.1-0.1-0.1h-1.8
		c-0.1,0-0.1,0-0.1,0.1l-0.4,1.3c0,0.1-0.1,0.1-0.1,0.1h-1.2c-0.1,0-0.1,0-0.1-0.1c0,0,0,0,0-0.1l2.3-7.6c0-0.1,0.1-0.1,0.1-0.1h0.9
		c0.1,0,0.1,0,0.1,0.1L162,129.3C162,129.3,162,129.3,162,129.3L162,129.3z M159.3,124.9c0-0.1-0.1-0.3-0.1-0.7h0
		c-0.1,0.4-0.1,0.6-0.2,0.7l-0.4,1.6c0,0,0,0,0,0.1c0,0.1,0.1,0.1,0.1,0.1h0.9c0.1,0,0.1,0,0.1-0.1c0,0,0,0,0-0.1L159.3,124.9
		L159.3,124.9z"/>
	<path fill="#999999" d="M167.1,129.4h-4.4c-0.1,0-0.1,0-0.1-0.1v-7.6c0-0.1,0-0.1,0.1-0.1h1.2c0.1,0,0.1,0,0.1,0.1v6.3
		c0,0.1,0,0.1,0.1,0.1h3c0.1,0,0.1,0,0.1,0.1v1.1C167.2,129.4,167.2,129.4,167.1,129.4L167.1,129.4z"/>
</g>
</svg>
