<?xml version="1.0" encoding="utf-8"?>
<!-- Generator: Adobe Illustrator 18.0.0, SVG Export Plug-In . SVG Version: 6.00 Build 0)  -->
<!DOCTYPE svg PUBLIC "-//W3C//DTD SVG 1.1//EN" "http://www.w3.org/Graphics/SVG/1.1/DTD/svg11.dtd">
<svg version="1.1" id="Layer_1" xmlns="http://www.w3.org/2000/svg" xmlns:xlink="http://www.w3.org/1999/xlink" x="0px" y="0px"
	 viewBox="0 0 220 202.6" enable-background="new 0 0 220 202.6" xml:space="preserve">
<g>
	<path fill="#999999" d="M60.8,107.3v4.5C95.8,109.7,69.8,108.6,60.8,107.3"/>
	<path fill="#999999" d="M60.8,114.7v4.4l0.3,0.1C87.7,116.8,80.1,115.9,60.8,114.7"/>
	<path fill="#999999" d="M60.8,75.4V90c21.9-0.7,22-2,10.7-3.5l2-2.5c14,2.2,13.2,5.7,3.1,7.5c3.4,1.2,15.4,3.4,0.9,7.7
		c2.4,0.6,15.6,3.9-0.9,6.9c2.6,1.2,16.5,2.9,0.6,7.2c4.1,0.7,14.7,2.9,0.7,7.5c5.3,0.6,5.9,0.7,7.3,3.2v9.5h6.4v-58H60.8z"/>
	<path fill="#999999" d="M60.8,100.4v4.5C67.4,103.6,97.4,103.1,60.8,100.4"/>
	<path fill="#999999" d="M60.8,92.7v4.8C81.4,96.4,88.3,94.9,60.8,92.7"/>
	<polygon fill="#999999" points="99.2,90.9 95.7,90.9 95.7,90.2 103.4,90.2 103.4,90.9 99.9,90.9 99.9,100.3 99.2,100.3 	"/>
	<polygon fill="#999999" points="105.3,90.2 106.1,90.2 106.1,94.9 112.5,94.9 112.5,90.2 113.3,90.2 113.3,100.3 112.5,100.3 
		112.5,95.5 106.1,95.5 106.1,100.3 105.3,100.3 	"/>
	<polygon fill="#999999" points="115.9,90.2 123,90.2 123,90.9 116.6,90.9 116.6,94.8 122.4,94.8 122.4,95.5 116.6,95.5 116.6,99.6 
		123.1,99.6 123.1,100.3 115.9,100.3 	"/>
	<polygon fill="#999999" points="96.2,106 99.5,106 101.5,112.6 103.7,106 106.4,106 108.6,112.6 110.6,106 113.9,106 110.1,117.5 
		107.3,117.5 105.1,111 102.8,117.5 100,117.5 	"/>
	<path fill="#999999" d="M113.9,111.7L113.9,111.7c0-3.5,2.5-6.2,5.9-6.2c4,0,5.9,3,5.9,6.4c0,0.3,0,0.6,0,0.8h-7.9
		c0.3,1.3,1.3,1.9,2.5,1.9c1,0,1.8-0.4,2.6-1.2l2.3,1.9c-1.1,1.4-2.8,2.4-5.1,2.4C116.5,117.7,113.9,115.3,113.9,111.7 M121.9,110.6
		c-0.2-1.3-0.9-2.1-2.1-2.1c-1.1,0-1.8,0.8-2,2.1H121.9z"/>
	<path fill="#999999" d="M128,106h5.8c1.4,0,2.4,0.4,3.1,1c0.5,0.5,0.7,1.1,0.7,1.9v0c0,1.3-0.7,2.1-1.8,2.5
		c1.4,0.5,2.3,1.2,2.3,2.8v0c0,2-1.6,3.1-4.3,3.1H128V106z M134.6,109.6c0-0.6-0.5-1-1.4-1h-2.1v2h2
		C134,110.6,134.6,110.3,134.6,109.6L134.6,109.6z M133.5,112.8h-2.4v2.1h2.4c1,0,1.5-0.4,1.5-1v0
		C135,113.2,134.5,112.8,133.5,112.8"/>
	<path fill="#999999" d="M140.6,106h5.8c1.4,0,2.4,0.4,3.1,1c0.5,0.5,0.7,1.1,0.7,1.9v0c0,1.3-0.7,2.1-1.8,2.5
		c1.4,0.5,2.3,1.2,2.3,2.8v0c0,2-1.6,3.1-4.3,3.1h-5.9V106z M147.2,109.6c0-0.6-0.5-1-1.4-1h-2.1v2h2
		C146.6,110.6,147.2,110.3,147.2,109.6L147.2,109.6z M146.1,112.8h-2.4v2.1h2.4c1,0,1.5-0.4,1.5-1v0
		C147.6,113.2,147.2,112.8,146.1,112.8"/>
	<polygon fill="#999999" points="155.2,113.2 150.8,106 154.4,106 156.7,110.2 159.1,106 162.6,106 158.3,113.1 158.3,117.4 
		155.2,117.4 	"/>
	<path fill="#999999" d="M101.4,122.3h0.7l4.7,10.1h-0.8l-1.3-2.8h-5.9l-1.3,2.8h-0.8L101.4,122.3z M104.4,129l-2.6-5.8L99,129
		H104.4z"/>
	<polygon fill="#999999" points="106.7,122.4 107.5,122.4 110.7,131.3 113.6,122.4 114.2,122.4 117.2,131.3 120.3,122.4 
		121.1,122.4 117.5,132.5 116.9,132.5 113.9,123.8 111,132.5 110.4,132.5 	"/>
	<path fill="#999999" d="M126,122.3h0.7l4.7,10.1h-0.8l-1.3-2.8h-5.9l-1.3,2.8h-0.8L126,122.3z M129,129l-2.6-5.8l-2.7,5.8H129z"/>
	<path fill="#999999" d="M133.1,122.4h4.2c1.2,0,2.2,0.4,2.8,1c0.5,0.5,0.8,1.1,0.8,1.9v0c0,1.7-1.3,2.6-2.9,2.9l3.3,4.3h-0.9
		l-3.2-4.2h-3.3v4.2h-0.7V122.4z M137.3,127.6c1.7,0,2.9-0.8,2.9-2.3v0c0-1.4-1.1-2.2-2.9-2.2h-3.4v4.5H137.3z"/>
	<path fill="#999999" d="M143.2,122.4h3.3c3.2,0,5.3,2.2,5.3,5v0c0,2.8-2.2,5-5.3,5h-3.3V122.4z M143.9,123.1v8.7h2.6
		c2.8,0,4.6-1.9,4.6-4.3v0c0-2.4-1.8-4.3-4.6-4.3H143.9z"/>
	<path fill="#999999" d="M153.2,131l0.5-0.6c1.1,1,2.1,1.5,3.6,1.5c1.5,0,2.5-0.8,2.5-2v0c0-1.1-0.6-1.7-2.8-2.1
		c-2.4-0.5-3.4-1.3-3.4-2.8v0c0-1.5,1.4-2.6,3.2-2.6c1.5,0,2.4,0.4,3.4,1.2l-0.5,0.6c-0.9-0.8-1.9-1.1-3-1.1c-1.5,0-2.5,0.8-2.5,1.9
		v0c0,1.1,0.5,1.7,2.9,2.2c2.3,0.5,3.3,1.3,3.3,2.8v0c0,1.6-1.4,2.7-3.3,2.7C155.7,132.6,154.4,132.1,153.2,131"/>
</g>
</svg>
